<?xml version="1.0" encoding="UTF-8" standalone="no"?>
<svg width="120px" height="41px" viewBox="0 0 120 41" version="1.1" xmlns="http://www.w3.org/2000/svg" xmlns:xlink="http://www.w3.org/1999/xlink">
    <!-- Generator: Sketch 48.2 (47327) - http://www.bohemiancoding.com/sketch -->
    <title>Appstore</title>
    <desc>Created with Sketch.</desc>
    <defs></defs>
    <g id="001---MC---Home---No-Clientes" stroke="none" stroke-width="1" fill="none" fill-rule="evenodd" transform="translate(-793.000000, -3174.000000)">
        <g id="Section-5---MC-Go-Live" transform="translate(0.000000, 2928.000000)">
            <g id="Group-19">
                <g id="Section-5---MC-Go-Live">
                    <g id="CONTENT" transform="translate(656.000000, 154.000000)">
                        <g id="Group-9" transform="translate(0.000000, 92.000000)">
                            <g id="Appstore" transform="translate(137.000000, 0.000000)">
                                <rect id="background" fill="#000000" x="0" y="0" width="119.228571" height="41" rx="5.66280031"></rect>
                                <path d="M26.0234124,19.6195343 C25.9974347,16.6867738 28.3873809,15.2599762 28.4966663,15.1935501 C27.1431398,13.1889359 25.0452186,12.9150418 24.3079901,12.893203 C22.5459871,12.7048439 20.8368352,13.9642111 19.9392617,13.9642111 C19.0237726,13.9642111 17.6415811,12.911402 16.1518958,12.9423402 C14.2349226,12.9723685 12.4415672,14.0997933 11.4579987,15.8505321 C9.42815686,19.4202558 10.9420283,24.6661026 12.8867708,27.5515458 C13.8595899,28.9656041 14.9963372,30.542543 16.4842309,30.4870362 C17.9398765,30.4269796 18.4836161,29.5443307 20.2402444,29.5443307 C21.9807487,29.5443307 22.4913444,30.4870362 24.0087989,30.4506383 C25.5710426,30.4269796 26.5546111,29.0320303 27.4933905,27.6052327 C28.6175968,25.9873462 29.0690709,24.3903885 29.0869865,24.3084933 C29.0511553,24.296664 26.053869,23.1346611 26.0234124,19.6195343" id="Fill-2" fill="#FFFFFF"></path>
                                <path d="M47.1161844,30.2315801 L45.0818637,30.2315801 L43.967511,26.6745957 L40.09415,26.6745957 L39.0326485,30.2315801 L37.0520747,30.2315801 L40.8905001,18.122 L43.260739,18.122 L47.1161844,30.2315801 L47.1161844,30.2315801 Z M43.6315928,25.1822819 L42.6238381,22.0211246 C42.5172401,21.6971834 42.3165849,20.9364673 42.0227685,19.7389765 L41.9869372,19.7389765 C41.868694,20.2540068 41.679684,21.0147228 41.420803,22.0211246 L40.4300682,25.1822819 L43.6315928,25.1822819 L43.6315928,25.1822819 Z" id="Fill-4" fill="#FFFFFF"></path>
                                <path d="M57.0331074,25.7587235 C57.0331074,27.2437576 56.6362761,28.4175898 55.8417175,29.27931 C55.1304667,30.0463956 54.2463299,30.4294835 53.1919946,30.4294835 C52.0534558,30.4294835 51.2347112,30.0172773 50.7375522,29.1901351 L50.7375522,33.7717203 L48.8277452,33.7717203 L48.8277452,24.3701437 C48.8277452,23.4374476 48.8035591,22.4810929 48.7569784,21.5001696 L50.4365695,21.5001696 L50.5431675,22.8851095 L50.5789988,22.8851095 C51.2158998,21.8413999 52.1824484,21.32 53.4795406,21.32 C54.4935657,21.32 55.3400796,21.7267465 56.0172908,22.5411494 C56.6936061,23.3573722 57.0331074,24.4292903 57.0331074,25.7587235 L57.0331074,25.7587235 Z M55.0874691,25.8296994 C55.0874691,24.9798085 54.8993549,24.279149 54.521335,23.7277208 C54.1083795,23.153544 53.5538905,22.8650907 52.8587638,22.8650907 C52.3875825,22.8650907 51.9593987,23.0252414 51.5768999,23.3419031 C51.1935052,23.6594748 50.9426863,24.0753208 50.8253388,24.5912609 C50.7662172,24.8305771 50.7366564,25.0262158 50.7366564,25.1809069 L50.7366564,26.6386426 C50.7366564,27.271966 50.9283538,27.807925 51.3117484,28.2465197 C51.6951431,28.6832944 52.1931978,28.9025918 52.8059126,28.9025918 C53.5252255,28.9025918 54.0850892,28.6195981 54.4855037,28.0581606 C54.886814,27.4949031 55.0874691,26.752386 55.0874691,25.8296994 L55.0874691,25.8296994 Z" id="Fill-5" fill="#FFFFFF"></path>
                                <path d="M66.8822671,25.7587235 C66.8822671,27.2437576 66.4854357,28.4175898 65.6908771,29.27931 C64.9787305,30.0463956 64.0954896,30.4294835 63.0402585,30.4294835 C61.9026155,30.4294835 61.0838708,30.0172773 60.5858161,29.1901351 L60.5858161,33.7717203 L58.6760091,33.7717203 L58.6760091,24.3701437 C58.6760091,23.4374476 58.6518229,22.4810929 58.6052423,21.5001696 L60.2848334,21.5001696 L60.3914314,22.8851095 L60.4272627,22.8851095 C61.0632678,21.8413999 62.0298165,21.32 63.3278045,21.32 C64.3409338,21.32 65.1883435,21.7267465 65.8664504,22.5411494 C66.54187,23.3573722 66.8822671,24.4292903 66.8822671,25.7587235 L66.8822671,25.7587235 Z M64.935733,25.8296994 C64.935733,24.9798085 64.746723,24.279149 64.3687031,23.7277208 C63.9566434,23.153544 63.4030502,22.8650907 62.7079234,22.8650907 C62.2367421,22.8650907 61.8085584,23.0252414 61.4242679,23.3419031 C61.0417691,23.6594748 60.7909501,24.0753208 60.6736027,24.5912609 C60.6153769,24.8305771 60.5840245,25.0262158 60.5840245,25.1809069 L60.5840245,26.6386426 C60.5840245,27.271966 60.7766176,27.807925 61.1582207,28.2465197 C61.5416154,28.6823845 62.0396701,28.9025918 62.6541765,28.9025918 C63.3743851,28.9025918 63.9342488,28.6195981 64.3337676,28.0581606 C64.7350779,27.4949031 64.935733,26.752386 64.935733,25.8296994 L64.935733,25.8296994 Z" id="Fill-6" fill="#FFFFFF"></path>
                                <path d="M77.9461003,26.850916 C77.9461003,27.8809765 77.5922665,28.719038 76.8863903,29.3660107 C76.1106432,30.0721298 75.0276429,30.4260994 73.6391809,30.4260994 C72.3564212,30.4260994 71.3280636,30.1749539 70.5523165,29.671753 L70.993937,28.0547764 C71.831493,28.5579774 72.751461,28.8100328 73.7529452,28.8100328 C74.4731539,28.8100328 75.0330176,28.6444224 75.4325363,28.3159313 C75.8338466,27.9856204 76.0353975,27.5461158 76.0353975,26.9965076 C76.0353975,26.5042261 75.8687821,26.0911099 75.5391343,25.7553393 C75.2085908,25.4213886 74.6621638,25.1083667 73.8953745,24.8226432 C71.8082027,24.0318989 70.763721,22.8744458 70.763721,21.3539237 C70.763721,20.3602612 71.1327831,19.5467682 71.8682201,18.9107149 C72.6045528,18.2755716 73.5809551,17.958 74.7956354,17.958 C75.8804272,17.958 76.7842712,18.1499989 77.5017925,18.5330868 L77.0225492,20.1145754 C76.3471296,19.7433168 75.5848192,19.5576875 74.7320348,19.5576875 C74.0584068,19.5576875 73.5289997,19.7260278 73.1518756,20.0608885 C72.833873,20.3602612 72.6717365,20.7251501 72.6717365,21.158285 C72.6717365,21.6360074 72.8553717,22.0327445 73.2217465,22.3430366 C73.5388533,22.6305799 74.1175284,22.9426919 74.9541887,23.2775525 C75.9807548,23.6979482 76.7341074,24.1875 77.2178296,24.7498475 C77.7042392,25.312195 77.9461003,26.0137644 77.9461003,26.850916" id="Fill-7" fill="#FFFFFF"></path>
                                <path d="M84.2623349,22.98542 L82.1572475,22.98542 L82.1572475,27.224865 C82.1572475,28.3031527 82.5281012,28.8409316 83.2716001,28.8409316 C83.6128931,28.8409316 83.8959601,28.8118133 84.1199056,28.7508468 L84.1727567,30.2240516 C83.7965283,30.3669134 83.3011609,30.4387992 82.6884461,30.4387992 C81.933302,30.4387992 81.3447733,30.2040328 80.9183811,29.7372298 C80.4937805,29.2695168 80.2814801,28.4860521 80.2814801,27.3831958 L80.2814801,22.9817802 L79.0282813,22.9817802 L79.0282813,21.5258644 L80.2814801,21.5258644 L80.2814801,19.9270868 L82.1572475,19.352 L82.1572475,21.5258644 L84.2623349,21.5258644 L84.2623349,22.98542" id="Fill-8" fill="#FFFFFF"></path>
                                <path d="M93.7441664,25.7914816 C93.7441664,27.133654 93.3670422,28.2356003 92.611898,29.0973205 C91.8227142,29.9836093 90.7728578,30.4267537 89.4641204,30.4267537 C88.2010679,30.4267537 87.1968964,30.0018082 86.4480228,29.1519173 C85.6991491,28.3020265 85.3247123,27.2301084 85.3247123,25.9370731 C85.3247123,24.5839814 85.7125858,23.4756654 86.4829583,22.6139452 C87.2551223,21.752225 88.2960208,21.32 89.6047582,21.32 C90.8669149,21.32 91.8791484,21.7467653 92.6468335,22.5957463 C93.3795831,23.4210686 93.7441664,24.4847971 93.7441664,25.7914816 L93.7441664,25.7914816 Z M91.7644884,25.836069 C91.7644884,25.0362252 91.5942898,24.3501249 91.2529969,23.7759481 C90.8525824,23.0825681 90.2783862,22.7367881 89.5366788,22.7367881 C88.7725768,22.7367881 88.1840481,23.0825681 87.7854251,23.7759481 C87.4423407,24.3501249 87.2730379,25.0480545 87.2730379,25.8724669 C87.2730379,26.6732206 87.4423407,27.3611408 87.7854251,27.9325878 C88.1983806,28.6268777 88.7743684,28.9735676 89.5214505,28.9735676 C90.2506169,28.9735676 90.8230216,28.6186882 91.2377686,27.9162088 C91.5880193,27.3283827 91.7644884,26.6377327 91.7644884,25.836069 L91.7644884,25.836069 Z" id="Fill-9" fill="#FFFFFF"></path>
                                <path d="M99.9351589,23.206321 C99.7461489,23.170833 99.5437022,23.153544 99.3331935,23.153544 C98.661357,23.153544 98.1418035,23.4092392 97.7763245,23.9260894 C97.458322,24.3810631 97.2997686,24.9561498 97.2997686,25.6504397 L97.2997686,30.2320249 L95.3899615,30.2320249 L95.3899615,24.2500307 C95.3899615,23.2445388 95.3711501,22.3264018 95.3344231,21.5010795 L96.9978901,21.5010795 L97.067761,23.171743 L97.1206122,23.171743 C97.3230589,22.5975662 97.6401657,22.1344029 98.0755157,21.7886229 C98.5019079,21.475601 98.9605482,21.32 99.4559156,21.32 C99.6323846,21.32 99.7918338,21.3336492 99.9333674,21.3554879 L99.9351589,23.206321" id="Fill-10" fill="#FFFFFF"></path>
                                <path d="M108.462847,25.4666303 C108.462847,25.8142302 108.440453,26.1072333 108.392976,26.3465495 L102.664451,26.3465495 C102.685054,27.2091796 102.963642,27.8698014 103.494841,28.3247751 C103.977667,28.7306117 104.602923,28.9344399 105.368817,28.9344399 C106.217122,28.9344399 106.991078,28.7979478 107.6871,28.5213238 L107.986291,29.868046 C107.172921,30.2274752 106.211747,30.4076448 105.104561,30.4076448 C103.771638,30.4076448 102.725364,30.0090878 101.96395,29.2137938 C101.205222,28.4175898 100.823619,27.3465817 100.823619,26.0071391 C100.823619,24.6913551 101.176557,23.5948685 101.886017,22.7204091 C102.627724,21.786803 103.630104,21.32 104.891365,21.32 C106.130231,21.32 107.068115,21.786803 107.70412,22.7204091 C108.209341,23.4601963 108.462847,24.3774233 108.462847,25.4666303 L108.462847,25.4666303 Z M106.641723,24.9634294 C106.65516,24.3874327 106.52975,23.8924213 106.270869,23.4720256 C105.940326,22.9315169 105.431521,22.6621724 104.749831,22.6621724 C104.124576,22.6621724 103.616667,22.9251472 103.229689,23.4529167 C102.911687,23.8724025 102.722677,24.3774233 102.664451,24.9616095 L106.641723,24.9634294 L106.641723,24.9634294 Z" id="Fill-11" fill="#FFFFFF"></path>
                                <path d="M23.2005661,10.936775 C23.9834795,9.94220243 24.5191571,8.58911064 24.3704573,7.216 C23.2372932,7.26695705 21.8201662,8.01220398 21.0041089,8.98493776 C20.2821087,9.84210822 19.6371457,11.247067 19.8037612,12.5683107 C21.0766672,12.6647651 22.383613,11.9158784 23.2005661,10.936775" id="Fill-3" fill="#FFFFFF"></path>
                                <path d="M38.1014798,8.03840234 L40.2166477,8.03840234 C41.954252,8.03840234 42.9732676,9.12302051 42.9732676,10.9953271 C42.9732676,12.896502 41.9623717,13.9893682 40.2166477,13.9893682 L38.1014798,13.9893682 L38.1014798,8.03840234 Z M39.0108802,8.87970312 L39.0108802,13.1480674 L40.1151521,13.1480674 C41.3412187,13.1480674 42.047628,12.372751 42.047628,11.0076992 C42.047628,9.66326758 41.3290393,8.87970312 40.1151521,8.87970312 L39.0108802,8.87970312 Z M44.3459251,13.9893682 L45.2147272,13.9893682 L45.2147272,9.49830664 L44.3459251,9.49830664 L44.3459251,13.9893682 Z M44.7803262,8.71061816 C45.105112,8.71061816 45.3446416,8.47554883 45.3446416,8.17037109 C45.3446416,7.86106934 45.105112,7.626 44.7803262,7.626 C44.4555403,7.626 44.2160107,7.86106934 44.2160107,8.17037109 C44.2160107,8.47554883 44.4555403,8.71061816 44.7803262,8.71061816 Z M46.6279829,10.7685059 C46.6279829,11.4365977 47.0177259,11.8201318 47.8581093,12.022209 L48.6294757,12.203666 C49.0719965,12.3108906 49.2790474,12.4840996 49.2790474,12.7521611 C49.2790474,13.1109512 48.8933642,13.3583926 48.3493479,13.3583926 C47.8215709,13.3583926 47.4967851,13.1439434 47.3871698,12.7975254 L46.5143079,12.7975254 C46.5914445,13.5934619 47.2775546,14.0759727 48.3290488,14.0759727 C49.3846028,14.0759727 50.1600291,13.5109814 50.1600291,12.6655566 C50.1600291,12.0057129 49.7662262,11.6386748 48.9258428,11.4407217 L48.1910148,11.2675127 C47.7119557,11.1561641 47.4886654,10.9870791 47.4886654,10.7190176 C47.4886654,10.3684756 47.8581093,10.1334062 48.3452881,10.1334062 C48.8405865,10.1334062 49.1572527,10.3437314 49.2384492,10.6736533 L50.0747728,10.6736533 C49.9895165,9.88184082 49.3399448,9.41170215 48.3452881,9.41170215 C47.3465716,9.41170215 46.6279829,9.97256934 46.6279829,10.7685059 Z M53.7371705,9.42407422 C54.8617415,9.42407422 55.5722106,10.3148633 55.5722106,11.7417754 C55.5722106,13.1686875 54.8617415,14.0636006 53.7452901,14.0636006 C53.1160175,14.0636006 52.6166593,13.783167 52.3852494,13.3089043 L52.3162324,13.3089043 L52.3162324,15.4822646 L51.4433704,15.4822646 L51.4433704,9.49830664 L52.2837538,9.49830664 L52.2837538,10.2406309 L52.348711,10.2406309 C52.6166593,9.72925195 53.1363167,9.42407422 53.7371705,9.42407422 Z M53.4895213,13.2676641 C54.2324689,13.2676641 54.6749896,12.6944248 54.6749896,11.7417754 C54.6749896,10.79325 54.2324689,10.2200107 53.4935811,10.2200107 C52.7587531,10.2200107 52.2999931,10.8056221 52.2999931,11.7458994 C52.2999931,12.6820527 52.7587531,13.2676641 53.4895213,13.2676641 Z M58.7190107,14.0759727 C57.4239271,14.0759727 56.6322616,13.1975557 56.6322616,11.7417754 C56.6322616,10.2942432 57.4279869,9.41170215 58.7190107,9.41170215 C60.0059747,9.41170215 60.8017,10.2942432 60.8017,11.7417754 C60.8017,13.1975557 60.0100345,14.0759727 58.7190107,14.0759727 Z M58.7190107,13.2882842 C59.4741378,13.2882842 59.9044791,12.7191689 59.9044791,11.7417754 C59.9044791,10.7685059 59.4741378,10.1993906 58.7190107,10.1993906 C57.9598238,10.1993906 57.5335424,10.7685059 57.5335424,11.7417754 C57.5335424,12.723293 57.9598238,13.2882842 58.7190107,13.2882842 Z M62.0809815,13.9893682 L62.9538435,13.9893682 L62.9538435,11.3623652 C62.9538435,10.6612812 63.3638856,10.2241348 64.0093975,10.2241348 C64.6549094,10.2241348 64.963456,10.5829248 64.963456,11.3046289 L64.963456,13.9893682 L65.8363179,13.9893682 L65.8363179,11.0819316 C65.8363179,10.0138096 65.2923016,9.41170215 64.3057646,9.41170215 C63.6399536,9.41170215 63.2014927,9.71275586 62.9863221,10.2117627 L62.9213649,10.2117627 L62.9213649,9.49830664 L62.0809815,9.49830664 L62.0809815,13.9893682 Z M67.310471,13.9893682 L68.1792731,13.9893682 L68.1792731,9.49830664 L67.310471,9.49830664 L67.310471,13.9893682 Z M67.744872,8.71061816 C68.0696579,8.71061816 68.3091875,8.47554883 68.3091875,8.17037109 C68.3091875,7.86106934 68.0696579,7.626 67.744872,7.626 C67.4200862,7.626 67.1805566,7.86106934 67.1805566,8.17037109 C67.1805566,8.47554883 67.4200862,8.71061816 67.744872,8.71061816 Z M72.0365423,14.0636006 C71.4194492,14.0636006 70.9038517,13.7749189 70.6399632,13.2800361 L70.575006,13.2800361 L70.575006,13.9893682 L69.7346226,13.9893682 L69.7346226,7.74559668 L70.6074846,7.74559668 L70.6074846,10.2117627 L70.6765016,10.2117627 C70.9119713,9.72100391 71.4316287,9.42407422 72.0365423,9.42407422 C73.1570535,9.42407422 73.8634628,10.3148633 73.8634628,11.7417754 C73.8634628,13.1645635 73.1529937,14.0636006 72.0365423,14.0636006 Z M71.7848333,10.2200107 C71.0540651,10.2200107 70.5953051,10.8056221 70.5912453,11.7458994 C70.5953051,12.6861768 71.0500053,13.2676641 71.7848333,13.2676641 C72.5237211,13.2676641 72.9662418,12.6944248 72.9662418,11.7417754 C72.9662418,10.797374 72.5237211,10.2200107 71.7848333,10.2200107 Z M75.1833425,13.9893682 L76.0562045,13.9893682 L76.0562045,7.74559668 L75.1833425,7.74559668 L75.1833425,13.9893682 Z M79.4100556,10.1663984 C78.7645437,10.1663984 78.3139034,10.6282891 78.2651855,11.329373 L80.4980882,11.329373 C80.4777891,10.624165 80.0555675,10.1663984 79.4100556,10.1663984 Z M80.4940284,12.7769053 L81.3344118,12.7769053 C81.1354805,13.5810898 80.4290712,14.0759727 79.4181753,14.0759727 C78.1515104,14.0759727 77.3760842,13.1934316 77.3760842,11.7582715 C77.3760842,10.3231113 78.1677497,9.41170215 79.4141155,9.41170215 C80.6442419,9.41170215 81.3871895,10.265375 81.3871895,11.675791 L81.3871895,11.9850928 L78.2651855,11.9850928 L78.2651855,12.0345811 C78.2936043,12.8222695 78.7442446,13.3212764 79.4425342,13.3212764 C79.9703112,13.3212764 80.3316355,13.1274473 80.4940284,12.7769053 Z M86.9865601,10.1663984 C86.3410482,10.1663984 85.8904078,10.6282891 85.8416899,11.329373 L88.0745927,11.329373 C88.0542936,10.624165 87.632072,10.1663984 86.9865601,10.1663984 Z M88.0705329,12.7769053 L88.9109163,12.7769053 C88.7119849,13.5810898 88.0055757,14.0759727 86.9946797,14.0759727 C85.7280149,14.0759727 84.9525887,13.1934316 84.9525887,11.7582715 C84.9525887,10.3231113 85.7442542,9.41170215 86.9906199,9.41170215 C88.2207463,9.41170215 88.963694,10.265375 88.963694,11.675791 L88.963694,11.9850928 L85.8416899,11.9850928 L85.8416899,12.0345811 C85.8701087,12.8222695 86.3207491,13.3212764 87.0190387,13.3212764 C87.5468157,13.3212764 87.9081399,13.1274473 88.0705329,12.7769053 Z M90.2429755,13.9893682 L91.1158374,13.9893682 L91.1158374,11.3623652 C91.1158374,10.6612812 91.5258796,10.2241348 92.1713915,10.2241348 C92.8169034,10.2241348 93.1254499,10.5829248 93.1254499,11.3046289 L93.1254499,13.9893682 L93.9983119,13.9893682 L93.9983119,11.0819316 C93.9983119,10.0138096 93.4542956,9.41170215 92.4677586,9.41170215 C91.8019476,9.41170215 91.3634867,9.71275586 91.148316,10.2117627 L91.0833589,10.2117627 L91.0833589,9.49830664 L90.2429755,9.49830664 L90.2429755,13.9893682 Z M99.7763147,10.1663984 C99.1308028,10.1663984 98.6801624,10.6282891 98.6314446,11.329373 L100.864347,11.329373 C100.844048,10.624165 100.421827,10.1663984 99.7763147,10.1663984 Z M100.860287,12.7769053 L101.700671,12.7769053 C101.50174,13.5810898 100.79533,14.0759727 99.7844343,14.0759727 C98.5177695,14.0759727 97.7423433,13.1934316 97.7423433,11.7582715 C97.7423433,10.3231113 98.5340088,9.41170215 99.7803745,9.41170215 C101.010501,9.41170215 101.753449,10.265375 101.753449,11.675791 L101.753449,11.9850928 L98.6314446,11.9850928 L98.6314446,12.0345811 C98.6598633,12.8222695 99.1105037,13.3212764 99.8087933,13.3212764 C100.33657,13.3212764 100.697895,13.1274473 100.860287,12.7769053 Z M103.073328,13.9893682 L103.94619,13.9893682 L103.94619,7.74559668 L103.073328,7.74559668 L103.073328,13.9893682 Z" id="Disponible-en-el" fill="#FFFFFF"></path>
                            </g>
                        </g>
                    </g>
                </g>
            </g>
        </g>
    </g>
</svg>