<?xml version="1.0" encoding="UTF-8" standalone="no"?>
<svg width="108px" height="69px" viewBox="0 0 108 69" version="1.1" xmlns="http://www.w3.org/2000/svg" xmlns:xlink="http://www.w3.org/1999/xlink">
    <!-- Generator: Sketch 48.2 (47327) - http://www.bohemiancoding.com/sketch -->
    <title>Illustration-icon/atencion</title>
    <desc>Created with Sketch.</desc>
    <defs>
        <path d="M24.8848876,43 L9.68848876,52 L9.68848876,43 L7.6916556,43 C5.01709938,43 4.04724067,42.7215232 3.06946289,42.1986019 C2.09168511,41.6756806 1.32431939,40.9083149 0.801398111,39.9305371 C0.278476833,38.9527593 1.2037061e-16,37.9829006 -2.07168062e-16,35.3083444 L2.07168062e-16,7.6916556 C-1.2037061e-16,5.01709938 0.278476833,4.04724067 0.801398111,3.06946289 C1.32431939,2.09168511 2.09168511,1.32431939 3.06946289,0.801398111 C4.04724067,0.278476833 5.01709938,1.95691275e-15 7.6916556,1.46560475e-15 L61.3083444,3.10752092e-16 C63.9829006,-1.80555915e-16 64.9527593,0.278476833 65.9305371,0.801398111 C66.9083149,1.32431939 67.6756806,2.09168511 68.1986019,3.06946289 C68.7215232,4.04724067 69,5.01709938 69,7.6916556 L69,35.3083444 C69,37.9829006 68.7215232,38.9527593 68.1986019,39.9305371 C67.6756806,40.9083149 66.9083149,41.6756806 65.9305371,42.1986019 C64.9527593,42.7215232 63.9829006,43 61.3083444,43 L24.8848876,43 Z" id="path-1"></path>
        <path d="M39,43 L39,23.6916556 C39,21.0170994 39.2784768,20.0472407 39.8013981,19.0694629 C40.3243194,18.0916851 41.0916851,17.3243194 42.0694629,16.8013981 C43.0472407,16.2784768 44.0170994,16 46.6916556,16 L69,16 L69,35.3083444 C69,37.9829006 68.7215232,38.9527593 68.1986019,39.9305371 C67.6756806,40.9083149 66.9083149,41.6756806 65.9305371,42.1986019 C64.9527593,42.7215232 63.9829006,43 61.3083444,43 L39,43 Z" id="path-2"></path>
    </defs>
    <g id="001---MC---Home---No-Clientes" stroke="none" stroke-width="1" fill="none" fill-rule="evenodd" transform="translate(-739.000000, -896.000000)">
        <g id="Section-1---porque-MC---features" transform="translate(0.000000, 615.000000)">
            <g id="Section-Featuresx4">
                <g id="Group-18" transform="translate(40.000000, 157.000000)">
                    <g id="bullets" transform="translate(0.000000, 124.000000)">
                        <g id="Bullet-3" transform="translate(614.000000, 0.000000)">
                            <g id="Illustration-icon/atencion" transform="translate(85.000000, 0.000000)">
                                <g id="Combined-Shape">
                                    <use fill="#FFFFFF" fill-rule="evenodd" xlink:href="#path-1"></use>
                                    <path stroke="#0F1D2B" stroke-width="1.4" d="M10.3884888,50.7718742 L24.6931532,42.3 L24.8848876,42.3 L61.3083444,42.3 C63.641119,42.3 64.604479,42.1139666 65.6004179,41.5813327 C66.4562078,41.1236512 67.1236512,40.4562078 67.5813327,39.6004179 C68.1139666,38.604479 68.3,37.641119 68.3,35.3083444 L68.3,7.6916556 C68.3,5.35888102 68.1139666,4.39552097 67.5813327,3.39958209 C67.1236512,2.54379224 66.4562078,1.87634877 65.6004179,1.41866735 C64.604479,0.886033407 63.641119,0.7 61.3083444,0.7 L7.6916556,0.7 C5.35888102,0.7 4.39552097,0.886033407 3.39958209,1.41866735 C2.54379224,1.87634877 1.87634877,2.54379224 1.41866735,3.39958209 C0.886033407,4.39552097 0.7,5.35888102 0.7,7.6916556 L0.7,35.3083444 C0.7,37.641119 0.886033407,38.604479 1.41866735,39.6004179 C1.87634877,40.4562078 2.54379224,41.1236512 3.39958209,41.5813327 C4.39552097,42.1139666 5.35888102,42.3 7.6916556,42.3 L10.3884888,42.3 L10.3884888,50.7718742 Z"></path>
                                </g>
                                <path d="M99.8733764,67.7718742 L99.8733764,58.3041572 L100.56825,58.2990685 C102.718718,58.2833203 103.637406,58.0963573 104.600418,57.5813327 C105.456208,57.1236512 106.123651,56.4562078 106.581333,55.6004179 C107.113967,54.604479 107.3,53.641119 107.3,51.3083444 L107.3,23.6916556 C107.3,21.358881 107.113967,20.395521 106.581333,19.3995821 C106.123651,18.5437922 105.456208,17.8763488 104.600418,17.4186673 C103.604479,16.8860334 102.641119,16.7 100.308344,16.7 L46.6916556,16.7 C44.358881,16.7 43.395521,16.8860334 42.3995821,17.4186673 C41.5437922,17.8763488 40.8763488,18.5437922 40.4186673,19.3995821 C39.8860334,20.395521 39.7,21.358881 39.7,23.6916556 L39.7,51.3083444 C39.7,53.641119 39.8860334,54.604479 40.4186673,55.6004179 C40.8763488,56.4562078 41.5437922,57.1236512 42.3995821,57.5813327 C43.395521,58.1139666 44.358881,58.3 46.6916556,58.3 L83.8802232,58.3 L99.8733764,67.7718742 Z" id="Combined-Shape" stroke="#0F1D2B" stroke-width="1.4"></path>
                                <g id="Combined-Shape">
                                    <use fill="#FE4A49" fill-rule="evenodd" xlink:href="#path-2"></use>
                                    <path stroke="#0F1D2B" stroke-width="1.4" d="M39.7,42.3 L61.3083444,42.3 C63.641119,42.3 64.604479,42.1139666 65.6004179,41.5813327 C66.4562078,41.1236512 67.1236512,40.4562078 67.5813327,39.6004179 C68.1139666,38.604479 68.3,37.641119 68.3,35.3083444 L68.3,16.7 L46.6916556,16.7 C44.358881,16.7 43.395521,16.8860334 42.3995821,17.4186673 C41.5437922,17.8763488 40.8763488,18.5437922 40.4186673,19.3995821 C39.8860334,20.395521 39.7,21.358881 39.7,23.6916556 L39.7,42.3 Z"></path>
                                </g>
                            </g>
                        </g>
                    </g>
                </g>
            </g>
        </g>
    </g>
</svg>