<?xml version="1.0" encoding="UTF-8" standalone="no"?>
<svg width="68px" height="68px" viewBox="0 0 68 68" version="1.1" xmlns="http://www.w3.org/2000/svg" xmlns:xlink="http://www.w3.org/1999/xlink">
    <!-- Generator: Sketch 48.2 (47327) - http://www.bohemiancoding.com/sketch -->
    <title>Illustration-icon/beneficios</title>
    <desc>Created with Sketch.</desc>
    <defs>
        <path d="M17.2573057,20.20652 C17.0879195,20.20652 16.4474019,20.2264682 16.2945076,20.1454844 L10.9098055,17.3009816 L5.5251034,20.1454844 C5.09293025,20.3737114 4.54724074,20.2623578 4.23594388,19.890577 C4.03817509,19.6540691 3.95486023,19.3439398 4.0070454,19.0365667 L5.03525559,13.0097259 L0.6788347,8.74250015 C0.391328689,8.46090048 0.28969604,8.04770073 0.41422885,7.66486841 C0.537833464,7.28111729 0.861965669,7.006868 1.25933151,6.94888952 L7.27947136,6.07002431 L9.97123643,0.586216403 C10.1488615,0.224539989 10.5086988,0 10.9097211,0 C11.3107435,0 11.6705831,0.224544701 11.8482058,0.586216403 L14.5399709,6.06908196 L20.5601114,6.94794716 C20.9574773,7.00592329 21.2806813,7.28017494 21.4052141,7.66392605 C21.5288187,8.04767717 21.4281049,8.46087692 21.1406082,8.7415578 L16.7841866,13.0106682 L17.8123968,19.037509 C17.8645867,19.3439634 17.7812672,19.6550112 17.5834984,19.8915194 C17.382066,20.1307837 17.0899847,20.2679201 16.7814302,20.2679201 L17.2573057,20.20652 Z" id="path-1"></path>
        <path d="M43.4999903,26.227494 C43.7422212,26.227494 43.9807878,26.1357355 44.1642954,25.9522278 C44.5313202,25.5852031 44.5313202,24.9906705 44.1642954,24.62358 L43.4999903,23.9592749 C43.132975,23.5922596 42.5384331,23.5922596 42.1713425,23.9592749 C41.804252,24.3262903 41.8043272,24.9208322 42.1713425,25.2879227 L42.8356476,25.9522278 C43.0191553,26.1357355 43.2577219,26.227494 43.4999527,26.227494 L43.4999903,26.227494 Z M53.464144,36.1916477 C53.7063749,36.1916477 53.9449414,36.0998892 54.1284491,35.9163815 C54.4954644,35.5493661 54.4954644,34.9548242 54.1284491,34.5877337 L53.464144,33.9234286 C53.0971287,33.5564133 52.5025867,33.5564133 52.1354962,33.9234286 C51.7684715,34.2904533 51.7684715,34.8849859 52.1354962,35.2520764 L52.7998013,35.9163815 C52.983309,36.0998892 53.2255399,36.1916477 53.4641064,36.1916477 L53.464144,36.1916477 Z M50.1425715,32.8700752 C50.3848024,32.8700752 50.623369,32.7783167 50.8068766,32.594809 C51.173892,32.2277937 51.173892,31.6332517 50.8068766,31.2661612 L50.1425715,30.6018561 C49.7755562,30.2348408 49.1810143,30.2348408 48.8139237,30.6018561 C48.4468332,30.9688715 48.4469084,31.5634134 48.8139237,31.9305039 L49.4782288,32.594809 C49.6617365,32.7783167 49.9039768,32.8700752 50.1425339,32.8700752 L50.1425715,32.8700752 Z M67.1131084,22.1054068 L62.2354179,17.2277163 C61.8683932,16.860701 61.2738607,16.860701 60.9067702,17.2277163 C59.5524721,18.5820144 57.7540387,19.3270945 55.8382528,19.3270945 C53.9260373,19.3270945 52.1276978,18.5820426 50.7733997,17.2277163 C47.9803361,14.4346527 47.9803361,9.89097986 50.769726,7.09819812 C51.1367507,6.73118277 51.1367507,6.13664084 50.769726,5.76955034 L45.8920355,0.891859872 C45.3304913,0.326651359 44.5818033,0.0110117757 43.7926574,-3.41060513e-13 C42.9962204,0.00366432808 42.2438681,0.293616032 41.6822863,0.851486494 L32.3636181,10.1701547 C31.9966028,10.5371794 31.9966028,11.131712 32.3636181,11.4988025 C32.7306334,11.865893 33.3251754,11.8658178 33.6922659,11.4988025 L43.0109341,2.18013427 C43.2054535,1.98561483 43.4697079,1.87918019 43.7523122,1.87918019 L43.7669977,1.87918019 C44.0642875,1.88284452 44.3468917,2.00396465 44.5634347,2.21684332 L48.8098272,6.46323583 C45.9323901,10.0122785 46.1416326,15.2533952 49.4411064,18.5526998 C51.1477437,20.2593371 53.4196271,21.2025727 55.8346072,21.2025727 C57.9339854,21.2025727 59.92691,20.4905562 61.5307583,19.1839977 L65.7771508,23.4303903 C66.2139011,23.8671406 66.2285866,24.5644528 65.8101767,24.9791796 L56.4915085,34.2978478 C56.1244932,34.6648631 56.1244932,35.259405 56.4915085,35.6264956 C56.6750162,35.8100032 56.9135827,35.9017618 57.1558136,35.9017618 C57.3980445,35.9017618 57.636611,35.8100032 57.8201187,35.6264956 L67.1387869,26.3078274 C68.2985937,25.1626779 68.2839364,23.2762066 67.113099,22.1054068 L67.1131084,22.1054068 Z M54.5096989,36.2948126 L24.9789729,65.829297 C24.5605724,66.2476975 23.863232,66.2293476 23.4301835,65.7962616 L19.183791,61.5498691 C22.0575638,58.0008265 21.8483213,52.7597098 18.5488475,49.4641635 C15.249355,46.1610066 10.0119966,45.9517641 6.46314187,48.82922 L2.21308504,44.5828275 C1.99654204,44.3662845 1.8754219,44.0763422 1.8754219,43.7753881 C1.8754219,43.4927838 1.98185654,43.2285294 2.18004971,43.0340099 L31.7145341,13.5032839 C32.0815588,13.1362591 32.0815588,12.5417266 31.7145341,12.1746361 C31.3475187,11.8076208 30.7529768,11.8076208 30.3858863,12.1746361 L0.855160217,41.7053622 C0.304627808,42.2558946 0,42.989944 0,43.7753317 C0,44.5791068 0.315639584,45.3388723 0.888186149,45.9113531 L5.76587661,50.7890436 C6.13289195,51.1560589 6.72743388,51.1560589 7.09452439,50.7890436 C9.88758801,47.9996443 14.4312609,47.9996443 17.2240426,50.7927173 C20.0134419,53.5821166 20.0171062,58.1257894 17.2277163,60.9222355 C16.860701,61.2892508 16.860701,61.8837928 17.2277163,62.2508833 L22.1054068,67.1285738 C22.6963126,67.7194795 23.4706979,68.0130956 24.2414282,68.0130956 C24.9938181,68.0130956 25.7462456,67.7304913 26.3113977,67.1616091 L55.8421238,37.630883 C56.2091391,37.2638677 56.2091391,36.6693257 55.8421238,36.3022352 C55.4714347,35.9278724 54.8769022,35.9315462 54.5098117,36.2948972 L54.5096989,36.2948126 Z M46.8206232,29.5489725 C47.0628541,29.5489725 47.3014207,29.457214 47.4849283,29.2737063 C47.8519437,28.906691 47.8519437,28.3121491 47.4849283,27.9450586 L46.8206232,27.2807535 C46.4535985,26.9137381 45.859066,26.9137381 45.4919754,27.2807535 C45.1248849,27.6477688 45.1249601,28.2423107 45.4919754,28.6094012 L46.1562805,29.2737063 C46.3397882,29.457214 46.5820191,29.5489725 46.8205856,29.5489725 L46.8206232,29.5489725 Z M36.8564696,19.5810606 C37.0987004,19.5810606 37.337267,19.489302 37.5207747,19.3057944 C37.88779,18.938779 37.88779,18.3442371 37.5207747,17.9771466 L36.8564696,17.3128415 C36.4894542,16.9458262 35.8949123,16.9458262 35.5278218,17.3128415 C35.1607313,17.6798568 35.1608064,18.2743988 35.5278218,18.6414893 L36.1921269,19.3057944 C36.3756345,19.489302 36.6142011,19.5810606 36.856432,19.5810606 L36.8564696,19.5810606 Z M33.5348971,13.991363 C33.1678817,13.6243476 32.5733398,13.6243476 32.2062493,13.991363 C31.8391588,14.3583783 31.839234,14.9529203 32.2062493,15.3200108 L32.8705544,15.9843159 C33.0540621,16.1678235 33.2926286,16.2595821 33.5348595,16.2595821 C33.7770904,16.2595821 34.0156569,16.1678235 34.1991646,15.9843159 C34.5661799,15.6173005 34.5661799,15.0227586 34.1991646,14.6556681 L33.5348971,13.991363 Z M40.842225,21.3023552 L40.1779199,20.6380501 C39.8109045,20.2710254 39.2163626,20.2710254 38.8492721,20.6380501 C38.4822568,21.0050655 38.4822568,21.5996074 38.8492721,21.9666979 L39.5135772,22.631003 C39.6970849,22.8145107 39.9356514,22.9062692 40.1778823,22.9062692 C40.4201132,22.9062692 40.6586797,22.8145107 40.8421874,22.631003 C41.2092027,22.2639876 41.2092027,21.6657814 40.8421874,21.3023552 L40.842225,21.3023552 Z" id="path-2"></path>
    </defs>
    <g id="001---MC---Home---No-Clientes" stroke="none" stroke-width="1" fill="none" fill-rule="evenodd" transform="translate(-1068.000000, -896.000000)">
        <g id="Section-1---porque-MC---features" transform="translate(0.000000, 615.000000)">
            <g id="Section-Featuresx4">
                <g id="Group-18" transform="translate(40.000000, 157.000000)">
                    <g id="bullets" transform="translate(0.000000, 124.000000)">
                        <g id="Bullet-4" transform="translate(922.000000, 0.000000)">
                            <g id="Illustration-icon/beneficios" transform="translate(106.000000, 0.000000)">
                                <g id="Group" transform="translate(30.206651, 38.194310) rotate(44.000000) translate(-30.206651, -38.194310) translate(19.206651, 27.694310)">
                                    <g id="Page-1-Copy">
                                        <use fill="#FE4A49" fill-rule="evenodd" xlink:href="#path-1"></use>
                                        <path stroke="#FFFFFF" stroke-width="1.2" d="M17.0017698,19.6086528 C16.9350123,19.6471872 16.8593525,19.6679201 16.7814302,19.6679201 L16.7814302,20.2679201 L16.8582091,20.8629873 L17.3340846,20.8015872 L17.2573057,19.60652 C17.2018542,19.6068276 17.2018542,19.6068276 17.1326539,19.6076429 C17.0847573,19.6081706 17.0417124,19.6085194 17.0017698,19.6086528 Z"></path>
                                        <use stroke="#0F1D2B" stroke-width="1" xlink:href="#path-1"></use>
                                    </g>
                                </g>
                                <g id="Page-1">
                                    <use fill="#0F1D2B" fill-rule="evenodd" xlink:href="#path-2"></use>
                                    <path stroke="#FFFFFF" stroke-width="0.2" d="M43.4999527,26.127494 L43.4999903,26.127494 C43.7223543,26.127494 43.9333994,26.0417025 44.0935847,25.8815171 C44.4215581,25.5535438 44.4215581,25.0223229 44.0935847,24.6942907 L43.4292796,24.0299856 C43.1013155,23.7020215 42.5700845,23.7020215 42.242046,24.0299929 C41.9140423,24.3579293 41.9140631,24.8891548 42.2420532,25.217212 L42.9063583,25.8815171 C43.0665437,26.0417025 43.2775887,26.127494 43.4999527,26.127494 Z M53.4641064,36.0916477 L53.464144,36.0916477 C53.686508,36.0916477 53.8975531,36.0058561 54.0577384,35.8456708 C54.3857025,35.5177067 54.3857025,34.9864757 54.0577384,34.6584444 L53.3934333,33.9941393 C53.0654692,33.6661752 52.5342382,33.6661752 52.2062069,33.9941393 C51.8782335,34.3221127 51.8782335,34.8533336 52.2062069,35.1813657 L52.870512,35.8456708 C53.0297553,36.0049141 53.2439837,36.0916477 53.4641064,36.0916477 Z M50.1425339,32.7700752 L50.1425715,32.7700752 C50.3649355,32.7700752 50.5759806,32.6842837 50.7361659,32.5240983 C51.0641301,32.1961342 51.0641301,31.6649032 50.7361659,31.3368719 L50.0718608,30.6725668 C49.7438967,30.3446027 49.2126657,30.3446027 48.8846272,30.6725741 C48.5566235,31.0005105 48.5566443,31.531736 48.8846344,31.8597932 L49.5489395,32.5240983 C49.7081804,32.6833392 49.922417,32.7700752 50.1425339,32.7700752 Z M67.0423977,22.1761175 L62.1647082,17.2984279 C61.8367346,16.9704627 61.3055123,16.9704627 60.9774808,17.298427 C59.6043225,18.6715853 57.7804096,19.4270945 55.8382528,19.4270945 C53.899189,19.4270945 52.0755091,18.6712757 50.702689,17.298427 C47.871157,14.466895 47.8700036,9.85993918 50.6990162,7.02748653 C51.0269885,6.69952262 51.0269885,6.168293 50.6990153,5.84026101 L45.8210953,0.962340219 C45.2795203,0.417231291 44.5564447,0.110667655 43.7931175,0.0999989416 C43.0097208,0.103603272 42.2869229,0.391800581 41.752997,0.922197172 L32.4343297,10.2408645 C32.1063645,10.568838 32.1063645,11.1000603 32.434336,11.428099 C32.7622725,11.7561027 33.2934979,11.7560819 33.6215552,11.4280918 L42.9402234,2.1094236 C43.1531802,1.89646677 43.4427003,1.77918019 43.7523122,1.77918019 L43.7682302,1.77918778 C44.0904217,1.78315905 44.3979211,1.91390064 44.6341454,2.14613265 L48.8805379,6.39252515 L48.8875046,6.52621385 C46.0210122,10.0617572 46.2722806,15.2426187 49.5118171,18.4819891 C51.200733,20.170905 53.447606,21.1025727 55.8346072,21.1025727 C57.9049724,21.1025727 59.8769534,20.4022708 61.4675991,19.1064676 L61.6014689,19.1132871 L65.8478614,23.3596796 C66.3229976,23.8348157 66.3391592,24.5956538 65.8808874,25.0498903 L56.5622192,34.3685585 C56.2342551,34.6965226 56.2342551,35.2277536 56.5622192,35.5557849 C56.7224045,35.7159702 56.9334496,35.8017618 57.1558136,35.8017618 C57.3781776,35.8017618 57.5892227,35.7159702 57.749408,35.5557849 L67.0685273,26.2366685 C68.1874689,25.1318677 68.1753911,23.3090839 67.0423895,22.1761186 Z M54.5799497,36.3659833 L25.0496836,65.9000076 C24.5926595,66.3570317 23.8320916,66.339632 23.3594729,65.8669723 L19.1130804,61.6205798 L19.1060745,61.4869395 C21.9694803,57.9506998 21.7170672,52.7699492 18.4780976,49.5348349 C15.2390608,46.2922009 10.0620566,46.0399156 6.52612215,48.9068955 L6.3924617,48.8999611 L2.14237436,44.6535381 C1.90724341,44.4184072 1.7754219,44.1030982 1.7754219,43.7753881 C1.7754219,43.4643316 1.89372616,43.1749094 2.10934353,42.9632948 L31.6438234,13.4325732 C31.9717967,13.1045998 31.9717967,12.5733789 31.6438234,12.2453468 C31.3158593,11.9173827 30.7846282,11.9173827 30.456597,12.2453468 L0.925870896,41.7760728 C0.39324137,42.3087024 0.1,43.0176719 0.1,43.7753317 C0.1,44.5527872 0.405247932,45.2870571 0.958896827,45.8406424 L5.83658729,50.7183329 C6.16455141,51.046297 6.69578243,51.046297 7.02386014,50.7182865 C9.85655123,47.8893117 14.4635071,47.8904652 17.2947533,50.7220066 C20.1238707,53.551124 20.1261746,58.1580455 17.298427,60.9929462 C16.9704629,61.3209103 16.9704629,61.8521413 17.298427,62.1801726 L22.1761175,67.0578631 C22.7313801,67.6131257 23.4724091,67.9130956 24.2414282,67.9130956 C24.9921676,67.9130956 25.7107109,67.6243717 26.2406871,67.0908984 L55.7714131,37.5601723 C56.0993772,37.2322082 56.0993772,36.7009772 55.7710653,36.3725964 C55.4417123,36.0399793 54.9105246,36.0389691 54.5801594,36.3659689 L54.5799497,36.3659833 Z M46.8205856,29.4489725 L46.8206232,29.4489725 C47.0429872,29.4489725 47.2540323,29.363181 47.4142176,29.2029957 C47.7421818,28.8750315 47.7421818,28.3438005 47.4142176,28.0157692 L46.7499135,27.351465 C46.4219399,27.0234999 45.8907176,27.0234999 45.5626789,27.3514714 C45.2346752,27.6794078 45.234696,28.2106333 45.5626861,28.5386906 L46.2269912,29.2029957 C46.3862345,29.3622389 46.6004629,29.4489725 46.8205856,29.4489725 Z M36.856432,19.4810606 L36.8564696,19.4810606 C37.0788336,19.4810606 37.2898786,19.395269 37.450064,19.2350837 C37.7780281,18.9071196 37.7780281,18.3758886 37.450064,18.0478573 L36.7857589,17.3835522 C36.4577948,17.0555881 35.9265637,17.0555881 35.5985252,17.3835594 C35.2705216,17.7114959 35.2705423,18.2427213 35.5985325,18.5707786 L36.2628376,19.2350837 C36.4230229,19.395269 36.634068,19.4810606 36.856432,19.4810606 Z M33.4641864,14.0620737 C33.1362223,13.7341095 32.6049913,13.7341095 32.2769527,14.0620809 C31.9489491,14.3900174 31.9489699,14.9212428 32.27696,15.2493001 L32.9412651,15.9136052 C33.1014504,16.0737905 33.3124955,16.1595821 33.5348595,16.1595821 C33.7572235,16.1595821 33.9682686,16.0737905 34.1284539,15.9136052 C34.456418,15.5856411 34.456418,15.05441 34.1284519,14.7263768 L33.4641844,14.0620717 Z M40.771859,21.3734089 L40.7715143,21.3730659 L40.1072083,20.7087599 C39.7792444,20.3807876 39.2480148,20.3807876 38.9199828,20.7087608 C38.5920187,21.0367249 38.5920187,21.5679559 38.9199828,21.8959872 L39.5842879,22.5602923 C39.7444732,22.7204776 39.9555183,22.8062692 40.1778823,22.8062692 C40.4002463,22.8062692 40.6112914,22.7204776 40.7714767,22.5602923 C41.099377,22.2323921 41.0993874,21.6977675 40.771859,21.3734089 Z"></path>
                                </g>
                            </g>
                        </g>
                    </g>
                </g>
            </g>
        </g>
    </g>
</svg>