<?xml version="1.0" encoding="UTF-8"?>
<svg width="85px" height="50px" viewBox="0 0 85 50" version="1.1" xmlns="http://www.w3.org/2000/svg" xmlns:xlink="http://www.w3.org/1999/xlink">
    <!-- Generator: Sketch 48.2 (47327) - http://www.bohemiancoding.com/sketch -->
    <title>contacts</title>
    <desc>Created with Sketch.</desc>
    <defs>
        <path d="M6.01691242,24.5066644 L20.8701223,37.4731461 C21.6236156,38.130927 22.7471898,38.130927 23.5006831,37.4731461 L38.353893,24.5066644 C39.1860008,23.780255 39.2716863,22.5168273 38.545277,21.6847196 C38.1654724,21.2496504 37.616139,21 37.0386126,21 L7.33219282,21 C6.22762332,21 5.33219282,21.8954305 5.33219282,23 C5.33219282,23.5775264 5.58184323,24.1268598 6.01691242,24.5066644 Z" id="path-1"></path>
    </defs>
    <g id="002---MC---Home---CLIENTES---Sonia" stroke="none" stroke-width="1" fill="none" fill-rule="evenodd" transform="translate(-1061.000000, -1150.000000)">
        <g id="Group-7" transform="translate(0.000000, 885.000000)">
            <g id="Group-6" transform="translate(40.000000, 81.000000)">
                <g id="Links---Cards-x4" transform="translate(0.000000, 81.000000)">
                    <g id="desktop/components/card-sm/x4-copy-3" transform="translate(924.000000, 0.000000)">
                        <g id="card-sm-x4">
                            <g id="img" transform="translate(0.000000, 58.000000)">
                                <g id="contacts" transform="translate(97.000000, 46.000000)">
                                    <g id="Illustration-icon/contacto">
                                        <g id="Group-3">
                                            <path d="M48.8734497,27.4898836 C49.5816221,27.9086841 50.3275634,28.2955157 51.1070309,28.6473199 C51.9585108,29.0316262 49.6363561,34.3155031 50.5623199,34.6122251 C51.5595359,34.9317797 55.8103805,30.2568621 56.8806622,30.4652305 C58.6719143,30.8139615 60.5558214,31 62.5,31 C74.3741221,31 84,24.0604136 84,15.5 C84,6.93958638 74.3741221,0 62.5,0 C52.6060566,0 44.2730284,4.81802899 41.7688801,11.3771822 C41.2676986,12.6899343 41,14.0724293 41,15.5" id="Oval-4" stroke="#0F1D2B" stroke-width="1.4" stroke-linecap="round"></path>
                                            <g id="Path-5-Copy">
                                                <use fill="#FE4A49" fill-rule="evenodd" xlink:href="#path-1"></use>
                                                <path stroke="#FFFFFF" stroke-width="1.4" d="M6.47726056,23.9793318 L21.3304705,36.9458136 C21.8202411,37.3733711 22.5505643,37.3733711 23.040335,36.9458136 L37.8935449,23.9793318 C38.4344149,23.5071658 38.4901105,22.6859378 38.0179444,22.1450677 C37.7710715,21.8622728 37.4140048,21.7 37.0386126,21.7 L7.33219282,21.7 C6.61422265,21.7 6.03219282,22.2820298 6.03219282,23 C6.03219282,23.3753921 6.19446559,23.7324589 6.47726056,23.9793318 Z"></path>
                                            </g>
                                            <rect id="Rectangle-4" stroke="#0F1D2B" stroke-width="1.4" x="0.7" y="20.7" width="42.6" height="27.6" rx="3"></rect>
                                            <path d="M63.2253114,17.1957578 C65.3862541,15.036743 66.1732522,13.6640566 65.5863295,13.0776576 C65.5596512,13.051003 65.5062954,12.9976948 65.4262605,12.9177313 C65.0260859,12.5179138 64.7526374,12.1980645 64.6059068,11.958174 C64.4591761,11.7182835 64.4324982,11.3584531 64.5258722,10.878672 C64.6192463,10.3988909 64.9460506,9.81250065 65.506295,9.11948355 C65.7730781,8.79962951 66.0198487,8.539752 66.2466143,8.33984322 C66.4733798,8.13993444 66.7068115,8.03331803 66.9469162,8.01999078 C67.187021,8.00666353 67.3871052,8 67.5471751,8 C67.7072449,8 67.9006597,8.08662584 68.1274253,8.25988011 C68.3541909,8.43313438 68.5142583,8.55307785 68.6076324,8.61971411 C68.7010064,8.68635037 68.8744128,8.85293852 69.1278567,9.11948355 C69.3813006,9.38602859 69.5213596,9.53262616 69.5480379,9.55928067 C70.1883172,10.1989888 70.1483003,11.4917128 69.4279861,13.4374916 C68.7076719,15.3832703 67.3470988,17.3423469 65.346226,19.3147802 C63.3453532,21.313868 61.3778578,22.6798908 59.4436807,23.4128897 C57.5095037,24.1458885 56.2222948,24.1925332 55.5820155,23.5528251 C55.5553372,23.5261706 55.4019393,23.379573 55.1218171,23.113028 C54.8416949,22.846483 54.674958,22.6798948 54.6216014,22.6132585 C54.5682448,22.5466223 54.4481942,22.3866977 54.2614461,22.1334799 C54.074698,21.8802621 53.9879948,21.6736928 54.0013339,21.5137658 C54.0146731,21.3538387 54.028012,21.153933 54.0413512,20.9140424 C54.0546903,20.6741519 54.1547325,20.4409285 54.3414806,20.2143652 C54.5282287,19.9878019 54.7816688,19.7412515 55.1018085,19.4747064 C55.6620529,19.0215799 56.1289162,18.7083942 56.5024124,18.5351399 C56.8759087,18.3618856 57.2360604,18.3485586 57.5828783,18.4951583 C57.9296963,18.6417581 58.163128,18.7617016 58.2831803,18.8549923 C58.4032327,18.9482831 58.6633422,19.1948335 59.0635168,19.5946511 C59.6504395,20.1810502 61.0376905,19.3814271 63.2253114,17.1957578 L63.2253114,17.1957578 Z" id="Icons/Phone" stroke="#0F1D2B" stroke-width="1.4" fill="#B6C7D4"></path>
                                            <polyline id="Path-5" stroke="#0F1D2B" stroke-width="1.4" stroke-linecap="round" stroke-linejoin="round" points="2 22 22.1854027 40 42.3708054 22"></polyline>
                                            <path d="M1.72985273,47.5011292 L12.6344514,36.5925729" id="Path-8" stroke="#0F1D2B" stroke-width="1.4" stroke-linecap="round" stroke-linejoin="round"></path>
                                            <path d="M42.6344514,47.5011292 L31.7298527,36.5925729 L42.6344514,47.5011292 Z" id="Path-8-Copy" stroke="#0F1D2B" stroke-width="1.4" stroke-linecap="round" stroke-linejoin="round"></path>
                                        </g>
                                    </g>
                                </g>
                            </g>
                        </g>
                    </g>
                </g>
            </g>
        </g>
    </g>
</svg>