<?xml version="1.0" encoding="UTF-8" standalone="no"?>
<svg width="96px" height="27px" viewBox="0 0 96 27" version="1.1" xmlns="http://www.w3.org/2000/svg" xmlns:xlink="http://www.w3.org/1999/xlink">
    <!-- Generator: Sketch 48.2 (47327) - http://www.bohemiancoding.com/sketch -->
    <title>Group 17</title>
    <desc>Created with Sketch.</desc>
    <defs></defs>
    <g id="footer/desktop" stroke="none" stroke-width="1" fill="none" fill-rule="evenodd" transform="translate(-1144.000000, -282.000000)" opacity="0.2">
        <g fill="#FFFFFF" id="by-iugo-negativo">
            <g transform="translate(1144.000000, 282.000000)">
                <g id="Group-17" transform="translate(0.000000, 0.110448)">
                    <path d="M78.5434827,10.4149574 C79.3651368,9.58905326 80.4465203,9.1341 81.5886556,9.1341 C82.7382496,9.1341 83.8250466,9.58905326 84.6488662,10.415077 C85.4701594,11.2383486 85.9223699,12.3203284 85.9223699,13.4617801 C85.9223699,15.8292841 83.9783098,17.7553566 81.5886556,17.7553566 C79.2085053,17.7553566 77.2721444,15.8292841 77.2721444,13.4617801 C77.2721444,12.3211661 77.7236331,11.2391862 78.5434827,10.4149574 M81.5886556,19.676523 C82.3247759,19.676523 83.0712421,19.5530323 83.8074827,19.3094014 C85.513588,18.7449578 86.880806,17.4010388 87.4648662,15.7145287 C88.1790917,13.652042 87.8961444,11.5031596 86.6885654,9.81892313 C85.5185203,8.18709839 83.6121143,7.2129336 81.5886556,7.2129336 C80.8436331,7.2129336 80.0894677,7.34109114 79.347212,7.59345737 C77.6547008,8.16926882 76.3001143,9.52240177 75.7238737,11.2132197 C75.0174677,13.285399 75.3024602,15.4314094 76.505588,17.1008079 C77.6679338,18.7137261 79.5682045,19.676523 81.5886556,19.676523" id="Fill-2"></path>
                    <path d="M48.9301774,19.6765829 C51.6540271,19.6765829 53.7080421,17.6480801 53.7080421,14.9580881 L53.7080421,7.43616225 L51.6912,7.43616225 L51.6912,14.8731284 C51.6912,16.5701687 50.5558015,17.7554165 48.9301774,17.7554165 C47.3247639,17.7554165 46.2034406,16.5561683 46.2034406,14.8391445 L46.2034406,7.43616225 L44.1865985,7.43616225 L44.1865985,14.9580881 C44.1865985,17.6480801 46.2259368,19.6765829 48.9301774,19.6765829" id="Fill-4"></path>
                    <path d="M65.6526195,19.6765829 C68.1351459,19.6765829 69.9341233,18.548294 69.9520481,18.5369261 L69.9555368,18.5347722 L69.9586647,18.5322593 C70.0552662,18.4602231 70.1398376,18.2918593 70.1398376,18.1718387 C70.1398376,17.4915627 70.1355068,16.7913033 70.1312962,16.1141385 C70.1264842,15.3297569 70.1214316,14.5185712 70.1231158,13.73407 L70.1233564,13.6235027 L66.1570406,13.6235027 L66.1570406,15.4579145 L66.5522286,15.4579145 C66.5654617,15.4588718 66.5790556,15.4595897 66.5927699,15.4595897 L68.1571609,15.4595897 L68.1571609,17.1814 C68.1528301,17.1834342 68.1482586,17.1853488 68.1436872,17.1875027 C67.8487098,17.3194894 66.9515068,17.7214326 65.703988,17.7214326 C63.3991459,17.7214326 61.5241383,15.7952404 61.5241383,13.4277364 C61.5241383,11.0508988 63.3991459,9.11716789 65.703988,9.11716789 C66.6774617,9.11716789 67.7101233,9.528684 68.5357474,10.2450978 C68.5568,10.263765 68.5780932,10.2813552 68.5995068,10.2973899 L68.8759579,10.5258238 L69.1050105,10.2869793 C69.1158376,10.2765688 69.1266647,10.2654402 69.1354466,10.255628 C69.2640481,10.1190942 69.3949353,9.98435524 69.5217323,9.85392413 C69.5702135,9.80402526 69.618815,9.75400673 69.6674165,9.70374887 L69.6675368,9.70422752 L70.241612,9.10711632 L69.7909654,8.74765298 C68.5393564,7.71497369 67.1857323,7.21299343 65.6526195,7.21299343 C63.9768301,7.21299343 62.4030556,7.86155911 61.2213414,9.03926821 C60.038785,10.2178149 59.3874767,11.7884926 59.3874767,13.4618399 C59.3874767,15.133153 60.0389053,16.6978476 61.221582,17.8675394 C62.4012511,19.0341199 63.9749053,19.6765829 65.6526195,19.6765829" id="Fill-6"></path>
                    <polygon id="Fill-1" points="37.5801315 7.43616225 35.5802518 7.43616225 35.5802518 12.2269326 37.5801315 11.0280434"></polygon>
                    <polygon id="Fill-8" points="37.5801315 12.0498454 35.5802518 13.2488543 35.5802518 19.4018519 37.5801315 19.4018519"></polygon>
                    <g id="Group-12" transform="translate(0.000000, 0.286611)">
                        <path d="M28.2747429,2.22927099 L93.8133895,2.22927099 L93.8133895,23.9225961 L28.2747429,23.9225961 L28.2747429,2.22927099 Z M26.0887579,26.0861969 L-2.40601504e-05,26.0861969 L-2.40601504e-05,0.00919000806 L26.0887579,0.00919000806 L26.2162767,0.00919000806 L95.9684571,0.00919000806 L95.9684571,26.0861969 L26.2162767,26.0861969 L26.0887579,26.0861969 Z M10.4409744,13.5616638 L11.0089143,13.5616638 C11.588403,13.5616638 11.8317714,13.792132 11.8317714,14.5414527 L11.8317714,15.2447037 C11.8317714,15.8442081 11.5999519,16.0400941 11.1710797,16.0400941 L10.4409744,16.0400941 L10.4409744,13.5616638 Z M10.4409744,10.2759966 L11.0551098,10.2759966 C11.5072,10.2759966 11.7041323,10.5296791 11.7041323,11.1060888 L11.7041323,11.5556573 C11.7041323,12.2012315 11.4144481,12.4087246 10.9392602,12.4087246 L10.4409744,12.4087246 L10.4409744,10.2759966 Z M12.9790797,10.9792476 C12.9790797,9.73416902 12.4111398,9.12329674 11.089997,9.12329674 L9.16602707,9.12329674 L9.16602707,17.1930332 L11.1710797,17.1930332 C12.4460271,17.1930332 13.1067188,16.5243644 13.1067188,15.2792859 L13.1067188,14.6222242 C13.1067188,13.7691569 12.840012,13.1696525 12.1562226,12.9044825 L12.1562226,12.8813878 C12.7241624,12.6162178 12.9790797,12.0974849 12.9790797,11.2675123 L12.9790797,10.9792476 Z M16.4077353,14.5184298 L16.4077353,17.1929854 L17.6826827,17.1929854 L17.6826827,14.5184298 L19.2936301,9.12324887 L18.0766677,9.12324887 L17.1146226,12.800688 L17.0915248,12.800688 L16.1294797,9.12324887 L14.796788,9.12324887 L16.4077353,14.5184298 Z" id="Combined-Shape"></path>
                    </g>
                </g>
            </g>
        </g>
    </g>
</svg>