<?xml version="1.0" encoding="UTF-8" standalone="no"?>
<svg width="80px" height="19px" viewBox="0 0 80 19" version="1.1" xmlns="http://www.w3.org/2000/svg" xmlns:xlink="http://www.w3.org/1999/xlink">
    <!-- Generator: Sketch 48.2 (47327) - http://www.bohemiancoding.com/sketch -->
    <title>logoMC-golive-positivo-small</title>
    <desc>Created with Sketch.</desc>
    <defs></defs>
    <g id="001---MC---Home---No-Clientes" stroke="none" stroke-width="1" fill="none" fill-rule="evenodd" transform="translate(-526.000000, -1546.000000)">
        <g id="Section-2---transaccional" transform="translate(0.000000, 1212.000000)">
            <g id="section-content" transform="translate(40.000000, 52.000000)">
                <g id="Cards---X3" transform="translate(0.000000, 80.000000)">
                    <g id="desktop/components/card/x3" transform="translate(411.000000, 0.000000)">
                        <g id="Group-6">
                            <g>
                                <g id="bullets" transform="translate(62.000000, 101.000000)">
                                    <g id="PLAY" transform="translate(13.000000, 100.000000)">
                                        <g id="logoMC-golive-positivo-small" transform="translate(0.000000, 1.611374)">
                                            <path d="M34.1688014,12.2434339 C33.7997691,12.9290945 33.2945059,13.47029 32.6526723,13.8670207 C32.0107708,14.2641498 31.3059151,14.4623491 30.5388523,14.4623491 C29.771382,14.4623491 29.0630628,14.2641498 28.4139626,13.8670207 C27.7643871,13.47029 27.2442513,12.9290945 26.8534873,12.2434339 C26.4623158,11.558172 26.2669338,10.7967255 26.2669338,9.95955941 C26.2669338,9.13693948 26.4585127,8.38299852 26.8424177,7.69733801 C27.225983,7.01200959 27.7461188,6.4742679 28.402893,6.08451144 C29.0593277,5.69488782 29.771382,5.50007601 30.5388523,5.50007601 C31.3059151,5.50007601 32.0107708,5.69488782 32.6526723,6.08451144 C33.2945059,6.4742679 33.7997691,7.01200959 34.1688014,7.69733801 C34.5374941,8.38299852 34.722146,9.13693948 34.722146,9.95955941 C34.722146,10.7967255 34.5374941,11.558172 34.1688014,12.2434339 M37.7877487,5.95465904 C37.0572903,4.77144133 36.053691,3.84055572 34.7774941,3.16200221 C33.5009576,2.48378081 32.0733854,2.14457048 30.4945059,2.14457048 C28.9154907,2.14457048 27.4877827,2.48378081 26.2115857,3.16200221 C24.9350492,3.84055572 23.9317895,4.77144133 23.201399,5.95465904 C22.4709406,7.13820886 22.1057114,8.46582509 22.1057114,9.93790627 C22.1057114,11.4245336 22.4709406,12.7704819 23.201399,13.9752863 C23.9317895,15.1805557 24.9350492,16.125921 26.2115857,16.8112494 C27.4877827,17.49691 28.9154907,17.8395077 30.4945059,17.8395077 C32.0733854,17.8395077 33.5009576,17.493124 34.7774941,16.8003565 C36.053691,16.1076554 37.0572903,15.1625557 37.7877487,13.9644598 C38.5182071,12.7667624 38.8833684,11.4245336 38.8833684,9.93790627 C38.8833684,8.46582509 38.5182071,7.13820886 37.7877487,5.95465904" id="Fill-1" fill="#2F455B"></path>
                                            <path d="M44.663416,13.7763631 C44.663416,14.0981048 44.7323463,14.3477801 44.8711579,14.5254554 C45.0094941,14.7032635 45.2776095,14.7921343 45.6759796,14.7921343 C45.9182886,14.7921343 46.2124143,14.7666952 46.5588319,14.7159498 L46.6886791,17.5094037 C46.3421935,17.6108945 45.9486452,17.6910642 45.5072869,17.7506435 C45.0658608,17.8097579 44.6113956,17.8395144 44.1440951,17.8395144 C43.4515314,17.8395144 42.8717691,17.7379572 42.4044007,17.5347764 C41.9370323,17.331662 41.5646044,17.0609978 41.2879321,16.722186 C41.0107844,16.3837063 40.8115993,15.9984 40.6907844,15.5666657 C40.5694261,15.1349314 40.5089847,14.6905771 40.5089847,14.2334701 L40.5089847,2.36489446 L44.663416,2.36489446 L44.663416,13.7763631 Z" id="Fill-3" fill="#FC3F3F"></path>
                                            <path d="M48.506146,17.5856015 L52.6605772,17.5856015 L52.6605772,5.14202214 L48.506146,5.14202214 L48.506146,17.5856015 Z M48.2465195,2.28560148 C48.2465195,1.64238376 48.4627504,1.10078967 48.8956197,0.660287823 C49.3280815,0.220250923 49.8907301,0 50.5833616,0 C51.2754499,0 51.8381664,0.220250923 52.2710357,0.660287823 C52.7034975,1.10078967 52.9202037,1.64238376 52.9202037,2.28560148 C52.9202037,2.92921771 52.7034975,3.47087823 52.2710357,3.91091513 C51.8381664,4.35128413 51.2754499,4.57113653 50.5833616,4.57113653 C49.8907301,4.57113653 49.3280815,4.35128413 48.8956197,3.91091513 C48.4627504,3.47087823 48.2465195,2.92921771 48.2465195,2.28560148 Z" id="Fill-5" fill="#FC3F3F"></path>
                                            <polygon id="Fill-7" fill="#FC3F3F" points="58.6065399 17.5855616 54.1924822 5.14198229 58.3728557 5.14198229 60.8135348 13.8778937 63.2542818 5.14198229 67.4346553 5.14198229 63.0205976 17.5855616"></polygon>
                                            <path d="M74.4192258,7.47833579 C73.7612292,7.47833579 73.2548115,7.68583395 72.9003124,8.10056458 C72.5452699,8.51556089 72.3679525,9.08697786 72.3679525,9.81468266 L76.0550153,9.81468266 C76.0895144,9.67945018 76.1069677,9.53531734 76.1069677,9.38294834 C76.1069677,8.84135424 75.9596672,8.38856458 75.6656095,8.02438007 C75.3710085,7.66046125 74.9555246,7.47833579 74.4192258,7.47833579 M74.5490051,4.88806273 C76.2108048,4.88806273 77.5260509,5.3665572 78.4956944,6.32288192 C79.4649304,7.27953875 79.94982,8.60449815 79.94982,10.2971624 C79.94982,10.9407786 79.8718574,11.6264391 79.7160679,12.3541439 L72.3420102,12.3541439 C72.3765093,13.1160554 72.640618,13.7299151 73.1339287,14.1953247 C73.6272394,14.6611993 74.3843192,14.893738 75.4058472,14.893738 C76.0290051,14.893738 76.6822479,14.838941 77.3662547,14.7286162 C78.049854,14.6187565 78.6425874,14.4537011 79.1448625,14.2334502 L79.6641154,16.8490959 C79.0061188,17.1709705 78.2661528,17.4165277 77.4441494,17.5855683 C76.6218065,17.7546753 75.7694465,17.8394945 74.8865942,17.8394945 C73.7785467,17.8394945 72.8004143,17.6828081 71.9525365,17.3697675 C71.1042513,17.0566605 70.3945739,16.6206089 69.8233684,16.0618118 C69.252163,15.5031476 68.8192937,14.8345572 68.5251002,14.0556421 C68.2305671,13.2771919 68.0837419,12.4137232 68.0837419,11.4653026 C68.0837419,10.4495314 68.2350492,9.53531734 68.5380713,8.72272694 C68.8406859,7.91007011 69.2736231,7.22035793 69.8364075,6.65299262 C70.3987165,6.08595941 71.0782411,5.64990775 71.8746418,5.34516974 C72.6705671,5.04043173 73.5623837,4.88806273 74.5490051,4.88806273" id="Fill-8" fill="#FC3F3F"></path>
                                            <path d="M12.5177657,7.84364945 L12.5178336,7.84378229 L4.08917487,2.5572952 C3.6417725,2.27872694 3.13875042,2.1445572 2.64197623,2.1445572 C1.77114431,2.1445572 0.919599321,2.55656458 0.420040747,3.32445387 C0.140040747,3.73526568 6.79117148e-06,4.22850554 6.79117148e-06,4.74844649 L6.79117148e-06,15.3478561 C6.79117148e-06,16.7719151 1.17596604,17.9498192 2.66044822,17.9498192 C3.1646927,17.9498192 3.66900509,17.8129262 4.08910696,17.5390074 L12.5177657,12.2260185 C13.7495484,11.4589262 14.1137589,9.84337638 13.3294465,8.6374428 C13.1062886,8.30905904 12.8262207,8.03514022 12.5177657,7.84364945" id="Fill-9" fill="#FC3F3F"></path>
                                            <path d="M17.6624788,9.81084354 L16.4262818,9.81084354 L16.4262818,12.8713749 L17.6624788,12.8713749 L17.6624788,13.7263417 C16.6588115,14.2171904 15.76618,14.4623491 14.9841766,14.4623491 C14.157691,14.4623491 13.4050934,14.2676037 12.7265195,13.8778472 C12.4588115,13.7242162 12.2149406,13.5466074 11.9931409,13.3469469 L8.63660441,15.4627107 C9.16393888,15.9880982 9.77066214,16.4379653 10.4577929,16.8112494 C11.7193888,17.49691 13.1322241,17.8395077 14.6965025,17.8395077 C15.7734465,17.8395077 16.9134126,17.6554561 18.1162649,17.2874192 C19.3187097,16.9194487 20.333107,16.4398251 21.1596604,15.8478841 L21.1596604,9.80805387 L17.6624788,9.80805387 L17.6624788,9.81084354 Z" id="Fill-10" fill="#2F455B"></path>
                                            <path d="M11.9175008,6.67817269 C12.1537657,6.45340517 12.4148862,6.25440886 12.7043939,6.0845048 C13.3684346,5.69488118 14.1133582,5.50006937 14.9399796,5.50006937 C15.6482988,5.50006937 16.3675518,5.65157491 17.0980102,5.9546524 C17.8284686,6.25772989 18.4738336,6.66900664 19.0347844,7.1886155 L21.3367199,4.41767823 C20.5399117,3.7249107 19.5659898,3.17288856 18.4150221,2.76154539 C17.2640543,2.35026863 16.1130187,2.14456384 14.9620509,2.14456384 C13.353562,2.14456384 11.8964482,2.48384059 10.5905739,3.16199557 C9.83390153,3.55513948 9.17196604,4.0347631 8.60354499,4.59967085 L11.9175008,6.67817269 Z" id="Fill-11" fill="#2F455B"></path>
                                            <polygon id="Fill-12" fill="#FFFFFF" points="5.93822071 8.04044723 7.0940781 8.04044723 6.30012224 12.0425579 5.36029202 12.0425579 5.87404414 9.47340664 4.37971477 11.6429712 3.69672666 11.6429712 3.07214261 9.46776089 2.55839049 12.0425579 1.6186961 12.0425579 2.41251613 8.04044723 3.5624652 8.04044723 4.28633616 10.4098052"></polygon>
                                            <path d="M10.5495891,8.16316605 C10.8335959,8.28690775 11.0671443,8.45535055 11.2500306,8.66842804 L10.5495891,9.39918819 C10.4328489,9.2355941 10.2888081,9.10514391 10.1176706,9.00823616 C9.94632937,8.91119557 9.77118506,8.86257565 9.59223769,8.86257565 C9.37050594,8.86257565 9.16419015,8.91876753 8.97356197,9.03095203 C8.78279796,9.14326937 8.63203396,9.29650185 8.52113413,9.49051661 C8.4102343,9.68466421 8.35481834,9.89787454 8.35481834,10.1300148 C8.35481834,10.3279483 8.39760272,10.5068192 8.48323939,10.6666273 C8.56874024,10.8265018 8.68751783,10.9520369 8.8392326,11.0434317 C8.99101528,11.1347601 9.16222071,11.180524 9.35298472,11.180524 C9.52025127,11.180524 9.70028523,11.138679 9.89288285,11.0549225 C10.0855484,10.9712325 10.2615756,10.8569889 10.4211002,10.7122583 L10.9757351,11.368893 C10.7305739,11.5971808 10.4484007,11.7790406 10.1293514,11.9140738 C9.81016638,12.049107 9.50082852,12.1167232 9.20126995,12.1167232 C8.82368081,12.1167232 8.48704244,12.034893 8.19128693,11.8712989 C7.89553141,11.7076384 7.66598981,11.4821402 7.50252632,11.194738 C7.33906282,10.9074686 7.25736503,10.5830037 7.25736503,10.2212768 C7.25736503,9.80282657 7.36439389,9.42210332 7.57845161,9.07950554 C7.79237351,8.73704059 8.08425806,8.46777122 8.45403735,8.27169742 C8.82368081,8.07569004 9.22836672,7.97771956 9.66816299,7.97771956 C9.97172835,7.97771956 10.2654465,8.0395572 10.5495891,8.16316605" id="Fill-13" fill="#FFFFFF"></path>
                                        </g>
                                    </g>
                                </g>
                            </g>
                        </g>
                    </g>
                </g>
            </g>
        </g>
    </g>
</svg>