<?xml version="1.0" encoding="UTF-8" standalone="no"?>
<svg width="118px" height="39px" viewBox="0 0 118 39" version="1.1" xmlns="http://www.w3.org/2000/svg" xmlns:xlink="http://www.w3.org/1999/xlink">
    <!-- Generator: Sketch 48.2 (47327) - http://www.bohemiancoding.com/sketch -->
    <title>logoMC-positivo-sm</title>
    <desc>Created with Sketch.</desc>
    <defs></defs>
    <g id="navbar/no-clientes" stroke="none" stroke-width="1" fill="none" fill-rule="evenodd" transform="translate(-40.000000, -53.000000)">
        <g id="main-navbar">
            <g transform="translate(0.000000, 35.000000)">
                <g id="logoMC-positivo-sm" transform="translate(40.000000, 18.000000)">
                    <path d="M10.3546099,24 L9.29296236,27.738556 C8.87725041,29.2128701 8.41789416,31.1876894 8.02291326,32.888319 L7.96072013,32.888319 C7.66612111,31.1876894 7.25150027,29.3205875 6.85433715,27.778814 L5.93780687,24 L0.877250409,24 L0,38 L3.45881069,38 L3.69012548,32.9742753 C3.7523186,31.3955079 3.81560284,29.3205875 3.89525368,27.3435921 L3.93998909,27.3435921 C4.27277687,29.2531282 4.69176214,31.3334888 5.066012,32.8262998 L6.233497,37.7094894 L9.167485,37.7094894 L10.5651937,32.8262998 C11.0234588,31.2899666 11.6050191,29.1932851 12.0425532,27.3435921 L12.1058374,27.3435921 C12.1058374,29.5251418 12.1243863,31.3955079 12.1898527,32.9742753 L12.3546099,38 L16,38 L15.2918712,24 L10.3546099,24 Z" id="Fill-1" fill="#231F20"></path>
                    <path d="M23.5005528,37.4704689 C20.5863594,37.4704689 18.940216,34.6954463 18.940216,31.5755185 C18.940216,28.410505 20.4603283,25.5272768 23.5193469,25.5272768 C26.5816821,25.5272768 28.0586785,28.5401262 28.0586785,31.4436429 C28.0586785,34.7382777 26.4125351,37.4704689 23.5005528,37.4704689 M23.5845735,24 C19.7848457,24 17,27.0128494 17,31.6183499 C17,36.0074391 19.6156986,39 23.3933158,39 C27.0227911,39 30,36.3309288 30,31.3613616 C30,27.0342651 27.4893273,24 23.5845735,24" id="Fill-4" fill="#231F20"></path>
                    <polygon id="Fill-6" fill="#231F20" points="44 25.5383898 48.5189501 25.5383898 48.5189501 38 50.4591076 38 50.4591076 25.5383898 55 25.5383898 55 24 44 24"></polygon>
                    <polygon id="Fill-8" fill="#231F20" points="56.8553121 31.4346779 62.3462863 31.4346779 62.3462863 29.9407787 56.8553121 29.9407787 56.8553121 25.5178363 62.6836158 25.5178363 62.6836158 24 55 24 55 38 63 38 63 36.4832517 56.8553121 36.4832517"></polygon>
                    <path d="M72.6258566,25.5723531 C73.8285773,25.5723531 74.8389076,25.8319663 75.5274624,26.176236 L76,24.6456468 C75.5060857,24.3871623 74.3438683,24 72.5617265,24 C68.0714943,24 65,27.0611784 65,31.6269847 C65,36.4128979 68.0523678,39 72.1308172,39 C73.8927074,39 75.2900685,38.6534728 75.9561215,38.3092031 L75.5893423,36.8000602 C74.8389076,37.1680337 73.6789404,37.4028144 72.5200982,37.4028144 C69.0176946,37.4028144 66.9767822,35.1396644 66.9767822,31.5649033 C66.9767822,27.7485891 69.2325867,25.5723531 72.6258566,25.5723531" id="Fill-10" fill="#231F20"></path>
                    <path d="M79.7890045,32.1832595 L81.1898217,28.1324318 C81.4895988,27.2837491 81.7024517,26.4111292 81.9175334,25.5994404 L81.9576523,25.5994404 C82.1693908,26.4111292 82.3833581,27.2402269 82.7020802,28.1531048 L84.128529,32.1832595 L79.7890045,32.1832595 Z M80.8956166,24 L76,38 L77.9123328,38 L79.4034175,33.5966426 L84.4929421,33.5966426 L86.0219168,38 L88,38 L83.1077266,24 L80.8956166,24 Z" id="Fill-12" fill="#231F20"></path>
                    <path d="M92.389841,37.5098654 C91.7329552,37.5098654 91.2269757,37.4892169 90.8430526,37.4238299 L90.8430526,31.7948149 L92.3676489,31.7948149 C94.3782518,31.7948149 96.0537542,32.6517284 96.0537542,34.6408688 C96.0537542,36.7871673 94.296141,37.5098654 92.389841,37.5098654 Z M90.8430526,25.5968186 C91.1382074,25.5314316 91.6264332,25.4648975 92.4752805,25.4648975 C94.3360868,25.4648975 95.58883,26.1692414 95.58883,27.8750382 C95.58883,29.2974916 94.444828,30.3723616 92.5174454,30.3723616 L90.8430526,30.3723616 L90.8430526,25.5968186 Z M95.0584392,30.9837871 L95.0584392,30.9184001 C96.54198,30.3723616 97.4740476,29.1231263 97.4740476,27.6765831 C97.4740476,26.5168247 97.0057946,25.6404099 96.2634694,25.0714286 C95.3979781,24.3269348 94.2140303,24 92.3676489,24 C91.0982616,24 89.8044631,24.1296268 89,24.3269348 L89,38.8244876 C89.6158304,38.9105231 90.5911725,39 91.8605597,39 C94.189619,39 95.8007644,38.5617926 96.7749969,37.6199908 C97.5162126,36.9202355 98,35.9348425 98,34.6626644 C98,32.4739217 96.4132659,31.3153105 95.0584392,30.9837871 Z" id="Fill-14" fill="#231F20"></path>
                    <polygon id="Fill-16" fill="#231F20" points="101.87547 24 100 24 100 38 108 38 108 36.4843398 101.87547 36.4843398"></polygon>
                    <polygon id="Fill-18" fill="#231F20" points="111.856926 36.4833696 111.856926 31.4351881 117.349414 31.4351881 117.349414 29.941405 111.856926 29.941405 111.856926 25.5177184 117.685734 25.5177184 117.685734 24 110 24 110 38 118 38 118 36.4833696"></polygon>
                    <path d="M32,38 L32,24 L33.8962963,24 L38.1449735,31.0833995 C39.1142857,32.7235902 39.9047619,34.1969817 40.5174603,35.6325655 L40.5767196,35.6136616 C40.4190476,33.7432883 40.378836,32.0386021 40.378836,29.8568705 L40.378836,24 L42,24 L42,38 L40.2613757,38 L36.0328042,30.8976966 C35.1015873,29.3375695 34.2126984,27.7385226 33.5608466,26.2217633 L33.5015873,26.2406672 C33.6010582,28.0087371 33.621164,29.6922955 33.621164,32.0185862 L33.621164,38 L32,38 Z" id="Fill-20" fill="#221E1F"></path>
                    <path d="M58.5988316,8.45842659 C58.2137665,3.81927911 56.5595356,1.04687122 56.5595356,1.04687122 C49.7722097,-0.702278467 26.6793677,0.218088593 24.6843321,0.441961661 C22.6892964,0.66583473 22.3805804,1.38268082 22.3805804,1.38268082 C20.9410123,13.91505 24.0491959,18.2749214 24.0491959,18.2749214 C25.6481014,18.9374953 30.0829893,18.9295806 30.0829893,18.9295806 C30.0829893,18.9295806 30.3308473,19.221294 30.8697171,19.6588641 C30.9250426,19.7006989 30.9836876,19.7414031 31.0401195,19.7888913 C31.0423325,19.790022 31.0445456,19.7945447 31.0478651,19.796806 C31.8677882,20.4390278 32.7806581,20.9647903 33.697954,21.386531 L33.695741,21.3707016 C34.8708535,21.9168162 36.3580016,22.441448 38.198126,22.8190925 L38.2058715,22.8292685 C38.8122384,22.9513811 39.1829189,23 39.1829189,23 C37.8473626,20.7149118 38.9350609,18.9205352 38.9350609,18.9205352 C39.3876231,18.9748075 54.6043343,18.4569596 56.0671391,18.2048198 C57.5288375,17.9515492 58.6585831,17.2086977 58.6585831,17.2086977 C59.2372873,15.6562849 58.9861098,13.0930514 58.5988316,8.45842659" id="Fill-22" fill="#EA2227"></path>
                </g>
            </g>
        </g>
    </g>
</svg>