<?xml version="1.0" encoding="UTF-8" standalone="no"?>
<svg width="60px" height="20px" viewBox="0 0 60 20" version="1.1" xmlns="http://www.w3.org/2000/svg" xmlns:xlink="http://www.w3.org/1999/xlink">
    <!-- Generator: Sketch 48.2 (47327) - http://www.bohemiancoding.com/sketch -->
    <title>logoMC-inverso-sm</title>
    <desc>Created with Sketch.</desc>
    <defs></defs>
    <g id="footer/desktop" stroke="none" stroke-width="1" fill="none" fill-rule="evenodd" transform="translate(-40.000000, -286.000000)">
        <g fill="#FEFEFE" id="logoMC-inverso-sm">
            <g transform="translate(40.000000, 286.000000)">
                <path d="M5.32104673,12.2499429 L4.7748785,14.2133714 C4.56179439,14.9876571 4.32571963,16.0248 4.12272897,16.9179429 L4.09076636,16.9179429 C3.93936449,16.0248 3.72571963,15.0442286 3.52216822,14.2345143 L3.05114019,12.2499429 L0.449831776,12.2499429 L0.000112149533,19.6025143 L1.7771215,19.6025143 L1.896,16.9630857 C1.92740187,16.1339429 1.96048598,15.0442286 2.00142056,14.0059429 L2.02441121,14.0059429 C2.196,15.0088 2.41076636,16.1013714 2.6031028,16.8853714 L3.2031028,19.4499429 L4.71095327,19.4499429 L5.42871028,16.8853714 C5.6642243,16.0785143 5.96366355,14.9773714 6.18852336,14.0059429 L6.22048598,14.0059429 C6.22048598,15.1516571 6.23057944,16.1339429 6.2642243,16.9630857 L6.3488972,19.6025143 L8.22291589,19.6025143 L7.85842991,12.2499429 L5.32104673,12.2499429 Z" id="Fill-1"></path>
                <path d="M12.1622804,18.9480571 C10.6841495,18.9480571 9.84919626,17.5412 9.84919626,15.9594857 C9.84919626,14.3549143 10.6202243,12.8932 12.1718131,12.8932 C13.7250841,12.8932 14.474243,14.4206286 14.474243,15.8926286 C14.474243,17.5629143 13.6398505,18.9480571 12.1622804,18.9480571 M12.2048972,12.1189143 C10.2776075,12.1189143 8.86508411,13.6463429 8.86508411,15.9812 C8.86508411,18.2063429 10.1918131,19.7234857 12.1078879,19.7234857 C13.9488224,19.7234857 15.4589159,18.3703429 15.4589159,15.8509143 C15.4589159,13.6572 14.1854579,12.1189143 12.2048972,12.1189143" id="Fill-3"></path>
                <polygon id="Fill-5" points="22.3543178 13.0577143 24.5485234 13.0577143 24.5485234 19.6028571 25.4911402 19.6028571 25.4911402 13.0577143 27.6954393 13.0577143 27.6954393 12.2497143 22.3543178 12.2497143"></polygon>
                <polygon id="Fill-7" points="29.1632523 16.1548 31.9557757 16.1548 31.9557757 15.3702286 29.1632523 15.3702286 29.1632523 13.0473714 32.1279252 13.0473714 32.1279252 12.2502286 28.2189533 12.2502286 28.2189533 19.6028 32.2888598 19.6028 32.2888598 18.8062286 29.1632523 18.8062286"></polygon>
                <path d="M36.6024673,12.926 C37.2019065,12.926 37.7054579,13.0574286 38.0486355,13.2317143 L38.2841495,12.4568571 C38.0379813,12.326 37.4581682,12.13 36.5705047,12.13 C34.3325607,12.13 32.8017196,13.6797143 32.8017196,15.9911429 C32.8017196,18.414 34.323028,19.7237143 36.3557383,19.7237143 C37.2338692,19.7237143 37.9303178,19.5482857 38.2622804,19.374 L38.0794766,18.61 C37.7054579,18.7962857 37.1278879,18.9151429 36.549757,18.9151429 C34.8041495,18.9151429 33.7869533,17.7694286 33.7869533,15.9597143 C33.7869533,14.0277143 34.9112523,12.926 36.6024673,12.926" id="Fill-9"></path>
                <path d="M40.574243,16.5476571 L41.2796636,14.4202286 C41.4299439,13.9745143 41.5370467,13.5162286 41.645271,13.0899429 L41.6660187,13.0899429 C41.7725607,13.5162286 41.8796636,13.9516571 42.0405981,14.4310857 L42.7583551,16.5476571 L40.574243,16.5476571 Z M41.1310654,12.2499429 L38.6682617,19.6025143 L39.6299439,19.6025143 L40.3802243,17.2899429 L42.9411589,17.2899429 L43.7110654,19.6025143 L44.7058318,19.6025143 L42.2447103,12.2499429 L41.1310654,12.2499429 Z" id="Fill-11"></path>
                <path d="M47.2111963,18.9257143 C46.8792336,18.9257143 46.6235327,18.9154286 46.4300748,18.8828571 L46.4300748,16.0788571 L47.1999813,16.0788571 C48.2166168,16.0788571 49.0633458,16.5057143 49.0633458,17.4965714 C49.0633458,18.5657143 48.1751215,18.9257143 47.2111963,18.9257143 Z M46.4300748,12.9914286 C46.5792336,12.9588571 46.8259626,12.9257143 47.2543738,12.9257143 C48.1947477,12.9257143 48.8278318,13.2765714 48.8278318,14.1262857 C48.8278318,14.8348571 48.2502617,15.3702857 47.2756822,15.3702857 L46.4300748,15.3702857 L46.4300748,12.9914286 Z M48.5597944,15.6748571 L48.5597944,15.6422857 C49.309514,15.3702857 49.7805421,14.748 49.7805421,14.0274286 C49.7805421,13.4497143 49.5439065,13.0131429 49.1693271,12.7297143 C48.7319439,12.3588571 48.1336262,12.196 47.1999813,12.196 C46.558486,12.196 45.9046542,12.2605714 45.4981121,12.3588571 L45.4981121,19.5805714 C45.8098879,19.6234286 46.302785,19.668 46.9437196,19.668 C48.120729,19.668 48.9349346,19.4497143 49.427271,18.9805714 C49.8024112,18.632 50.0468972,18.1411429 50.0468972,17.5074286 C50.0468972,16.4171429 49.245028,15.84 48.5597944,15.6748571 Z" id="Fill-13"></path>
                <polygon id="Fill-15" points="51.9655514 12.2499429 51.0218131 12.2499429 51.0218131 19.6025143 55.0474206 19.6025143 55.0474206 18.8065143 51.9655514 18.8065143"></polygon>
                <polygon id="Fill-17" points="56.7505234 18.8062857 56.7505234 16.1548571 59.5441682 16.1548571 59.5441682 15.3702857 56.7505234 15.3702857 56.7505234 13.0468571 59.7151963 13.0468571 59.7151963 12.2497143 55.8062243 12.2497143 55.8062243 19.6028571 59.8750093 19.6028571 59.8750093 18.8062857"></polygon>
                <path d="M16.5070093,19.4307429 L16.5070093,12.2364571 L17.5118692,12.2364571 L19.763271,15.8764571 C20.2769159,16.7193143 20.6957944,17.4764571 21.0204673,18.2141714 L21.0518692,18.2044571 C20.967757,17.2433143 20.9470093,16.3673143 20.9470093,15.2461714 L20.9470093,12.2364571 L21.805514,12.2364571 L21.805514,19.4307429 L20.8847664,19.4307429 L18.6440187,15.7810286 C18.1505607,14.9793143 17.678972,14.1576 17.3341121,13.3781714 L17.3027103,13.3878857 C17.3548598,14.2964571 17.365514,15.1616 17.365514,16.3570286 L17.365514,19.4307429 L16.5070093,19.4307429 Z" id="Fill-20"></path>
                <path d="M29.792972,4.2748 C29.597271,1.93022857 28.7589533,0.529085714 28.7589533,0.529085714 C25.3193271,-0.354914286 13.6165234,0.110228571 12.6060561,0.223371429 C11.595028,0.336514286 11.4385794,0.6988 11.4385794,0.6988 C10.7090467,7.03251429 12.2836262,9.23594286 12.2836262,9.23594286 C13.0944673,9.5708 15.3419439,9.5668 15.3419439,9.5668 C15.3419439,9.5668 15.4675514,9.71422857 15.7400748,9.93537143 C15.7686729,9.95651429 15.7983925,9.97708571 15.8269907,10.0010857 C15.8281121,10.0016571 15.8292336,10.0039429 15.8309159,10.0050857 C16.2464299,10.3296571 16.7090467,10.5953714 17.1733458,10.8085143 L17.172785,10.8005143 C17.7682991,11.0765143 18.5213832,11.3416571 19.4544673,11.5325143 L19.4583925,11.5376571 C19.7651215,11.5993714 19.952972,11.6239429 19.952972,11.6239429 C19.2761495,10.4690857 19.8279252,9.56222857 19.8279252,9.56222857 C20.057271,9.58965714 27.7686729,9.32794286 28.5094206,9.20051429 C29.2501682,9.07251429 29.8232523,8.69708571 29.8232523,8.69708571 C30.1159626,7.91251429 29.9892336,6.61708571 29.792972,4.2748" id="Fill-22"></path>
            </g>
        </g>
    </g>
</svg>