<?xml version="1.0" encoding="UTF-8" standalone="no"?>
<svg width="295px" height="68px" viewBox="0 0 295 68" version="1.1" xmlns="http://www.w3.org/2000/svg" xmlns:xlink="http://www.w3.org/1999/xlink">
    <!-- Generator: Sketch 48.2 (47327) - http://www.bohemiancoding.com/sketch -->
    <title>logoMC-golive-negativo-BIG</title>
    <desc>Created with Sketch.</desc>
    <defs>
        <polygon id="path-1" points="0 67.8105535 294.814936 67.8105535 294.814936 0 0 0"></polygon>
    </defs>
    <g id="001---MC---Home---No-Clientes" stroke="none" stroke-width="1" fill="none" fill-rule="evenodd" transform="translate(-147.000000, -3134.000000)">
        <g id="Section-5---MC-Go-Live" transform="translate(0.000000, 2928.000000)">
            <g id="Group-19">
                <g id="Section-5---MC-Go-Live">
                    <g id="logoMC-golive-negativo-BIG" transform="translate(147.000000, 206.000000)">
                        <path d="M125.997455,46.2529727 C124.636649,48.8432458 122.773491,50.8877624 120.406729,52.3865225 C118.039717,53.8867882 115.440562,54.635541 112.612018,54.635541 C109.781971,54.635541 107.170044,53.8867882 104.776487,52.3865225 C102.381177,50.8877624 100.463177,48.8432458 99.0222343,46.2529727 C97.5797895,43.6642052 96.8593183,40.7876295 96.8593183,37.6250022 C96.8593183,34.5173269 97.5657657,31.6691055 98.9814151,29.0788325 C100.395812,26.489814 102.313813,24.4583454 104.735668,22.9859321 C107.156271,21.5140207 109.781971,20.7780649 112.612018,20.7780649 C115.440562,20.7780649 118.039717,21.5140207 120.406729,22.9859321 C122.773491,24.4583454 124.636649,26.489814 125.997455,29.0788325 C127.357009,31.6691055 128.037913,34.5173269 128.037913,37.6250022 C128.037913,40.7876295 127.357009,43.6642052 125.997455,46.2529727 M139.342323,22.4953786 C136.648758,18.025445 132.947986,14.5087661 128.242009,11.9453417 C123.534781,9.38317196 118.270609,8.1017107 112.448491,8.1017107 C106.625872,8.1017107 101.361199,9.38317196 96.6552224,11.9453417 C91.9479941,14.5087661 88.2484737,18.025445 85.5551587,22.4953786 C82.8615934,26.9665668 81.5148107,31.9820059 81.5148107,37.5432015 C81.5148107,43.1593491 82.8615934,48.2440428 85.5551587,52.7955262 C88.2484737,57.3487661 91.9479941,60.9201461 96.6552224,63.5091646 C101.361199,66.0994376 106.625872,67.3936959 112.448491,67.3936959 C118.270609,67.3936959 123.534781,66.0851351 128.242009,63.4680133 C132.947986,60.8511424 136.648758,57.2807661 139.342323,52.7546258 C142.035889,48.2299911 143.382421,43.1593491 143.382421,37.5432015 C143.382421,31.9820059 142.035889,26.9665668 139.342323,22.4953786" id="Fill-1" fill="#FFFFFF"></path>
                        <path d="M164.696346,52.0440384 C164.696346,53.259507 164.950527,54.2027247 165.462395,54.8739424 C165.972509,55.545662 166.961185,55.8813963 168.430175,55.8813963 C169.323689,55.8813963 170.408278,55.785293 171.685693,55.5935882 L172.164504,66.1466362 C170.886839,66.5300458 169.435629,66.8329092 167.808121,67.0579867 C166.180362,67.2813077 164.504521,67.393721 162.781351,67.393721 C160.227522,67.393721 158.089649,67.0100605 156.366228,66.2424886 C154.642806,65.4751675 153.269479,64.4526583 152.24925,63.1727026 C151.227267,61.8940015 150.492772,60.4384 150.047267,58.8074037 C149.599759,57.1764074 149.376881,55.4977358 149.376881,53.7708871 L149.376881,8.93404576 L164.696346,8.93404576 L164.696346,52.0440384 Z" id="Fill-3" fill="#FC3F3F"></path>
                        <mask id="mask-2" fill="white">
                            <use xlink:href="#path-1"></use>
                        </mask>
                        <g id="Clip-6"></g>
                        <path d="M178.866413,66.4344945 L194.185879,66.4344945 L194.185879,19.425417 L178.866413,19.425417 L178.866413,66.4344945 Z M177.909041,8.63449446 C177.909041,6.20456089 178.706392,4.15853875 180.302598,2.49442066 C181.897301,0.832059041 183.972067,0 186.526146,0 C189.078222,0 191.153239,0.832059041 192.749444,2.49442066 C194.344147,4.15853875 195.143251,6.20456089 195.143251,8.63449446 C195.143251,11.0659336 194.344147,13.1122066 192.749444,14.7745683 C191.153239,16.4381845 189.078222,17.268738 186.526146,17.268738 C183.972067,17.268738 181.897301,16.4381845 180.302598,14.7745683 C178.706392,13.1122066 177.909041,11.0659336 177.909041,8.63449446 Z" id="Fill-5" fill="#FC3F3F" mask="url(#mask-2)"></path>
                        <polygon id="Fill-7" fill="#FC3F3F" mask="url(#mask-2)" points="216.111616 66.4343439 199.834778 19.4252664 215.249905 19.4252664 224.24991 52.4275985 233.250164 19.4252664 248.665292 19.4252664 232.388454 66.4343439"></polygon>
                        <path d="M274.420895,28.2514908 C271.994533,28.2514908 270.127118,29.0353727 268.819902,30.6021328 C267.510683,32.1698967 266.856825,34.328583 266.856825,37.07769 L280.452869,37.07769 C280.580084,36.5668118 280.644444,36.02231 280.644444,35.4466937 C280.644444,33.4006716 280.101273,31.6901328 279.016935,30.3143247 C277.930594,28.9395203 276.398497,28.2514908 274.420895,28.2514908 M274.899456,18.4660148 C281.027343,18.4660148 285.877313,20.2736605 289.452873,23.8864428 C293.026931,27.5004797 294.814961,32.5058819 294.814961,38.9003911 C294.814961,41.3318303 294.527474,43.9221033 293.953,46.6712103 L266.761163,46.6712103 C266.888378,49.5495424 267.862279,51.8685683 269.681362,53.6267823 C271.500445,55.3867528 274.292177,56.2652325 278.059062,56.2652325 C280.356956,56.2652325 282.765789,56.0582214 285.288064,55.6414391 C287.808837,55.2264133 289.994541,54.6028708 291.84668,53.7708118 L293.761426,63.6521402 C291.335063,64.8681107 288.606438,65.7957712 285.575301,66.434369 C282.542911,67.0732177 279.399834,67.3936458 276.144316,67.3936458 C272.058391,67.3936458 268.451528,66.8017196 265.324978,65.6191218 C262.196927,64.4362731 259.579991,62.7889668 257.473671,60.6779557 C255.367351,58.5674465 253.771146,56.0416605 252.686307,53.0990923 C251.600216,50.1582804 251.058798,46.8962878 251.058798,43.3133653 C251.058798,39.4760074 251.616744,36.02231 252.734138,32.952524 C253.850029,29.8824871 255.446485,27.2769077 257.521753,25.1335277 C259.595267,22.9914022 262.101014,21.3440959 265.037742,20.1928635 C267.972716,19.041631 271.26129,18.4660148 274.899456,18.4660148" id="Fill-8" fill="#FC3F3F" mask="url(#mask-2)"></path>
                        <path d="M46.159261,29.6315646 L46.1595115,29.6320664 L15.0788323,9.66089299 C13.4290361,8.60852399 11.5741422,8.10166052 9.74228735,8.10166052 C6.53109465,8.10166052 3.3910225,9.65813284 1.54890025,12.559048 C0.516400255,14.1110037 2.50424448e-05,15.9743542 2.50424448e-05,17.9385756 L2.50424448e-05,57.9807897 C2.50424448e-05,63.3605683 4.33637479,67.810428 9.8104028,67.810428 C11.6698043,67.810428 13.5294563,67.2932768 15.0785819,66.2584723 L46.159261,46.1871808 C50.7014597,43.2892768 52.044486,37.1860886 49.152334,32.6303395 C48.3294393,31.3897786 47.2966889,30.3549742 46.159261,29.6315646" id="Fill-9" fill="#FC3F3F" mask="url(#mask-2)"></path>
                        <path d="M65.1303905,37.0631867 L60.5719143,37.0631867 L60.5719143,48.6251941 L65.1303905,48.6251941 L65.1303905,51.8550686 C61.4293676,53.709386 58.1377886,54.635541 55.2541511,54.635541 C52.2064856,54.635541 49.4312818,53.8998362 46.9290407,52.4274229 C45.9418676,51.8470391 45.0425934,51.1760723 44.2247071,50.4217993 L31.8474788,58.4146849 C33.7920246,60.3994819 36.0293166,62.0989801 38.5631112,63.5091646 C43.2152462,66.0994376 48.4250764,67.3936959 54.1933531,67.3936959 C58.164584,67.3936959 62.3682088,66.6983897 66.8037267,65.308028 C71.2377419,63.9179173 74.9783319,62.1060059 78.0262479,59.8697845 L78.0262479,37.052648 L65.1303905,37.052648 L65.1303905,37.0631867 Z" id="Fill-10" fill="#FFFFFF" mask="url(#mask-2)"></path>
                        <path d="M43.9457844,25.2286524 C44.817011,24.3795306 45.779893,23.6277668 46.8474525,22.985907 C49.2961027,21.5139956 52.0430085,20.7780399 55.0911749,20.7780399 C57.7031019,20.7780399 60.3553472,21.3503941 63.0489126,22.4953535 C65.7424779,23.6403129 68.1222615,25.1940251 70.1907674,27.1569919 L78.6791545,16.6890066 C75.7409244,14.0718849 72.1495874,11.9864679 67.9053939,10.4325048 C63.6612003,8.87879262 59.4167564,8.10168561 55.1725628,8.10168561 C49.2412598,8.10168561 43.8681528,9.38339779 39.0527411,11.9453166 C36.2625119,13.4305269 33.8216248,15.2424384 31.7255722,17.3765343 L43.9457844,25.2286524 Z" id="Fill-11" fill="#FFFFFF" mask="url(#mask-2)"></path>
                        <polygon id="Fill-12" fill="#FFFFFF" mask="url(#mask-2)" points="21.8971889 30.3750229 26.159413 30.3750229 23.2317008 45.4941077 19.7660768 45.4941077 21.6605378 35.7884251 16.1501982 43.9845579 13.6316795 43.9845579 11.3285259 35.7670967 9.43406494 45.4941077 5.96894185 45.4941077 8.89615323 30.3750229 13.1365904 30.3750229 15.8058646 39.3259306"></polygon>
                        <path d="M38.9016099,30.8386273 C39.948885,31.3060959 40.8100947,31.9424354 41.4844877,32.7473948 L38.9016099,35.5080443 C38.4711303,34.8900221 37.9399801,34.3972103 37.3089104,34.0311144 C36.6770896,33.6645166 36.0312449,33.4808413 35.3713765,33.4808413 C34.5537407,33.4808413 33.7929512,33.6931218 33.0900098,34.1169299 C32.3865675,34.5412399 31.8306252,35.1201181 31.4216821,35.8530627 C31.012739,36.5865092 30.8083926,37.3919705 30.8083926,38.2689446 C30.8083926,39.0166937 30.96616,39.692428 31.2819452,40.2961476 C31.5972296,40.9001181 32.035222,41.3743616 32.5946702,41.719631 C33.1543688,42.0646494 33.7856889,42.2375351 34.4891312,42.2375351 C35.1059266,42.2375351 35.7698018,42.0794539 36.4800055,41.7630406 C37.1904597,41.4468782 37.8395598,41.0152915 38.4278069,40.4685314 L40.4730233,42.9491513 C39.5689911,43.811572 38.5284775,44.4985978 37.3519834,45.0087232 C36.1749885,45.5188487 35.0343052,45.7742878 33.9296829,45.7742878 C32.537323,45.7742878 31.295969,45.4651513 30.2053705,44.8471292 C29.1147721,44.2288561 28.2683374,43.3769742 27.6655658,42.2912325 C27.0627941,41.2059926 26.7615335,39.9802362 26.7615335,38.6137122 C26.7615335,37.0329004 27.1562025,35.5946125 27.9455403,34.3003542 C28.7343773,33.0065978 29.8107016,31.9893579 31.1742627,31.2486347 C32.537323,30.5081624 34.0296023,30.1380517 35.651351,30.1380517 C36.7707483,30.1380517 37.853834,30.3716605 38.9016099,30.8386273" id="Fill-13" fill="#FFFFFF" mask="url(#mask-2)"></path>
                    </g>
                </g>
            </g>
        </g>
    </g>
</svg>