<?xml version="1.0" encoding="UTF-8" standalone="no"?>
<svg width="128px" height="66px" viewBox="0 0 128 66" version="1.1" xmlns="http://www.w3.org/2000/svg" xmlns:xlink="http://www.w3.org/1999/xlink">
    <!-- Generator: Sketch 48.2 (47327) - http://www.bohemiancoding.com/sketch -->
    <title>Illustration-icon/mcgolive</title>
    <desc>Created with Sketch.</desc>
    <defs>
        <rect id="path-1" x="78" y="30" width="50" height="36" rx="6"></rect>
        <rect id="path-2" x="0" y="29" width="22" height="37" rx="3"></rect>
    </defs>
    <g id="001---MC---Home---No-Clientes" stroke="none" stroke-width="1" fill="none" fill-rule="evenodd" transform="translate(-427.000000, -896.000000)">
        <g id="Section-1---porque-MC---features" transform="translate(0.000000, 615.000000)">
            <g id="Section-Featuresx4">
                <g id="Group-18" transform="translate(40.000000, 157.000000)">
                    <g id="bullets" transform="translate(0.000000, 124.000000)">
                        <g id="Bullet-2" transform="translate(308.000000, 0.000000)">
                            <g id="Illustration-icon/mcgolive" transform="translate(79.000000, 0.000000)">
                                <g id="Group">
                                    <rect id="Rectangle-Copy-5" stroke="#0F1D2B" stroke-width="1.4" x="8.7" y="0.7" width="84.6" height="59.6" rx="6"></rect>
                                    <path d="M35.6034483,65 L69.3965517,65" id="Line" stroke="#0F1D2B" stroke-width="1.4" stroke-linecap="square"></path>
                                    <g id="Rectangle-Copy-6">
                                        <use fill="#FFFFFF" fill-rule="evenodd" xlink:href="#path-1"></use>
                                        <rect stroke="#0F1D2B" stroke-width="1.4" x="78.7" y="30.7" width="48.6" height="34.6" rx="6"></rect>
                                    </g>
                                    <g id="Rectangle-Copy-7">
                                        <use fill="#F1F1F1" fill-rule="evenodd" xlink:href="#path-2"></use>
                                        <rect stroke="#0F1D2B" stroke-width="1.4" x="0.7" y="29.7" width="20.6" height="35.6" rx="3"></rect>
                                    </g>
                                    <circle id="Oval-2" fill="#0F1D2B" cx="121" cy="49" r="1"></circle>
                                    <circle id="Oval-2-Copy" fill="#0F1D2B" cx="11" cy="61" r="1"></circle>
                                </g>
                                <path d="M62.7710376,26.8174586 L62.7711612,26.8177108 L47.4385999,16.7834189 C46.6247309,16.2546679 45.7096841,16 44.8060029,16 C43.2218738,16 41.6727059,16.782032 40.7640832,18.2395643 C40.2547356,19.019327 40,19.9555466 40,20.9424476 L40,41.0612085 C40,43.7642179 42.1391858,46 44.8394817,46 C45.7568757,46 46.6742697,45.7401631 47.4383528,45.2202373 L62.7710376,35.1356422 C65.0116482,33.6796228 65.6743066,30.6131444 64.2475651,28.3241594 C63.8416189,27.7008535 63.3321477,27.1809276 62.7710376,26.8174586" id="Fill-1" fill="#FE4A49"></path>
                            </g>
                        </g>
                    </g>
                </g>
            </g>
        </g>
    </g>
</svg>