<?xml version="1.0" encoding="UTF-8"?>
<svg width="89px" height="36px" viewBox="0 0 89 36" version="1.1" xmlns="http://www.w3.org/2000/svg" xmlns:xlink="http://www.w3.org/1999/xlink">
    <!-- Generator: Sketch 48.2 (47327) - http://www.bohemiancoding.com/sketch -->
    <title>mimc</title>
    <desc>Created with Sketch.</desc>
    <defs></defs>
    <g id="002---MC---Home---CLIENTES---Sonia" stroke="none" stroke-width="1" fill="none" fill-rule="evenodd" transform="translate(-133.000000, -1162.000000)">
        <g id="Group-7" transform="translate(0.000000, 885.000000)">
            <g id="Group-6" transform="translate(40.000000, 81.000000)">
                <g id="Links---Cards-x4" transform="translate(0.000000, 81.000000)">
                    <g id="desktop/components/card-sm/x4">
                        <g id="card-sm-x4">
                            <g id="img" transform="translate(0.000000, 58.000000)">
                                <g id="mimc" transform="translate(93.000000, 57.000000)">
                                    <g id="MC-miMC-isologo-big">
                                        <rect id="Rectangle-4" fill="#FE4A49" x="30.1694915" y="0" width="58.8305085" height="36"></rect>
                                        <path d="M40.7288136,26.766 L40.7288136,9.27 L45.1275254,9.27 L50.0692881,16.344 L55.0110508,9.27 L59.4097627,9.27 L59.4097627,26.766 L54.2507797,26.766 L54.2507797,18.072 L50.0692881,23.904 L45.8877966,18.126 L45.8877966,26.766 L40.7288136,26.766 Z M75.1310847,20.502 L78.4165424,24.093 C76.6063727,26.091 74.1897965,27.09 71.1668136,27.09 C68.4153561,27.09 66.1752713,26.2214999 64.4465593,24.4845 C62.7178473,22.7475001 61.8534915,20.5919999 61.8534915,18.018 C61.8534915,15.4619999 62.7178473,13.32 64.4465593,11.592 C66.1752713,9.864 68.4153561,9 71.1668136,9 C73.9363729,9 76.1719321,9.84599986 77.8734915,11.538 L74.4794237,15.021 C73.5743391,14.103 72.5425425,13.644 71.3840339,13.644 C70.2255253,13.644 69.2435086,14.0579999 68.4379831,14.886 C67.6324575,15.7140001 67.2296949,16.7579999 67.2296949,18.018 C67.2296949,19.314 67.6188812,20.3759999 68.3972542,21.204 C69.1756273,22.0320001 70.1712202,22.446 71.3840339,22.446 C72.9045763,22.446 74.1535932,21.798 75.1310847,20.502 Z" id="MC" fill="#FFFFFF"></path>
                                        <path d="M8.96033898,21.744 L2.79671186,13.32 L1.08610169,10.944 L1.08610169,26.496 L0,26.496 L0,9 L0.950338983,9 L8.96033898,19.962 L16.970339,9 L17.920678,9 L17.920678,26.496 L16.8345763,26.496 L16.8345763,10.944 L15.1239661,13.32 L8.96033898,21.744 Z M22.2650847,26.496 L22.2650847,9 L23.3511864,9 L23.3511864,26.496 L22.2650847,26.496 Z" id="MI" fill="#FE4A49"></path>
                                    </g>
                                </g>
                            </g>
                        </g>
                    </g>
                </g>
            </g>
        </g>
    </g>
</svg>