<?xml version="1.0" encoding="UTF-8" standalone="no"?>
<svg width="120px" height="41px" viewBox="0 0 120 41" version="1.1" xmlns="http://www.w3.org/2000/svg" xmlns:xlink="http://www.w3.org/1999/xlink">
    <!-- Generator: Sketch 48.2 (47327) - http://www.bohemiancoding.com/sketch -->
    <title>Play Store</title>
    <desc>Created with Sketch.</desc>
    <defs>
        <linearGradient x1="58.9170878%" y1="9.59026547%" x2="90.8103723%" y2="60.8514694%" id="linearGradient-1">
            <stop stop-color="#FF177B" offset="0%"></stop>
            <stop stop-color="#FFEC73" offset="100%"></stop>
        </linearGradient>
        <linearGradient x1="37.1029741%" y1="-44.0352456%" x2="0%" y2="101.060094%" id="linearGradient-2">
            <stop stop-color="#064AA2" offset="0%"></stop>
            <stop stop-color="#63FFD4" offset="100%"></stop>
        </linearGradient>
        <path d="M16.0639714,25.092 L5.24702582,14.678 C4.99466669,14.7375473 4.84340845,14.9292997 4.84340845,15.252 L4.84340845,25.092 L4.84340845,35.178 C4.84340845,35.4517871 4.95205996,35.6146837 5.08557888,35.67 L16.0639714,25.092 Z" id="path-3"></path>
        <path d="M5.52908628,35.5700509 L11.7812871,32.0811877 C13.3209076,31.214571 14.5427889,30.5267963 14.5427889,30.5267963 L19.0894859,28.0391278 L16.0625035,25.0513178 L5.08423907,35.6306341 C5.20660196,35.67061 5.42227019,35.6487591 5.59052588,35.5644028" id="path-5"></path>
        <linearGradient x1="78.6453125%" y1="50%" x2="2.49516972%" y2="100%" id="linearGradient-7">
            <stop stop-color="#FF4521" offset="0%"></stop>
            <stop stop-color="#8A33DB" offset="100%"></stop>
        </linearGradient>
        <linearGradient x1="0%" y1="-24.1863374%" x2="64.2244373%" y2="100%" id="linearGradient-8">
            <stop stop-color="#00A3B5" offset="0%"></stop>
            <stop stop-color="#D6FFA1" offset="100%"></stop>
        </linearGradient>
        <path d="M5.82785076,14.7979454 C5.61961542,14.6846561 5.4127176,14.6522481 5.24535106,14.6980517 L16.0712773,25.1272008 L19.0663348,22.248067 L14.5517154,19.7077515 C14.5517154,19.7077515 10.2965403,17.3129058 7.72724052,15.8668506 L5.82785076,14.7979454 Z" id="path-9"></path>
    </defs>
    <g id="001---MC---Home---No-Clientes" stroke="none" stroke-width="1" fill="none" fill-rule="evenodd" transform="translate(-656.000000, -3174.000000)">
        <g id="Section-5---MC-Go-Live" transform="translate(0.000000, 2928.000000)">
            <g id="Group-19">
                <g id="Section-5---MC-Go-Live">
                    <g id="CONTENT" transform="translate(656.000000, 154.000000)">
                        <g id="Group-9" transform="translate(0.000000, 92.000000)">
                            <g id="Play-Store">
                                <g id="icon" transform="translate(4.843408, 14.678000)">
                                    <g id="blue"></g>
                                    <g id="red" transform="translate(0.240831, 10.373318)"></g>
                                    <g id="green" transform="translate(0.401943, 0.000000)"></g>
                                </g>
                                <g id="Google-play" transform="translate(28.011046, 16.482000)"></g>
                                <g id="Group-2">
                                    <rect id="background" fill="#000000" x="0" y="0" width="119.228571" height="41" rx="5.66280031"></rect>
                                    <path d="M14.5181671,19.7077515 C14.5181671,19.7077515 6.29200962,15.0780061 5.8088746,14.8060044 C5.3249357,14.5340028 4.84340845,14.6990008 4.84340845,15.2675087 L4.84340845,25.1510513 L4.84340845,35.2355321 C4.84340845,35.6610962 5.18747133,35.8456979 5.6079033,35.6096364 C6.02753138,35.373575 14.5181671,30.5943512 14.5181671,30.5943512 C14.5181671,30.5943512 15.6716052,29.9455358 16.2483242,29.6211281 C17.1764783,29.0990362 19.0327865,28.0548525 19.0327865,28.0548525 C19.0327865,28.0548525 22.8632996,25.8984432 23.3729628,25.6125556 C23.8818221,25.3258512 23.8327851,24.9329599 23.4035104,24.7067003 C22.9734318,24.4812575 19.0327865,22.248067 19.0327865,22.248067 L14.5181671,19.7077515 Z" id="orange" fill="url(#linearGradient-1)"></path>
                                    <mask id="mask-4" fill="white">
                                        <use xlink:href="#path-3"></use>
                                    </mask>
                                    <use id="Clip-2" fill="url(#linearGradient-2)" xlink:href="#path-3"></use>
                                    <path d="M19.0507399,22.2115965 L14.5302254,19.6695965 C14.514394,19.706586 6.29144467,15.0683372 5.81209014,14.8315965 C5.32474791,14.5233348 4.84340845,14.6886358 4.84340845,15.2415965 L4.84340845,25.1635965 C4.84340845,25.1598835 4.84340845,34.8357222 4.84340845,35.2495965 C4.84340845,35.689232 5.18733715,35.8741727 5.56991972,35.6595965 C6.02706958,35.4011827 14.514394,30.6131809 14.5302254,30.5755965 L19.0507399,28.0335965 C19.0272527,28.069018 22.8562719,25.9086481 23.3290841,25.6555965 C23.8743973,25.3350044 23.8253794,24.9413915 23.4098075,24.7535965 C22.9663612,24.4888595 19.0272527,22.2515673 19.0507399,22.2115965" id="Fill-1" mask="url(#mask-4)"></path>
                                    <mask id="mask-6" fill="white">
                                        <use xlink:href="#path-5"></use>
                                    </mask>
                                    <g id="Clip-8"></g>
                                    <path d="M14.5288856,19.7109143 C14.5130542,19.7479038 6.29010487,15.109655 5.81075034,14.8729143 C5.3234081,14.5646526 4.84206864,14.7299536 4.84206864,15.2829143 L4.84206864,25.2049143 C4.84206864,25.2012013 4.84206864,34.87704 4.84206864,35.2909143 C4.84206864,35.7305498 5.18599734,35.9154906 5.56857991,35.7009143 C6.02572977,35.4425005 14.5130542,30.6544988 14.5288856,30.6169143 L19.0494001,28.0749143 C19.0259129,28.1103358 22.8549321,25.9499659 23.3277442,25.6969143 C23.8730574,25.3763222 23.8240396,24.9827093 23.4084677,24.7949143 C22.9650214,24.5301773 19.0259129,22.2928851 19.0494001,22.2529143 L14.5288856,19.7109143 Z" id="Fill-7" fill="url(#linearGradient-7)" mask="url(#mask-6)"></path>
                                    <mask id="mask-10" fill="white">
                                        <use xlink:href="#path-9"></use>
                                    </mask>
                                    <use id="Clip-5" fill="url(#linearGradient-8)" xlink:href="#path-9"></use>
                                    <path d="M19.0490652,22.2115965 L14.5285506,19.6695965 C14.5127192,19.706586 6.28976991,15.0683372 5.81041538,14.8315965 C5.32307315,14.5233348 4.84173369,14.6886358 4.84173369,15.2415965 L4.84173369,25.1635965 C4.84173369,25.1598835 4.84173369,34.8357222 4.84173369,35.2495965 C4.84173369,35.689232 5.18566238,35.8741727 5.56824496,35.6595965 C6.02539482,35.4011827 14.5127192,30.6131809 14.5285506,30.5755965 L19.0490652,28.0335965 C19.0255779,28.069018 22.8545971,25.9086481 23.3274093,25.6555965 C23.8727225,25.3350044 23.8237046,24.9413915 23.4081328,24.7535965 C22.9646865,24.4888595 19.0255779,22.2515673 19.0490652,22.2115965" id="Fill-4" mask="url(#mask-10)"></path>
                                    <path d="M81.6610992,28.6073237 L80.7671919,29.4691902 C80.5606073,29.5851998 80.3551305,29.7198842 80.1502075,29.8155214 C79.5293462,30.1035647 78.8979619,30.176 78.3369159,30.176 C77.73987,30.176 76.8038704,30.136387 75.8490401,29.430709 C74.5225791,28.4760348 73.9427024,26.8349232 73.9427024,25.4048925 C73.9427024,22.4441008 76.3015322,20.992 78.2255929,20.992 C78.8979619,20.992 79.5886077,21.1640338 80.1502075,21.526776 C81.0839917,22.1577551 81.3254685,22.977745 81.4594993,23.4168838 L77.0658396,25.2305951 L75.6269478,25.344907 C76.0927323,27.7726204 77.6999931,29.1845422 79.476177,29.1845422 C80.3634382,29.1845422 81.021961,28.8885763 81.6262069,28.5835559 C81.6262069,28.5835559 81.7474991,28.5190432 81.6610992,28.6073237 L81.6610992,28.6073237 Z M78.9765776,23.7371579 C79.3291952,23.6038462 79.5126221,23.4887652 79.5126221,23.2210023 C79.5126221,22.4530357 78.6776191,21.566 77.681091,21.566 C76.9430031,21.566 75.5571719,22.1641936 75.5571719,24.2413497 C75.5571719,24.5655137 75.5944048,24.9107568 75.6130213,25.256 L78.9765776,23.7371579 L78.9765776,23.7371579 Z" id="Fill-1" fill="#FFFFFF"></path>
                                    <path d="M72.4917884,28.5034575 C72.4917884,29.2435434 72.6209641,29.3587056 73.2331684,29.4168511 C73.5522433,29.4552385 73.8702142,29.4721741 74.1848728,29.5105615 L73.495936,29.93 L70.2129973,29.93 C70.6435829,29.3587056 70.7175553,29.301689 70.7175553,28.9212024 L70.7175553,28.4961187 L70.7103788,17.1695856 L69.2607409,17.1695856 L70.6562796,16.482 L73.3203896,16.482 C72.7429633,16.8240992 72.5701771,17.0324072 72.4962047,17.6991055 L72.4917884,28.5034575" id="Fill-2" fill="#FFFFFF"></path>
                                    <path d="M67.3983788,21.9266163 C67.825503,22.2861643 68.7166769,23.0492867 68.7166769,24.4965098 C68.7166769,25.9070444 67.9401376,26.5719543 67.1569848,27.2013044 C66.916693,27.4490934 66.6356177,27.7177667 66.6356177,28.1331942 C66.6356177,28.5548306 66.916693,28.7834286 67.1189569,28.9538894 L67.7907819,29.4850271 C68.6075536,30.191141 69.3521275,30.8385532 69.3521275,32.1536975 C69.3521275,33.9452288 67.6590624,35.752 64.4597645,35.752 C61.7647487,35.752 60.4618822,34.4374202 60.4618822,33.0280145 C60.4618822,32.3422203 60.7953146,31.3708198 61.895366,30.7053455 C63.0483258,29.9834272 64.6102224,29.8869081 65.4468347,29.8304641 C65.1856,29.4850271 64.8874398,29.1232213 64.8874398,28.5328175 C64.8874398,28.209958 64.9822338,28.0174841 65.0737211,27.7905794 C64.8703548,27.8103348 64.6653352,27.8306546 64.479054,27.8306546 C62.506567,27.8306546 61.3916351,26.3236008 61.3916351,24.8385602 C61.3916351,23.96255 61.7818337,22.990585 62.5831738,22.2861643 C63.643544,21.392092 64.9078315,21.238 65.9125378,21.238 L69.7450817,21.238 L68.5535431,21.9266163 L67.3983788,21.9266163 L67.3983788,21.9266163 Z M66.0899314,30.3606865 C65.9360331,30.34 65.8438052,30.34 65.6582382,30.34 C65.4882278,30.34 64.4753878,30.3779253 63.6908952,30.6502975 C63.2758698,30.8071701 62.0763517,31.2708925 62.0763517,32.6482687 C62.0763517,34.0227718 63.3714312,35.014 65.3748875,35.014 C67.174998,35.014 68.1306122,34.1216073 68.1306122,32.9200664 C68.1306122,31.9311367 67.5122409,31.4093772 66.0899314,30.3606865 L66.0899314,30.3606865 Z M66.6158535,26.6922533 C67.043891,26.2539139 67.0812071,25.6484541 67.0812071,25.3046475 C67.0812071,23.9389869 66.2871427,21.812 64.7478542,21.812 C64.267684,21.812 63.7474538,22.0590231 63.4522177,22.441093 C63.1388723,22.8366675 63.0450334,23.3498453 63.0450334,23.8433288 C63.0450334,25.1150193 63.7683069,27.224 65.3591795,27.224 C65.8234355,27.224 66.3228125,26.9927324 66.6158535,26.6922533 L66.6158535,26.6922533 Z" id="Fill-3" fill="#FFFFFF"></path>
                                    <path d="M55.8071135,30.176 C52.8445312,30.176 51.2594061,27.8019937 51.2594061,25.6524864 C51.2594061,23.1409389 53.2521348,20.992 56.0865815,20.992 C58.8265835,20.992 60.5426057,23.1994792 60.5426057,25.5172186 C60.5426057,27.7809647 58.8464666,30.176 55.8071135,30.176 L55.8071135,30.176 Z M58.124005,28.6233624 C58.5762338,28.0077953 58.6859658,27.2394764 58.6859658,26.4905365 C58.6859658,24.7965871 57.9012158,21.566 55.5818806,21.566 C54.9650538,21.566 54.3437934,21.8139367 53.8959982,22.2186151 C53.16556,22.8917491 53.0353226,23.7375838 53.0353226,24.5674594 C53.0353226,26.4677377 53.9486474,29.602 56.2153334,29.602 C56.94688,29.602 57.69339,29.2377895 58.124005,28.6233624 L58.124005,28.6233624 Z" id="Fill-4" fill="#FFFFFF"></path>
                                    <path d="M45.8778108,30.176 C42.9134416,30.176 41.3304188,27.8019937 41.3304188,25.6524864 C41.3304188,23.1409389 43.3245303,20.992 46.1590529,20.992 C48.8985388,20.992 50.6136183,23.1994792 50.6136183,25.5172186 C50.6136183,27.7809647 48.9189827,30.176 45.8778108,30.176 L45.8778108,30.176 Z M48.1958509,28.6233624 C48.6449747,28.0077953 48.7569784,27.2394764 48.7569784,26.4905365 C48.7569784,24.7965871 47.9696255,21.566 45.6513703,21.566 C45.032023,21.566 44.4171115,21.8139367 43.9679876,22.2186151 C43.2360821,22.8917491 43.1063352,23.7375838 43.1063352,24.5674594 C43.1063352,26.4677377 44.0239895,29.602 46.2879063,29.602 C47.0181484,29.602 47.7639157,29.2377895 48.1958509,28.6233624 L48.1958509,28.6233624 Z" id="Fill-5" fill="#FFFFFF"></path>
                                    <path d="M40.1014027,29.6085935 L37.5920309,30.19608 C36.5753027,30.3599637 35.6622997,30.504 34.6954927,30.504 C29.8553561,30.504 28.0110456,26.8616974 28.0110456,24.0110272 C28.0110456,20.529773 30.6241424,17.302 35.0992996,17.302 C36.0461382,17.302 36.9569225,17.444335 37.7867236,17.6757004 C39.1018696,18.0533702 39.7170095,18.5189362 40.1014027,18.7916978 L38.643704,20.2071091 L38.0291187,20.347743 L38.4673158,19.6337995 C37.8738083,19.0412094 36.782753,17.9473278 34.7121331,17.9473278 C31.9437258,17.9473278 29.8553561,20.0987984 29.8553561,23.2398095 C29.8553561,26.61332 32.2399249,29.7866541 36.0644426,29.7866541 C37.188224,29.7866541 37.7667551,29.5558558 38.2920369,29.3403685 L38.2920369,26.448302 L35.6423312,26.5940395 L37.0467806,25.8228218 L40.7653545,25.8228218 L40.310517,26.2702415 C40.1879327,26.376851 40.1712923,26.4131436 40.1369022,26.5560457 C40.1185978,26.7193624 40.1014027,27.2388002 40.1014027,27.4213974 L40.1014027,29.6085935" id="Fill-6" fill="#FFFFFF"></path>
                                    <path d="M87.0766065,28.6950614 L87.0766065,33.538 L86.131947,33.538 L86.131947,21.2145667 L87.0766065,21.2145667 L87.0766065,22.6181455 C87.691991,21.7109749 88.8165065,20.992 90.1225383,20.992 C92.4650946,20.992 94.0428475,22.80127 94.0428475,25.6653371 C94.0428475,28.5102466 92.4650946,30.3572684 90.1225383,30.3572684 C88.8895557,30.3572684 87.7849627,29.7098529 87.0766065,28.6950614 L87.0766065,28.6950614 Z M93.0741658,25.7391743 C93.0741658,23.5577938 91.9648898,21.894 89.9979664,21.894 C88.7764852,21.894 87.6083293,22.8779273 87.1006287,23.7360167 L87.1006287,27.7224027 C87.6083293,28.5822003 88.7764852,29.602 89.9979664,29.602 C91.9648898,29.602 93.0741658,27.9239712 93.0741658,25.7391743 L93.0741658,25.7391743 Z" id="Fill-7" fill="#FFFFFF"></path>
                                    <polygon id="Fill-8" fill="#FFFFFF" points="95.3344231 17.794 96.3031047 17.794 96.3031047 30.176 95.3344231 30.176"></polygon>
                                    <path d="M106.834553,32.6852899 C107.03656,32.7771545 107.381354,32.8335131 107.599964,32.8335131 C108.177757,32.8335131 108.580109,32.5928617 108.941507,31.7429732 L109.630542,30.1530955 L105.909198,21.156 L106.962952,21.156 L110.155205,28.9526562 L113.316466,21.156 L114.385163,21.156 L109.846385,32.0411105 C109.375406,33.1626477 108.634347,33.702 107.616567,33.702 C107.311067,33.702 106.908161,33.6467685 106.672395,33.5729387 L106.834553,32.6852899" id="Fill-9" fill="#FFFFFF"></path>
                                    <path d="M104.168598,30.163783 C104.105147,29.8527118 104.05728,29.5784706 104.022215,29.3495585 C103.993272,29.121213 103.976575,28.887768 103.976575,28.6503566 C103.65097,29.1370782 103.189557,29.5422073 102.600128,29.8612111 C102.010143,30.1824813 101.449657,30.34 100.681007,30.34 C99.7553978,30.34 99.0368404,30.1082548 98.5242212,29.6379651 C98.0132718,29.168242 97.7561273,28.5319343 97.7561273,27.7267756 C97.7561273,26.9227502 98.1284859,26.2700107 98.8709766,25.7708236 C99.6134674,25.2693701 100.573028,25.0200599 101.760791,25.0200599 L103.976575,25.0200599 L103.976575,23.9055299 C103.976575,23.2635561 103.761731,22.7587029 103.3326,22.3926701 C102.9018,22.0260708 102.297343,21.840788 101.513665,21.840788 C100.797334,21.840788 100.216254,22.0102056 99.7737653,22.339975 C99.3351725,22.6765438 99.1142064,23.0935718 99.1142064,23.5961586 L98.141844,23.5961586 L98.1218068,23.5479964 C98.0867416,22.8703259 98.3911962,22.2759476 99.0385102,21.7625952 C99.6830411,21.2498094 100.527388,20.992 101.566541,20.992 C102.602355,20.992 103.440579,21.2458431 104.072308,21.7523962 C104.703481,22.2538497 105.020181,22.9785492 105.020181,23.925928 L105.020181,28.3511844 C105.020181,28.6690549 105.035209,28.9761598 105.07417,29.275332 C105.114244,29.5750709 105.178252,29.8742432 105.26341,30.163783 L104.168598,30.163783 L104.168598,30.163783 Z M100.79531,29.52 C101.601675,29.52 102.181147,29.3354715 102.773408,28.9704013 C103.361777,28.6076092 103.76218,28.1343278 103.971835,27.5613783 L103.971835,25.83 L101.747377,25.83 C100.897635,25.83 100.19415,26.0225019 99.6408162,26.410923 C99.0863702,26.798205 98.8055324,27.2669301 98.8055324,27.8119725 C98.8055324,28.3262602 98.983489,28.7374626 99.3371778,29.0489968 C99.6919787,29.3639481 100.17691,29.52 100.79531,29.52 L100.79531,29.52 Z" id="Fill-10" fill="#FFFFFF"></path>
                                    <path d="M28.091769,6.49910059 L30.3287316,6.49910059 C32.086635,6.49910059 33.1218899,7.56309863 33.1218899,9.45190137 C33.1218899,11.3407041 32.086635,12.4500664 30.3287316,12.4500664 L28.091769,12.4500664 L28.091769,6.49910059 Z M29.3178356,7.52598242 L29.3178356,11.4190605 L30.182578,11.4190605 C31.2787302,11.4190605 31.8714644,10.7427207 31.8714644,9.45602539 C31.8714644,8.21057031 31.2624909,7.52598242 30.182578,7.52598242 L29.3178356,7.52598242 Z M35.7143495,12.4500664 L35.7143495,6.49910059 L34.4882829,6.49910059 L34.4882829,12.4500664 L35.7143495,12.4500664 Z M37.048264,10.7550928 C37.0848024,11.8727031 37.9820233,12.553167 39.3907819,12.553167 C40.8441986,12.553167 41.7657785,11.8232148 41.7657785,10.6684883 C41.7657785,9.76120312 41.2542408,9.24982422 40.0809519,8.99413477 L39.3704828,8.8415459 C38.6965522,8.68483301 38.4123645,8.47863184 38.4123645,8.11159375 C38.4123645,7.67032324 38.8183469,7.37751758 39.4232605,7.37751758 C40.0362938,7.37751758 40.4706949,7.68269531 40.5112931,8.18582617 L41.6602231,8.18582617 C41.639924,7.10945605 40.7833013,6.396 39.4192007,6.396 C38.1119376,6.396 37.1781783,7.12182812 37.1781783,8.21881836 C37.1781783,9.0889873 37.7100151,9.64573047 38.7899281,9.8807998 L39.5531749,10.0498848 C40.2595841,10.2107217 40.5397119,10.4251709 40.5397119,10.8128291 C40.5397119,11.2499756 40.0931313,11.5675254 39.4394998,11.5675254 C38.7899281,11.5675254 38.28651,11.2458516 38.2296725,10.7550928 L37.048264,10.7550928 Z M43.0956331,6.49910059 L45.4787493,6.49910059 C46.6804569,6.49910059 47.5086609,7.3115332 47.5086609,8.53636816 C47.5086609,9.7570791 46.6520382,10.5736357 45.4178519,10.5736357 L44.3216997,10.5736357 L44.3216997,12.4500664 L43.0956331,12.4500664 L43.0956331,6.49910059 Z M44.3216997,7.48474219 L44.3216997,9.60036621 L45.1499036,9.60036621 C45.852253,9.60036621 46.2622952,9.22095605 46.2622952,8.54049219 C46.2622952,7.86415234 45.8563128,7.48474219 45.1539634,7.48474219 L44.3216997,7.48474219 Z M51.4530416,6.396 C53.1865861,6.396 54.2786785,7.57959473 54.2786785,9.47664551 C54.2786785,11.3695723 53.1865861,12.553167 51.4530416,12.553167 C49.7154373,12.553167 48.6274047,11.3695723 48.6274047,9.47664551 C48.6274047,7.57959473 49.7154373,6.396 51.4530416,6.396 Z M51.4530416,7.43525391 C50.4949233,7.43525391 49.8778302,8.22706641 49.8778302,9.47664551 C49.8778302,10.7221006 50.4908635,11.5097891 51.4530416,11.5097891 C52.4111599,11.5097891 53.0241932,10.7221006 53.0241932,9.47664551 C53.0241932,8.22706641 52.4111599,7.43525391 51.4530416,7.43525391 Z M56.8183604,12.4500664 L56.8183604,8.55286426 L56.8548988,8.55286426 L59.5952795,12.4500664 L60.6102353,12.4500664 L60.6102353,6.49910059 L59.4369464,6.49910059 L59.4369464,10.3756826 L59.4044678,10.3756826 L56.668147,6.49910059 L55.6450715,6.49910059 L55.6450715,12.4500664 L56.8183604,12.4500664 Z M63.3894467,12.4500664 L63.3894467,6.49910059 L62.1633801,6.49910059 L62.1633801,12.4500664 L63.3894467,12.4500664 Z M67.5368186,12.4500664 L64.9425916,12.4500664 L64.9425916,6.49910059 L67.4921606,6.49910059 C68.5923726,6.49910059 69.2825426,7.07233984 69.2825426,7.98374902 C69.2825426,8.63534473 68.8034834,9.17971582 68.1823305,9.27456836 L68.1823305,9.30756055 C68.9780558,9.3694209 69.5626704,9.95915625 69.5626704,10.7468447 C69.5626704,11.7943467 68.7872441,12.4500664 67.5368186,12.4500664 Z M66.1686582,7.42700586 L66.1686582,8.97351465 L67.0496398,8.97351465 C67.7032714,8.97351465 68.0767751,8.68070898 68.0767751,8.17757812 C68.0767751,7.69919141 67.7479294,7.42700586 67.1754943,7.42700586 L66.1686582,7.42700586 Z M66.1686582,11.5221611 L67.2242122,11.5221611 C67.9306215,11.5221611 68.3122448,11.2169834 68.3122448,10.6478682 C68.3122448,10.091125 67.918442,9.79419531 67.1957935,9.79419531 L66.1686582,9.79419531 L66.1686582,11.5221611 Z M74.6275623,11.4190605 L72.0658139,11.4190605 L72.0658139,6.49910059 L70.8397473,6.49910059 L70.8397473,12.4500664 L74.6275623,12.4500664 L74.6275623,11.4190605 Z M79.8142489,11.4190605 L77.1591245,11.4190605 L77.1591245,9.91791602 L79.6640354,9.91791602 L79.6640354,8.96114258 L77.1591245,8.96114258 L77.1591245,7.52598242 L79.8142489,7.52598242 L79.8142489,6.49910059 L75.9330579,6.49910059 L75.9330579,12.4500664 L79.8142489,12.4500664 L79.8142489,11.4190605 Z M87.3822843,11.4190605 L84.72716,11.4190605 L84.72716,9.91791602 L87.2320709,9.91791602 L87.2320709,8.96114258 L84.72716,8.96114258 L84.72716,7.52598242 L87.3822843,7.52598242 L87.3822843,6.49910059 L83.5010934,6.49910059 L83.5010934,12.4500664 L87.3822843,12.4500664 L87.3822843,11.4190605 Z M90.019402,12.4500664 L90.019402,8.55286426 L90.0559404,8.55286426 L92.796321,12.4500664 L93.8112768,12.4500664 L93.8112768,6.49910059 L92.6379879,6.49910059 L92.6379879,10.3756826 L92.6055093,10.3756826 L89.8691885,6.49910059 L88.8461131,6.49910059 L88.8461131,12.4500664 L90.019402,12.4500664 Z" id="DISPONIBLE-EN" fill="#FFFFFF"></path>
                                </g>
                            </g>
                        </g>
                    </g>
                </g>
            </g>
        </g>
    </g>
</svg>