<?xml version="1.0" encoding="UTF-8"?>
<svg width="174px" height="66px" viewBox="0 0 174 66" version="1.1" xmlns="http://www.w3.org/2000/svg" xmlns:xlink="http://www.w3.org/1999/xlink">
    <!-- Generator: Sketch 48.2 (47327) - http://www.bohemiancoding.com/sketch -->
    <title>programm</title>
    <desc>Created with Sketch.</desc>
    <defs>
        <rect id="path-1" x="42" y="0" width="91" height="66" rx="5"></rect>
        <polygon id="path-2" points="0 0 27 0 27 32 0 32"></polygon>
    </defs>
    <g id="001---MC---Home---No-Clientes" stroke="none" stroke-width="1" fill="none" fill-rule="evenodd" transform="translate(-92.000000, -896.000000)">
        <g id="Section-1---porque-MC---features" transform="translate(0.000000, 615.000000)">
            <g id="Section-Featuresx4">
                <g id="Group-18" transform="translate(40.000000, 157.000000)">
                    <g id="bullets" transform="translate(0.000000, 124.000000)">
                        <g id="Bullet-1">
                            <g id="programm" transform="translate(52.000000, 0.000000)">
                                <g id="Illustration-icon/programacion">
                                    <path d="M7.6916556,8.4 C5.31359161,8.4 4.3034443,8.59506844 3.25810243,9.15412339 C2.35003204,9.63976475 1.63976475,10.350032 1.15412339,11.2581024 C0.595068444,12.3034443 0.4,13.3135916 0.4,15.6916556 L0.4,51.3083444 C0.4,53.6864084 0.595068444,54.6965557 1.15412339,55.7418976 C1.63976475,56.649968 2.35003204,57.3602353 3.25810243,57.8458766 C4.3034443,58.4049316 5.31359161,58.6 7.6916556,58.6 L64.1628899,58.6 C66.5409538,58.6 67.5511012,58.4049316 68.596443,57.8458766 C69.5045134,57.3602353 70.2147807,56.649968 70.7004221,55.7418976 C71.259477,54.6965557 71.4545455,53.6864084 71.4545455,51.3083444 L71.4545455,15.6916556 C71.4545455,13.3135916 71.259477,12.3034443 70.7004221,11.2581024 C70.2147807,10.350032 69.5045134,9.63976475 68.596443,9.15412339 C67.5511012,8.59506844 66.5409538,8.4 64.1628899,8.4 L7.6916556,8.4 Z M109.83711,8.4 C107.459046,8.4 106.448899,8.59506844 105.403557,9.15412339 C104.495487,9.63976475 103.785219,10.350032 103.299578,11.2581024 C102.740523,12.3034443 102.545455,13.3135916 102.545455,15.6916556 L102.545455,51.3083444 C102.545455,53.6864084 102.740523,54.6965557 103.299578,55.7418976 C103.785219,56.649968 104.495487,57.3602353 105.403557,57.8458766 C106.448899,58.4049316 107.459046,58.6 109.83711,58.6 L166.308344,58.6 C168.686408,58.6 169.696556,58.4049316 170.741898,57.8458766 C171.649968,57.3602353 172.360235,56.649968 172.845877,55.7418976 C173.404932,54.6965557 173.6,53.6864084 173.6,51.3083444 L173.6,15.6916556 C173.6,13.3135916 173.404932,12.3034443 172.845877,11.2581024 C172.360235,10.350032 171.649968,9.63976475 170.741898,9.15412339 C169.696556,8.59506844 168.686408,8.4 166.308344,8.4 L109.83711,8.4 Z" id="sm-cards-face" stroke="#0F1D2B" stroke-width="0.8" opacity="0.687613225"></path>
                                    <g id="smile-face-grey" transform="translate(26.000000, 24.000000)" stroke="#91A3B0" stroke-width="1.4">
                                        <g id="Group-3">
                                            <g id="Group-12">
                                                <path d="M0.80468282,14.3461487 C2.83164917,17.7195531 6.70562304,20 11.1515152,20 C15.5910248,20 19.4602572,17.7260959 21.4896065,14.3606702" id="Oval-4"></path>
                                                <path d="M7.50845273,2.71112048 C7.0377693,1.14339904 5.5704951,0 3.83333333,0 C2.05908562,0 0.566371909,1.19274007 0.129438358,2.81209956" id="Oval-3"></path>
                                                <path d="M11.8480696,4.98144336 C13.3499463,7.39787923 14.0074431,9.17131426 13.8205598,10.3017485 C13.6336765,11.4321826 12.6573585,11.9535964 10.8916058,11.8659898" id="Path-4"></path>
                                                <path d="M22.8417861,2.71112048 C22.3711026,1.14339904 20.9038284,0 19.1666667,0 C17.392419,0 15.8997052,1.19274007 15.4627717,2.81209956" id="Oval-3-Copy"></path>
                                            </g>
                                        </g>
                                    </g>
                                    <g id="smile-face-grey" transform="translate(125.000000, 24.000000)" stroke="#91A3B0" stroke-width="1.4">
                                        <g id="Group-3">
                                            <g id="Group-12">
                                                <path d="M0.80468282,14.3461487 C2.83164917,17.7195531 6.70562304,20 11.1515152,20 C15.5910248,20 19.4602572,17.7260959 21.4896065,14.3606702" id="Oval-4"></path>
                                                <path d="M7.50845273,2.71112048 C7.0377693,1.14339904 5.5704951,0 3.83333333,0 C2.05908562,0 0.566371909,1.19274007 0.129438358,2.81209956" id="Oval-3"></path>
                                                <path d="M11.8480696,4.98144336 C13.3499463,7.39787923 14.0074431,9.17131426 13.8205598,10.3017485 C13.6336765,11.4321826 12.6573585,11.9535964 10.8916058,11.8659898" id="Path-4"></path>
                                                <path d="M22.8417861,2.71112048 C22.3711026,1.14339904 20.9038284,0 19.1666667,0 C17.392419,0 15.8997052,1.19274007 15.4627717,2.81209956" id="Oval-3-Copy"></path>
                                            </g>
                                        </g>
                                    </g>
                                    <g id="card-face">
                                        <use fill="#FFFFFF" fill-rule="evenodd" xlink:href="#path-1"></use>
                                        <rect stroke="#0F1D2B" stroke-width="1.4" x="42.7" y="0.7" width="89.6" height="64.6" rx="5"></rect>
                                    </g>
                                    <g id="smile-face-red" transform="translate(71.000000, 19.000000)" stroke="#FE4A49" stroke-width="1.4">
                                        <g id="Group-3">
                                            <g id="Group-12">
                                                <path d="M1.15454492,20.8019156 C4.06280098,25.693352 9.62111132,29 16,29 C22.3697313,29 27.9212386,25.702839 30.8329136,20.8229719" id="Oval-4"></path>
                                                <path d="M10.7729974,3.93112469 C10.097669,1.65792861 7.99244949,0 5.5,0 C2.95434024,0 0.812620566,1.7294731 0.185715905,4.07754436" id="Oval-3"></path>
                                                <path d="M16.9994042,7.22309287 C19.1542708,10.7269249 20.0976357,13.2984057 19.8294988,14.9375353 C19.5613619,16.5766648 18.1605579,17.3327148 15.6270866,17.2056852" id="Path-4"></path>
                                                <path d="M32.7729974,3.93112469 C32.097669,1.65792861 29.9924495,0 27.5,0 C24.9543402,0 22.8126206,1.7294731 22.1857159,4.07754436" id="Oval-3-Copy"></path>
                                            </g>
                                        </g>
                                    </g>
                                    <g id="Page-1" transform="translate(104.000000, 18.000000)">
                                        <mask id="mask-3" fill="white">
                                            <use xlink:href="#path-2"></use>
                                        </mask>
                                        <g id="Clip-2"></g>
                                    </g>
                                </g>
                            </g>
                        </g>
                    </g>
                </g>
            </g>
        </g>
    </g>
</svg>