<?xml version="1.0" encoding="UTF-8"?>
<svg width="76px" height="69px" viewBox="0 0 76 69" version="1.1" xmlns="http://www.w3.org/2000/svg" xmlns:xlink="http://www.w3.org/1999/xlink">
    <!-- Generator: Sketch 48.2 (47327) - http://www.bohemiancoding.com/sketch -->
    <title>woman</title>
    <desc>Created with Sketch.</desc>
    <defs></defs>
    <g id="002---MC---Home---CLIENTES---Sonia" stroke="none" stroke-width="1" fill="none" fill-rule="evenodd" transform="translate(-756.000000, -1144.000000)">
        <g id="Group-7" transform="translate(0.000000, 885.000000)">
            <g id="Group-6" transform="translate(40.000000, 81.000000)">
                <g id="Links---Cards-x4" transform="translate(0.000000, 81.000000)">
                    <g id="desktop/components/card-sm/x4-copy-2" transform="translate(616.000000, 0.000000)">
                        <g id="card-sm-x4">
                            <g id="img" transform="translate(0.000000, 58.000000)">
                                <g id="woman" transform="translate(101.000000, 40.000000)">
                                    <g id="Illustration-icon/faqs">
                                        <g id="girl" transform="translate(0.000000, 10.800000)">
                                            <path d="M5.73565495,40.8 C7.09886845,37.1299086 4.77419355,28.4250195 4.77419355,23.6842233 C4.77419355,5.66574386 10.5759951,-0.352896424 21.885442,0.015831931 C32.7393404,0.369707781 38.1935484,6.2112526 38.1935484,22.5341908 C38.1935484,27.6902844 36.6830393,33.4551145 38.1935484,40.8" id="Path-7" stroke="#0F1D2B" stroke-width="1.4" stroke-linecap="round"></path>
                                            <path d="M21.2072898,37.2 C27.1365487,37.2 32.2258065,31.1984064 32.2258065,23.1924555 C32.2258065,17.7668636 28.3283771,11.736071 27.1227548,7.92865992 C26.4044875,5.66033868 25.3346559,9.39073759 23.4311805,9.62769397 C11.6536464,11.0938342 10.7419355,15.1865046 10.7419355,23.1924555 C10.7419355,31.1984064 15.2780309,37.2 21.2072898,37.2 Z" id="Oval-3" stroke="#0F1D2B" stroke-width="1.4"></path>
                                            <path d="M15.6793229,39.6 L15.6793229,43.8115237 C8.75786836,44.5815507 4.47169704,45.5661151 2.82080891,46.7652166 C1.16992078,47.9643182 0.229651139,50.7759126 0,55.2 L41.7741935,55.2 C41.3661067,50.4364802 40.3966286,47.489921 38.8657594,46.3603222 C37.3348901,45.2307234 33.2850215,44.5153983 26.7161536,44.214347 L26.7161536,39.6 L15.6793229,39.6 Z" id="Path-6" fill="#FE4A49"></path>
                                            <path d="M26.376026,39.6 L26.376026,44.1438813 C32.9891818,44.4548395 37.1702963,45.2382492 38.9193695,46.4941104 C40.6684428,47.7499716 41.6200508,50.6519348 41.7741935,55.2 M0,55.2 C0.15414275,50.6519348 1.10575075,47.7499716 2.85482401,46.4941104 C4.60389727,45.2382492 8.7850118,44.4548395 15.3981676,44.1438813 L15.3981676,39.6" id="Combined-Shape" stroke="#0F1D2B" stroke-width="1.4" stroke-linecap="round" stroke-linejoin="round"></path>
                                            <path d="M25.376026,38.6 L25.376026,45.1438813 C31.9891818,45.4548395 36.1702963,46.2382492 37.9193695,47.4941104 C39.6684428,48.7499716 40.6200508,51.6519348 40.7741935,56.2 M1,56.2 C1.15414275,51.6519348 2.10575075,48.7499716 3.85482401,47.4941104 C5.60389727,46.2382492 9.7850118,45.4548395 16.3981676,45.1438813 L16.3981676,39.6 L16.3981676,40.6" id="Combined-Shape-Copy" stroke="#F8F8F8" stroke-width="1.4" stroke-linecap="round" stroke-linejoin="round"></path>
                                        </g>
                                        <g id="Group-3" transform="translate(38.193548, 0.000000)">
                                            <path d="M6.58495275,35.4824141 C9.52003461,37.3311868 12.9907097,38.4 16.7096774,38.4 C27.2565346,38.4 35.8064516,29.8038672 35.8064516,19.2 C35.8064516,8.5961328 27.2565346,0 16.7096774,0 C9.66172951,0 3.505534,3.83868397 0.196589454,9.54998308" id="Oval-5" stroke="#0F1D2B" stroke-width="1.4" stroke-linecap="round" stroke-linejoin="round"></path>
                                            <ellipse id="Oval-6" fill="#0F1D2B" cx="17.3064516" cy="27.6" rx="1.19354839" ry="1.2"></ellipse>
                                            <path d="M11.5459328,13.9503175 C12.0514334,11.5976129 13.726042,10.4212607 16.5697587,10.4212607 C20.8353337,10.4212607 22.7022643,12.9061095 21.5828234,15.6628297 C20.4633824,18.4195499 18.6181326,19.0155676 17.6450511,20.3537205 C17.131941,21.0593344 16.9732823,22.3602481 17.1690749,24.2564618" id="Path-4" stroke="#0F1D2B" stroke-width="1.4" stroke-linecap="round"></path>
                                        </g>
                                    </g>
                                </g>
                            </g>
                        </g>
                    </g>
                </g>
            </g>
        </g>
    </g>
</svg>