<?xml version="1.0" encoding="UTF-8"?>
<svg width="118px" height="39px" viewBox="0 0 118 39" version="1.1" xmlns="http://www.w3.org/2000/svg" xmlns:xlink="http://www.w3.org/1999/xlink">
    <!-- Generator: Sketch 48.2 (47327) - http://www.bohemiancoding.com/sketch -->
    <title>logo</title>
    <desc>Created with Sketch.</desc>
    <defs></defs>
    <g id="navbar/no-clientes" stroke="none" stroke-width="1" fill="none" fill-rule="evenodd" transform="translate(-40.000000, -53.000000)">
        <g id="main-navbar">
            <g transform="translate(0.000000, 35.000000)">
                <g id="logo" transform="translate(40.000000, 18.000000)">
                    <g id="logoMC-positivo-sm">
                        <path d="M10.4652766,23.8873886 L9.3922486,27.7160743 C8.97208037,29.2259314 8.5078,31.24836 8.10858505,32.9899886 L8.04572523,32.9899886 C7.74796822,31.24836 7.3289028,29.3362457 6.92748224,27.7573029 L6.0011271,23.8873886 L0.886323364,23.8873886 L-0.000330841121,38.2249029 L3.49555701,38.2249029 L3.7293514,33.0780171 C3.79221121,31.4611886 3.85617383,29.3362457 3.9366785,27.3115886 L3.98189346,27.3115886 C4.3182486,29.26716 4.74172523,31.3976743 5.11998692,32.9264743 L6.29998692,37.9273886 L9.26542617,37.9273886 L10.6781178,32.9264743 C11.1412953,31.3531029 11.7290897,29.2058743 12.171314,27.3115886 L12.2352766,27.3115886 C12.2352766,29.5457314 12.2540243,31.4611886 12.3201925,33.0780171 L12.4867159,38.2249029 L16.1711832,38.2249029 L15.4554636,23.8873886 L10.4652766,23.8873886 Z" id="Fill-1" fill="#231F20"></path>
                        <path d="M23.9197028,36.9487114 C21.0127121,36.9487114 19.3706374,34.20534 19.3706374,31.1209971 C19.3706374,27.9920829 20.8869925,25.14174 23.9384505,25.14174 C26.9932168,25.14174 28.4665626,28.1202257 28.4665626,30.9906257 C28.4665626,34.2476829 26.8244879,36.9487114 23.9197028,36.9487114 M24.0035159,23.6318829 C20.2131794,23.6318829 17.4352168,26.6103686 17.4352168,31.16334 C17.4352168,35.5023686 20.0444505,38.4607971 23.8127308,38.4607971 C27.4332355,38.4607971 30.403086,35.8221686 30.403086,30.9092829 C30.403086,26.63154 27.8986187,23.6318829 24.0035159,23.6318829" id="Fill-4" fill="#231F20"></path>
                        <polygon id="Fill-6" fill="#231F20" points="43.964043 25.4625429 48.279314 25.4625429 48.279314 38.2255714 50.1320243 38.2255714 50.1320243 25.4625429 54.4682486 25.4625429 54.4682486 23.8869429 43.964043 23.8869429"></polygon>
                        <polygon id="Fill-8" fill="#231F20" points="57.3543963 31.50186 62.8474617 31.50186 62.8474617 29.9719457 57.3543963 29.9719457 57.3543963 25.4423743 63.1849196 25.4423743 63.1849196 23.8879457 55.4983776 23.8879457 55.4983776 38.22546 63.5014243 38.22546 63.5014243 36.6721457 57.3543963 36.6721457"></polygon>
                        <path d="M71.9854037,25.2057 C73.1643009,25.2057 74.1546187,25.4619857 74.8295346,25.8018429 L75.2927121,24.2908714 C74.8085813,24.0357 73.669385,23.6535 71.9225439,23.6535 C67.5212542,23.6535 64.5106,26.6754429 64.5106,31.1827286 C64.5106,35.9073 67.5025065,38.4612429 71.5001701,38.4612429 C73.2271607,38.4612429 74.596843,38.1191571 75.2497028,37.7793 L74.8901888,36.2895 C74.1546187,36.6527571 73.017628,36.8845286 71.8817402,36.8845286 C68.4487121,36.8845286 66.4482262,34.6503857 66.4482262,31.1214429 C66.4482262,27.3540429 68.6593477,25.2057 71.9854037,25.2057" id="Fill-10" fill="#231F20"></path>
                        <path d="M79.797114,32.2679314 L81.1833383,28.1194457 C81.4799925,27.2503029 81.690628,26.3566457 81.9034692,25.5253886 L81.9431701,25.5253886 C82.1527028,26.3566457 82.3644411,27.2057314 82.679843,28.1406171 L84.0914318,32.2679314 L79.797114,32.2679314 Z M80.8921981,23.8873886 L76.0475813,38.2249029 L77.9399925,38.2249029 L79.4155439,33.7153886 L84.4520486,33.7153886 L85.9650953,38.2249029 L87.922572,38.2249029 L83.0812636,23.8873886 L80.8921981,23.8873886 Z" id="Fill-12" fill="#231F20"></path>
                        <path d="M92.8497888,36.9051429 C92.196929,36.9051429 91.6940505,36.8850857 91.3124804,36.8215714 L91.3124804,31.3537714 L92.8277327,31.3537714 C94.8260131,31.3537714 96.4912467,32.1861429 96.4912467,34.1183143 C96.4912467,36.2031429 94.7444056,36.9051429 92.8497888,36.9051429 Z M91.3124804,25.3332857 C91.6058262,25.2697714 92.0910598,25.2051429 92.9347047,25.2051429 C94.7841065,25.2051429 96.029172,25.8893143 96.029172,27.5462571 C96.029172,28.9279714 94.8921813,29.9720571 92.9766112,29.9720571 L91.3124804,29.9720571 L91.3124804,25.3332857 Z M95.5020318,30.5659714 L95.5020318,30.5024571 C96.9764804,29.9720571 97.9028355,28.7586 97.9028355,27.3534857 C97.9028355,26.2269429 97.4374523,25.3756286 96.6996766,24.8229429 C95.8394897,24.0997714 94.6627981,23.7822 92.8277327,23.7822 C91.5661252,23.7822 90.2802561,23.9081143 89.4807234,24.0997714 L89.4807234,38.1821143 C90.0927794,38.2656857 91.0621439,38.3526 92.3237514,38.3526 C94.6385364,38.3526 96.2398075,37.9269429 97.2080692,37.0121143 C97.9447421,36.3324 98.4255645,35.3752286 98.4255645,34.1394857 C98.4255645,32.0134286 96.8485551,30.888 95.5020318,30.5659714 Z" id="Fill-14" fill="#231F20"></path>
                        <polygon id="Fill-16" fill="#231F20" points="102.199359 23.8873886 100.34334 23.8873886 100.34334 38.2249029 108.260368 38.2249029 108.260368 36.6727029 102.199359 36.6727029"></polygon>
                        <polygon id="Fill-18" fill="#231F20" points="111.610355 36.6722571 111.610355 31.5019714 117.103421 31.5019714 117.103421 29.9720571 111.610355 29.9720571 111.610355 25.4413714 117.439776 25.4413714 117.439776 23.8869429 109.753234 23.8869429 109.753234 38.2255714 117.754075 38.2255714 117.754075 36.6722571"></polygon>
                        <path d="M32.463785,37.8899486 L32.463785,23.8610914 L34.4400093,23.8610914 L38.8677664,30.9590914 C39.8779346,32.6026629 40.701729,34.0790914 41.3402523,35.5176343 L41.4020093,35.4986914 C41.2376916,33.6244629 41.195785,31.9162629 41.195785,29.7300343 L41.195785,23.8610914 L42.8852804,23.8610914 L42.8852804,37.8899486 L41.0733738,37.8899486 L36.6665701,30.7730057 C35.6961028,29.2096629 34.7697477,27.60732 34.0904206,26.0874343 L34.0286636,26.1063771 C34.1323271,27.8780914 34.1532804,29.56512 34.1532804,31.8962057 L34.1532804,37.8899486 L32.463785,37.8899486 Z" id="Fill-20" fill="#221E1F"></path>
                        <path d="M58.5928449,8.33586 C58.2090692,3.76394571 56.5603776,1.03171714 56.5603776,1.03171714 C49.7957794,-0.692082857 26.7802654,0.214945714 24.7919103,0.435574286 C22.8035551,0.656202857 22.4958729,1.36266 22.4958729,1.36266 C21.0611252,13.7134029 24.1589009,18.0100886 24.1589009,18.0100886 C25.7524523,18.66306 30.1724897,18.65526 30.1724897,18.65526 C30.1724897,18.65526 30.4195178,18.9427457 30.9565832,19.3739743 C31.0117234,19.4152029 31.070172,19.4553171 31.126415,19.5021171 C31.1286206,19.5032314 31.1308262,19.5076886 31.1341346,19.5099171 C31.9513121,20.1428314 32.8611252,20.6609743 33.7753495,21.0766029 L33.7731439,21.0610029 C34.9443215,21.5992029 36.4264897,22.1162314 38.2604523,22.4884029 L38.268172,22.4984314 C38.8725084,22.6187743 39.2419477,22.6666886 39.2419477,22.6666886 C37.9108636,20.4147171 38.9949196,18.6463457 38.9949196,18.6463457 C39.4459664,18.6998314 54.6117234,18.1894886 56.0696299,17.9410029 C57.5264336,17.6914029 58.6523963,16.9593171 58.6523963,16.9593171 C59.2291626,15.4294029 58.9788262,12.9033171 58.5928449,8.33586" id="Fill-22" fill="#EA2227"></path>
                    </g>
                </g>
            </g>
        </g>
    </g>
</svg>