<svg xmlns="http://www.w3.org/2000/svg" width="14" height="17" viewBox="0 0 14 17">
  <metadata><?xpacket begin="﻿" id="W5M0MpCehiHzreSzNTczkc9d"?>
<x:xmpmeta xmlns:x="adobe:ns:meta/" x:xmptk="Adobe XMP Core 5.6-c142 79.160924, 2017/07/13-01:06:39        ">
   <rdf:RDF xmlns:rdf="http://www.w3.org/1999/02/22-rdf-syntax-ns#">
      <rdf:Description rdf:about=""/>
   </rdf:RDF>
</x:xmpmeta>
                                                                                                    
                                                                                                    
                                                                                                    
                                                                                                    
                                                                                                    
                                                                                                    
                                                                                                    
                                                                                                    
                                                                                                    
                                                                                                    
                                                                                                    
                                                                                                    
                                                                                                    
                                                                                                    
                                                                                                    
                                                                                                    
                                                                                                    
                                                                                                    
                                                                                                    
                                                                                                    
                           
<?xpacket end="w"?></metadata>
<defs>
    <style>
      .cls-1 {
        fill: #56849c;
        fill-rule: evenodd;
      }
    </style>
  </defs>
  <path class="cls-1" d="M629,721a6.916,6.916,0,0,0-7,6.814,6.556,6.556,0,0,0,.124,1.28c0,0.025.019,0.1,0.048,0.228a6.563,6.563,0,0,0,.468,1.343,19.192,19.192,0,0,0,6.049,7.228,0.505,0.505,0,0,0,.622,0,19.222,19.222,0,0,0,6.049-7.228,6.561,6.561,0,0,0,.468-1.343c0.029-.129.044-0.2,0.048-0.228A6.8,6.8,0,0,0,629,721Zm0,10.253a3.365,3.365,0,1,1,3.455-3.364A3.414,3.414,0,0,1,629,731.253Z" transform="translate(-622 -721)"/>
</svg>
