<svg xmlns="http://www.w3.org/2000/svg" width="16" height="16" viewBox="0 0 16 16">
  <metadata><?xpacket begin="﻿" id="W5M0MpCehiHzreSzNTczkc9d"?>
<x:xmpmeta xmlns:x="adobe:ns:meta/" x:xmptk="Adobe XMP Core 5.6-c142 79.160924, 2017/07/13-01:06:39        ">
   <rdf:RDF xmlns:rdf="http://www.w3.org/1999/02/22-rdf-syntax-ns#">
      <rdf:Description rdf:about=""/>
   </rdf:RDF>
</x:xmpmeta>
                                                                                                    
                                                                                                    
                                                                                                    
                                                                                                    
                                                                                                    
                                                                                                    
                                                                                                    
                                                                                                    
                                                                                                    
                                                                                                    
                                                                                                    
                                                                                                    
                                                                                                    
                                                                                                    
                                                                                                    
                                                                                                    
                                                                                                    
                                                                                                    
                                                                                                    
                                                                                                    
                           
<?xpacket end="w"?></metadata>
<defs>
    <style>
      .cls-1 {
        fill: #56839c;
        fill-rule: evenodd;
      }
    </style>
  </defs>
  <path class="cls-1" d="M1177.65,731.911a1.572,1.572,0,0,0-1.14-.523,1.629,1.629,0,0,0-1.16.52l-1.07,1.064c-0.08-.048-0.17-0.091-0.26-0.135-0.12-.061-0.23-0.118-0.33-0.179a11.788,11.788,0,0,1-2.79-2.533,7.093,7.093,0,0,1-.91-1.438c0.28-.254.54-0.517,0.79-0.77,0.09-.1.19-0.193,0.28-0.287a1.548,1.548,0,0,0,0-2.337l-0.92-.922c-0.11-.105-0.22-0.213-0.32-0.321-0.2-.209-0.41-0.425-0.63-0.628a1.608,1.608,0,0,0-1.14-.5,1.666,1.666,0,0,0-1.15.5v0.007l-1.15,1.158a2.469,2.469,0,0,0-.74,1.57,5.82,5.82,0,0,0,.44,2.506,14.36,14.36,0,0,0,2.58,4.309,15.951,15.951,0,0,0,5.3,4.143,8.3,8.3,0,0,0,2.98.878c0.07,0,.14.007,0.21,0.007a2.541,2.541,0,0,0,1.95-.838c0.01-.006.01-0.01,0.02-0.016a7.161,7.161,0,0,1,.59-0.612c0.14-.138.29-0.283,0.44-0.435a1.7,1.7,0,0,0,.51-1.169,1.628,1.628,0,0,0-.52-1.158Zm-4-6.1a4.349,4.349,0,0,1,3.54,3.539,0.456,0.456,0,0,0,.45.378,0.54,0.54,0,0,0,.08-0.007,0.445,0.445,0,0,0,.37-0.526,5.248,5.248,0,0,0-4.28-4.282,0.459,0.459,0,0,0-.53.371A0.448,0.448,0,0,0,1173.65,725.806Zm7.34,3.252a8.657,8.657,0,0,0-7.06-7.051,0.447,0.447,0,0,0-.52.371,0.455,0.455,0,0,0,.37.527,7.721,7.721,0,0,1,6.31,6.3,0.456,0.456,0,0,0,.45.378,0.72,0.72,0,0,0,.08-0.007A0.44,0.44,0,0,0,1180.99,729.058Z" transform="translate(-1165 -722)"/>
</svg>
