<svg xmlns="http://www.w3.org/2000/svg" width="14" height="17" viewBox="0 0 14 17">
    <defs>
        <style>
            .cls-1{fill:#56849c;fill-rule:evenodd}
        </style>
    </defs>
    <path class="cls-1" d="M7 0a6.916 6.916 0 0 0-7 6.814 6.556 6.556 0 0 0 .124 1.28c0 .025.019.1.048.228A6.563 6.563 0 0 0 .64 9.665a19.192 19.192 0 0 0 6.049 7.228.505.505 0 0 0 .622 0 19.222 19.222 0 0 0 6.049-7.228 6.561 6.561 0 0 0 .468-1.343c.029-.129.044-.2.048-.228A6.8 6.8 0 0 0 7 0zm0 10.253a3.365 3.365 0 1 1 3.455-3.364A3.414 3.414 0 0 1 7 10.253z"/>
</svg>
