<svg xmlns="http://www.w3.org/2000/svg" width="16" height="16" viewBox="0 0 16 16">
    <defs>
        <style>
            .cls-1{fill:#56839c;fill-rule:evenodd}
        </style>
    </defs>
    <path class="cls-1" d="M12.65 9.911a1.572 1.572 0 0 0-1.14-.523 1.629 1.629 0 0 0-1.16.52l-1.07 1.064c-.08-.048-.17-.091-.26-.135a4.922 4.922 0 0 1-.33-.179A11.788 11.788 0 0 1 5.9 8.125a7.093 7.093 0 0 1-.91-1.438c.28-.254.54-.517.79-.77.09-.1.19-.193.28-.287a1.548 1.548 0 0 0 0-2.337l-.92-.922a7.445 7.445 0 0 1-.32-.321c-.2-.209-.41-.425-.63-.628a1.608 1.608 0 0 0-1.14-.5 1.666 1.666 0 0 0-1.15.5v.007L.75 2.587a2.469 2.469 0 0 0-.74 1.57 5.82 5.82 0 0 0 .44 2.506 14.36 14.36 0 0 0 2.58 4.309 15.951 15.951 0 0 0 5.3 4.143 8.3 8.3 0 0 0 2.98.878c.07 0 .14.007.21.007a2.541 2.541 0 0 0 1.95-.838c.01-.006.01-.01.02-.016a7.161 7.161 0 0 1 .59-.612c.14-.138.29-.283.44-.435a1.7 1.7 0 0 0 .51-1.169 1.628 1.628 0 0 0-.52-1.158zm-4-6.1a4.349 4.349 0 0 1 3.54 3.539.456.456 0 0 0 .45.378.54.54 0 0 0 .08-.007.445.445 0 0 0 .37-.526 5.248 5.248 0 0 0-4.28-4.282.459.459 0 0 0-.53.371.448.448 0 0 0 .37.522zm7.34 3.252A8.657 8.657 0 0 0 8.93.012a.447.447 0 0 0-.52.371.455.455 0 0 0 .37.527 7.721 7.721 0 0 1 6.31 6.3.456.456 0 0 0 .45.378.72.72 0 0 0 .08-.007.44.44 0 0 0 .37-.523z"/>
</svg>
