<svg width="120" height="41" viewBox="0 0 120 41" xmlns="http://www.w3.org/2000/svg">
    <title>
        Appstore
    </title>
    <g fill="none" fill-rule="evenodd">
        <rect fill="#000" width="119.229" height="41" rx="5.663"/>
        <path d="M26.023 19.62c-.026-2.933 2.364-4.36 2.474-4.426-1.354-2.005-3.452-2.279-4.189-2.3-1.762-.19-3.471 1.07-4.369 1.07-.915 0-2.297-1.053-3.787-1.022-1.917.03-3.71 1.158-4.694 2.909-2.03 3.57-.516 8.815 1.429 11.7.973 1.415 2.11 2.992 3.597 2.936 1.456-.06 2-.943 3.756-.943 1.74 0 2.251.943 3.769.907 1.562-.024 2.546-1.419 3.484-2.846 1.125-1.618 1.576-3.215 1.594-3.297-.036-.011-3.033-1.173-3.064-4.688" fill="#FFF"/>
        <path d="M47.116 30.232h-2.034l-1.114-3.557h-3.874l-1.061 3.557h-1.98l3.838-12.11h2.37l3.855 12.11zm-3.484-5.05l-1.008-3.16c-.107-.325-.307-1.086-.601-2.283h-.036a98.62 98.62 0 0 1-.566 2.282l-.99 3.161h3.2z" fill="#FFF"/>
        <path d="M57.033 25.759c0 1.485-.397 2.659-1.191 3.52-.712.767-1.596 1.15-2.65 1.15-1.139 0-1.957-.412-2.454-1.239v4.582h-1.91V24.37c0-.933-.024-1.889-.071-2.87h1.68l.106 1.385h.036c.637-1.044 1.603-1.565 2.9-1.565 1.015 0 1.861.407 2.538 1.221.677.816 1.016 1.888 1.016 3.218zm-1.946.07c0-.85-.188-1.55-.566-2.101-.413-.574-.967-.863-1.662-.863-.471 0-.9.16-1.282.477a2.207 2.207 0 0 0-.752 1.25c-.059.239-.088.434-.088.589v1.458c0 .633.191 1.169.575 1.608.383.436.881.656 1.494.656.72 0 1.28-.283 1.68-.845.4-.563.601-1.306.601-2.228z" fill="#FFF"/>
        <path d="M66.882 25.759c0 1.485-.397 2.659-1.191 3.52-.712.767-1.596 1.15-2.65 1.15-1.138 0-1.957-.412-2.455-1.239v4.582h-1.91V24.37c0-.933-.024-1.889-.07-2.87h1.679l.106 1.385h.036c.636-1.044 1.603-1.565 2.9-1.565 1.014 0 1.861.407 2.54 1.221.675.816 1.015 1.888 1.015 3.218zm-1.946.07c0-.85-.19-1.55-.567-2.101-.412-.574-.966-.863-1.661-.863-.471 0-.9.16-1.284.477a2.21 2.21 0 0 0-.75 1.25c-.059.239-.09.434-.09.589v1.458c0 .633.193 1.169.574 1.608.384.435.882.656 1.496.656.72 0 1.28-.283 1.68-.845.401-.563.602-1.306.602-2.228z" fill="#FFF"/>
        <path d="M77.946 26.85c0 1.031-.354 1.869-1.06 2.516-.775.706-1.858 1.06-3.247 1.06-1.283 0-2.31-.251-3.087-.754l.442-1.617a5.259 5.259 0 0 0 2.759.755c.72 0 1.28-.166 1.68-.494.4-.33.602-.77.602-1.32 0-.492-.166-.905-.496-1.24-.33-.335-.877-.648-1.644-.933-2.087-.791-3.131-1.949-3.131-3.47 0-.993.369-1.806 1.104-2.442.737-.635 1.713-.953 2.928-.953 1.084 0 1.988.192 2.706.575l-.48 1.582c-.675-.372-1.437-.557-2.29-.557-.674 0-1.203.168-1.58.503-.318.3-.48.664-.48 1.097 0 .478.183.875.55 1.185.317.288.896.6 1.732.935 1.027.42 1.78.91 2.264 1.472.486.562.728 1.264.728 2.1" fill="#FFF"/>
        <path d="M84.262 22.985h-2.105v4.24c0 1.078.371 1.616 1.115 1.616.34 0 .624-.03.848-.09l.053 1.473c-.376.143-.872.215-1.485.215-.755 0-1.343-.235-1.77-.702-.424-.467-.637-1.25-.637-2.354v-4.401h-1.253v-1.456h1.253v-1.599l1.876-.575v2.174h2.105v1.46" fill="#FFF"/>
        <path d="M93.744 25.791c0 1.343-.377 2.445-1.132 3.306-.79.887-1.84 1.33-3.148 1.33-1.263 0-2.267-.425-3.016-1.275-.749-.85-1.123-1.922-1.123-3.215 0-1.353.388-2.461 1.158-3.323.772-.862 1.813-1.294 3.122-1.294 1.262 0 2.274.427 3.042 1.276.733.825 1.097 1.889 1.097 3.195zm-1.98.045c0-.8-.17-1.486-.511-2.06-.4-.693-.975-1.04-1.716-1.04-.764 0-1.353.347-1.752 1.04-.343.574-.512 1.272-.512 2.096 0 .801.17 1.49.512 2.06.413.695.99 1.042 1.736 1.042.73 0 1.302-.355 1.717-1.058.35-.588.526-1.278.526-2.08z" fill="#FFF"/>
        <path d="M99.935 23.206a3.275 3.275 0 0 0-.602-.052c-.672 0-1.191.255-1.557.772-.318.455-.476 1.03-.476 1.724v4.582h-1.91V24.25c0-1.005-.019-1.924-.056-2.749h1.664l.07 1.67h.053c.202-.573.52-1.037.955-1.382a2.283 2.283 0 0 1 1.38-.469c.176 0 .336.014.477.035l.002 1.851" fill="#FFF"/>
        <path d="M108.463 25.467c0 .347-.023.64-.07.88h-5.729c.021.862.3 1.523.83 1.978.484.406 1.109.61 1.875.61.848 0 1.622-.137 2.318-.414l.3 1.347c-.814.36-1.775.54-2.882.54-1.333 0-2.38-.399-3.141-1.194-.759-.796-1.14-1.867-1.14-3.207 0-1.316.353-2.412 1.062-3.287.742-.933 1.744-1.4 3.005-1.4 1.24 0 2.177.467 2.813 1.4.505.74.759 1.657.759 2.747zm-1.821-.504c.013-.576-.112-1.07-.371-1.491-.33-.54-.84-.81-1.521-.81-.625 0-1.133.263-1.52.79-.318.42-.507.925-.566 1.51l3.978.001z" fill="#FFF"/>
        <path d="M23.2 10.937c.783-.995 1.32-2.348 1.17-3.721-1.133.051-2.55.796-3.366 1.769-.722.857-1.367 2.262-1.2 3.583 1.273.097 2.58-.652 3.397-1.631" fill="#FFF"/>
        <path d="M38.101 8.038h2.116c1.737 0 2.756 1.085 2.756 2.957 0 1.902-1.01 2.994-2.756 2.994H38.1V8.04zm.91.842v4.268h1.104c1.226 0 1.933-.775 1.933-2.14 0-1.345-.719-2.128-1.933-2.128h-1.104zm5.335 5.11h.869V9.497h-.87v4.491zm.434-5.28c.325 0 .565-.234.565-.54 0-.309-.24-.544-.565-.544-.324 0-.564.235-.564.544 0 .306.24.54.564.54zm1.848 2.059c0 .668.39 1.051 1.23 1.253l.771.182c.443.107.65.28.65.548 0 .359-.386.606-.93.606-.527 0-.852-.214-.962-.56h-.873c.077.795.764 1.278 1.815 1.278 1.056 0 1.831-.565 1.831-1.41 0-.66-.394-1.027-1.234-1.225l-.735-.173c-.479-.112-.702-.28-.702-.549 0-.35.37-.586.856-.586.496 0 .812.21.893.54h.837c-.085-.791-.735-1.261-1.73-1.261-.998 0-1.717.56-1.717 1.357zm7.11-1.345c1.124 0 1.834.89 1.834 2.318 0 1.427-.71 2.322-1.827 2.322-.629 0-1.128-.28-1.36-.755h-.069v2.173h-.873V9.498h.84v.743h.066c.268-.512.787-.817 1.388-.817zm-.248 3.844c.742 0 1.185-.574 1.185-1.526 0-.949-.443-1.522-1.181-1.522-.735 0-1.194.586-1.194 1.526 0 .936.459 1.522 1.19 1.522zm5.229.808c-1.295 0-2.087-.878-2.087-2.334 0-1.448.796-2.33 2.087-2.33 1.287 0 2.083.882 2.083 2.33 0 1.456-.792 2.334-2.083 2.334zm0-.788c.755 0 1.185-.569 1.185-1.546 0-.973-.43-1.543-1.185-1.543-.76 0-1.185.57-1.185 1.543 0 .981.426 1.546 1.185 1.546zm3.362.701h.873v-2.627c0-.7.41-1.138 1.055-1.138.646 0 .954.359.954 1.08v2.685h.873v-2.907c0-1.068-.544-1.67-1.53-1.67-.666 0-1.105.3-1.32.8h-.065v-.714h-.84v4.491zm5.23 0h.868V9.5h-.869v4.49zm.434-5.278c.325 0 .564-.235.564-.54 0-.31-.24-.545-.564-.545-.325 0-.564.235-.564.544 0 .306.24.54.564.54zm4.292 5.353c-.618 0-1.133-.29-1.397-.784h-.065v.71h-.84V7.745h.872v2.466h.07c.235-.491.755-.788 1.36-.788 1.12 0 1.826.89 1.826 2.318 0 1.423-.71 2.322-1.826 2.322zm-.252-3.844c-.73 0-1.19.586-1.194 1.526.004.94.459 1.522 1.194 1.522.739 0 1.181-.574 1.181-1.526 0-.945-.442-1.522-1.181-1.522zm3.398 3.77h.873V7.745h-.873v6.243zm4.227-3.824c-.645 0-1.096.462-1.145 1.163h2.233c-.02-.705-.442-1.163-1.088-1.163zm1.084 2.61h.84c-.199.805-.905 1.3-1.916 1.3-1.266 0-2.042-.883-2.042-2.318s.792-2.346 2.038-2.346c1.23 0 1.973.853 1.973 2.264v.31h-3.122v.049c.029.787.48 1.286 1.178 1.286.527 0 .889-.194 1.051-.544zm6.493-2.61c-.646 0-1.097.462-1.145 1.163h2.233c-.02-.705-.443-1.163-1.088-1.163zm1.084 2.61h.84c-.199.805-.905 1.3-1.916 1.3-1.267 0-2.042-.883-2.042-2.318s.791-2.346 2.038-2.346c1.23 0 1.973.853 1.973 2.264v.31h-3.122v.049c.028.787.479 1.286 1.177 1.286.528 0 .89-.194 1.052-.544zm2.172 1.213h.873v-2.627c0-.7.41-1.138 1.055-1.138.646 0 .954.359.954 1.08v2.685h.873v-2.907c0-1.068-.544-1.67-1.53-1.67-.666 0-1.105.3-1.32.8h-.065v-.714h-.84v4.491zm9.533-3.823c-.645 0-1.096.462-1.145 1.163h2.233c-.02-.705-.442-1.163-1.088-1.163zm1.084 2.61h.84c-.198.805-.905 1.3-1.916 1.3-1.266 0-2.042-.883-2.042-2.318s.792-2.346 2.038-2.346c1.23 0 1.973.853 1.973 2.264v.31h-3.122v.049c.029.787.48 1.286 1.178 1.286.528 0 .889-.194 1.051-.544zm2.213 1.213h.873V7.746h-.873v6.243z" fill="#FFF"/>
    </g>
</svg>
