<svg width="108" height="69" viewBox="0 0 108 69" xmlns="http://www.w3.org/2000/svg" xmlns:xlink="http://www.w3.org/1999/xlink">
    <title>
        Illustration-icon/atencion
    </title>
    <defs>
        <path d="M24.885 43L9.688 52v-9H7.692c-2.675 0-3.645-.278-4.623-.801A5.452 5.452 0 0 1 .801 39.93C.278 38.953 0 37.983 0 35.308V7.692c0-2.675.278-3.645.801-4.623A5.452 5.452 0 0 1 3.07.801C4.047.278 5.017 0 7.692 0h53.616c2.675 0 3.645.278 4.623.801a5.452 5.452 0 0 1 2.268 2.268c.523.978.801 1.948.801 4.623v27.616c0 2.675-.278 3.645-.801 4.623a5.452 5.452 0 0 1-2.268 2.268c-.978.523-1.948.801-4.623.801H24.885z" id="a"/>
        <path d="M39 43V23.692c0-2.675.278-3.645.801-4.623a5.452 5.452 0 0 1 2.268-2.268c.978-.523 1.948-.801 4.623-.801H69v19.308c0 2.675-.278 3.645-.801 4.623a5.452 5.452 0 0 1-2.268 2.268c-.978.523-1.948.801-4.623.801H39z" id="b"/>
    </defs>
    <g fill="none" fill-rule="evenodd">
        <g>
            <use fill="#FFF" xlink:href="#a"/>
            <path stroke="#0F1D2B" stroke-width="1.4" d="M10.388 50.772L24.693 42.3h36.615c2.333 0 3.296-.186 4.292-.719a4.752 4.752 0 0 0 1.981-1.98c.533-.997.719-1.96.719-4.293V7.692c0-2.333-.186-3.296-.719-4.292a4.752 4.752 0 0 0-1.98-1.981C64.603.886 63.64.7 61.307.7H7.692C5.359.7 4.396.886 3.4 1.419a4.752 4.752 0 0 0-1.981 1.98C.886 4.397.7 5.36.7 7.693v27.616c0 2.333.186 3.296.719 4.292a4.752 4.752 0 0 0 1.98 1.981c.997.533 1.96.719 4.293.719h2.696v8.472z"/>
        </g>
        <path d="M99.873 67.772v-9.468l.695-.005c2.15-.016 3.07-.203 4.032-.718a4.752 4.752 0 0 0 1.981-1.98c.533-.997.719-1.96.719-4.293V23.692c0-2.333-.186-3.296-.719-4.292a4.752 4.752 0 0 0-1.98-1.981c-.997-.533-1.96-.719-4.293-.719H46.692c-2.333 0-3.296.186-4.292.719a4.752 4.752 0 0 0-1.981 1.98c-.533.997-.719 1.96-.719 4.293v27.616c0 2.333.186 3.296.719 4.292a4.752 4.752 0 0 0 1.98 1.981c.997.533 1.96.719 4.293.719H83.88l15.993 9.472z" stroke="#0F1D2B" stroke-width="1.4"/>
        <g>
            <use fill="#FE4A49" xlink:href="#b"/>
            <path stroke="#0F1D2B" stroke-width="1.4" d="M39.7 42.3h21.608c2.333 0 3.296-.186 4.292-.719a4.752 4.752 0 0 0 1.981-1.98c.533-.997.719-1.96.719-4.293V16.7H46.692c-2.333 0-3.296.186-4.292.719a4.752 4.752 0 0 0-1.981 1.98c-.533.997-.719 1.96-.719 4.293V42.3z"/>
        </g>
    </g>
</svg>
