<svg width="68" height="68" viewBox="0 0 68 68" xmlns="http://www.w3.org/2000/svg" xmlns:xlink="http://www.w3.org/1999/xlink">
    <title>
        Illustration-icon/beneficios
    </title>
    <defs>
        <path d="M17.257 20.207c-.17 0-.81.02-.962-.062l-5.385-2.844-5.385 2.844a1.055 1.055 0 0 1-1.29-.254 1.052 1.052 0 0 1-.228-.854l1.028-6.027L.68 8.743a1.047 1.047 0 0 1-.265-1.078 1.04 1.04 0 0 1 .845-.716l6.02-.879L9.971.586A1.04 1.04 0 0 1 10.91 0c.4 0 .76.225.938.586L14.54 6.07l6.02.879c.397.058.72.332.845.716.124.384.023.797-.264 1.078l-4.357 4.269 1.028 6.027a1.053 1.053 0 0 1-1.03 1.23l.475-.061z" id="a"/>
        <path d="M43.5 26.227a.94.94 0 0 0 .664-1.604l-.664-.664a.94.94 0 1 0-1.329 1.329l.665.664a.933.933 0 0 0 .664.275zm9.964 9.965a.94.94 0 0 0 .664-1.604l-.664-.665a.94.94 0 1 0-1.329 1.33l.665.663a.94.94 0 0 0 .664.276zm-3.321-3.322a.94.94 0 0 0 .664-1.604l-.664-.664a.94.94 0 1 0-1.33 1.329l.665.664a.94.94 0 0 0 .665.275zm16.97-10.765l-4.878-4.877a.94.94 0 0 0-1.328 0 7.118 7.118 0 0 1-5.069 2.1 7.115 7.115 0 0 1-5.065-2.1c-2.793-2.793-2.793-7.337-.003-10.13a.94.94 0 0 0 0-1.328L45.892.892a3.007 3.007 0 0 0-2.1-.892c-.796.004-1.548.294-2.11.851l-9.318 9.32a.94.94 0 1 0 1.328 1.328l9.319-9.319a1.04 1.04 0 0 1 .741-.3h.015c.297.003.58.124.796.337l4.247 4.246c-2.878 3.55-2.668 8.79.631 12.09a8.987 8.987 0 0 0 6.394 2.65c2.099 0 4.092-.712 5.696-2.019l4.246 4.246c.437.437.452 1.134.033 1.55l-9.318 9.318a.94.94 0 1 0 1.328 1.328l9.319-9.318c1.16-1.145 1.145-3.032-.026-4.203zM54.51 36.295L24.979 65.829c-.418.419-1.116.4-1.549-.033l-4.246-4.246c2.874-3.55 2.664-8.79-.635-12.086-3.3-3.303-8.537-3.512-12.086-.635l-4.25-4.246a1.142 1.142 0 0 1-.338-.808c0-.282.107-.546.305-.741l29.535-29.53a.94.94 0 1 0-1.33-1.33L.856 41.706A2.906 2.906 0 0 0 0 43.775c0 .804.316 1.564.888 2.136l4.878 4.878a.94.94 0 0 0 1.329 0c2.793-2.79 7.336-2.79 10.129.004 2.79 2.79 2.793 7.333.004 10.13a.94.94 0 0 0 0 1.328l4.877 4.878c.591.59 1.366.884 2.136.884.753 0 1.505-.283 2.07-.851L55.842 37.63a.94.94 0 0 0 0-1.329.94.94 0 0 0-1.332-.007zm-7.69-6.746a.94.94 0 0 0 .664-1.604l-.663-.664a.94.94 0 1 0-1.329 1.328l.664.665a.94.94 0 0 0 .665.275zm-9.964-9.968a.94.94 0 0 0 .664-1.604l-.664-.664a.94.94 0 1 0-1.328 1.328l.664.665a.933.933 0 0 0 .664.275zm-3.321-5.59a.94.94 0 1 0-1.329 1.329l.665.664a.933.933 0 0 0 .664.276.94.94 0 0 0 .664-1.604l-.664-.665zm7.307 7.311l-.664-.664a.94.94 0 1 0-1.329 1.329l.665.664a.933.933 0 0 0 .664.275.94.94 0 0 0 .664-1.604z" id="b"/>
    </defs>
    <g fill="none" fill-rule="evenodd">
        <g transform="rotate(44 -13.67 48.116)">
            <use fill="#FE4A49" xlink:href="#a"/>
            <path stroke="#FFF" stroke-width="1.2" d="M17.002 19.609a.44.44 0 0 1-.22.059v.6l.076.595.476-.061-.077-1.195h-.124l-.131.002z"/>
            <use stroke="#0F1D2B" xlink:href="#a"/>
        </g>
        <g>
            <use fill="#0F1D2B" xlink:href="#b"/>
            <path stroke="#FFF" stroke-width=".2" d="M43.5 26.127a.84.84 0 0 0 .594-1.433l-.665-.664a.84.84 0 1 0-1.187 1.187l.664.665c.16.16.372.245.594.245zm9.964 9.965a.84.84 0 0 0 .594-1.433l-.665-.665a.84.84 0 1 0-1.187 1.187l.665.665a.84.84 0 0 0 .593.246zm-3.321-3.322a.84.84 0 0 0 .594-1.433l-.665-.664a.84.84 0 1 0-1.187 1.187l.664.664a.84.84 0 0 0 .594.246zm16.9-10.594l-4.878-4.878a.84.84 0 0 0-1.188 0 7.218 7.218 0 0 1-5.139 2.13 7.215 7.215 0 0 1-5.135-2.13c-2.832-2.831-2.833-7.438-.004-10.27a.84.84 0 0 0 0-1.188L45.821.962A2.906 2.906 0 0 0 43.793.1c-.783.004-1.506.292-2.04.822l-9.319 9.319a.84.84 0 1 0 1.188 1.187L42.94 2.11a1.14 1.14 0 0 1 .812-.33h.016c.322.004.63.135.866.367l4.247 4.247.007.133c-2.867 3.536-2.616 8.717.624 11.956a8.887 8.887 0 0 0 6.323 2.62c2.07 0 4.042-.7 5.633-1.996l.133.007 4.247 4.247c.475.475.491 1.236.033 1.69l-9.319 9.319a.84.84 0 1 0 1.187 1.187l9.32-9.32c1.118-1.104 1.106-2.927-.027-4.06zM54.58 36.366L25.05 65.9c-.457.457-1.218.44-1.69-.033l-4.247-4.246-.007-.134c2.863-3.536 2.611-8.717-.628-11.952-3.239-3.243-8.416-3.495-11.952-.628l-.134-.007-4.25-4.246a1.242 1.242 0 0 1-.367-.879c0-.31.119-.6.334-.812l29.535-29.53a.84.84 0 1 0-1.187-1.188L.926 41.776a2.806 2.806 0 0 0-.826 2c0 .777.305 1.511.859 2.065l4.878 4.877a.84.84 0 0 0 1.187 0c2.833-2.829 7.44-2.828 10.27.004 2.83 2.83 2.832 7.436.004 10.27a.84.84 0 0 0 0 1.188l4.878 4.878a2.912 2.912 0 0 0 2.065.855c.751 0 1.47-.289 2-.822l29.53-29.53a.84.84 0 0 0 0-1.188.84.84 0 0 0-1.19-.007h-.001zm-7.76-6.917a.84.84 0 0 0 .594-1.433l-.664-.665a.84.84 0 1 0-1.187 1.188l.664.664a.84.84 0 0 0 .594.246zm-9.964-9.968a.84.84 0 0 0 .594-1.433l-.664-.664a.84.84 0 1 0-1.187 1.187l.664.664c.16.16.371.246.593.246zm-3.392-5.419a.84.84 0 1 0-1.187 1.187l.664.665c.16.16.371.246.594.246a.84.84 0 0 0 .594-1.433l-.665-.665zm7.308 7.311l-.665-.664a.84.84 0 1 0-1.187 1.187l.664.664c.16.16.372.246.594.246a.84.84 0 0 0 .594-1.433z"/>
        </g>
    </g>
</svg>
