<svg width="85" height="50" viewBox="0 0 85 50" xmlns="http://www.w3.org/2000/svg" xmlns:xlink="http://www.w3.org/1999/xlink">
    <title>
        contacts
    </title>
    <defs>
        <path d="M6.017 24.507L20.87 37.473a2 2 0 0 0 2.63 0l14.854-12.966A2 2 0 0 0 37.039 21H7.332a2 2 0 0 0-1.315 3.507z" id="a"/>
    </defs>
    <g transform="translate(0 1)" fill="none" fill-rule="evenodd">
        <path d="M48.873 27.49c.709.419 1.455.806 2.234 1.157.852.385-1.47 5.669-.545 5.965.998.32 5.248-4.355 6.319-4.147 1.79.349 3.675.535 5.619.535C74.374 31 84 24.06 84 15.5 84 6.94 74.374 0 62.5 0c-9.894 0-18.227 4.818-20.731 11.377A11.508 11.508 0 0 0 41 15.5" stroke="#0F1D2B" stroke-width="1.4" stroke-linecap="round"/>
        <use fill="#FE4A49" xlink:href="#a"/>
        <path stroke="#FFF" stroke-width="1.4" d="M6.477 23.98L21.33 36.945a1.3 1.3 0 0 0 1.71 0l14.854-12.967a1.3 1.3 0 0 0-.855-2.279H7.332a1.3 1.3 0 0 0-.855 2.28z"/>
        <rect stroke="#0F1D2B" stroke-width="1.4" x=".7" y="20.7" width="42.6" height="27.6" rx="3"/>
        <path d="M63.225 17.196c2.161-2.16 2.948-3.532 2.361-4.118l-.16-.16c-.4-.4-.673-.72-.82-.96-.147-.24-.174-.6-.08-1.08.093-.48.42-1.065.98-1.759.267-.32.514-.58.74-.78.227-.2.46-.306.7-.319.241-.013.441-.02.601-.02.16 0 .354.087.58.26.227.173.387.293.48.36.094.066.267.233.52.5l.421.44c.64.639.6 1.932-.12 3.877-.72 1.946-2.08 3.905-4.082 5.878-2 1.999-3.968 3.365-5.902 4.098-1.934.733-3.222.78-3.862.14l-.46-.44a7.938 7.938 0 0 1-.5-.5 20.644 20.644 0 0 1-.36-.48c-.187-.253-.274-.46-.26-.62.013-.16.026-.36.04-.599.013-.24.113-.473.3-.7.186-.226.44-.473.76-.74.56-.452 1.027-.766 1.4-.939.374-.173.734-.186 1.08-.04.348.147.581.267.701.36.12.093.38.34.78.74.587.586 1.975-.214 4.162-2.4z" stroke="#0F1D2B" stroke-width="1.4" fill="#B6C7D4"/>
        <path stroke="#0F1D2B" stroke-width="1.4" stroke-linecap="round" stroke-linejoin="round" d="M2 22l20.185 18 20.186-18"/>
        <path d="M1.73 47.501l10.904-10.908" stroke="#0F1D2B" stroke-width="1.4" stroke-linecap="round" stroke-linejoin="round"/>
        <path d="M42.634 47.501L31.73 36.593 42.634 47.5z" stroke="#0F1D2B" stroke-width="1.4" stroke-linecap="round" stroke-linejoin="round"/>
    </g>
</svg>
