<svg width="96" height="27" viewBox="0 0 96 27" xmlns="http://www.w3.org/2000/svg">
    <title>
        Group 17
    </title>
    <g fill="#FFF" fill-rule="evenodd" opacity=".2">
        <path d="M78.543 10.525a4.274 4.274 0 0 1 6.106 0 4.293 4.293 0 0 1 1.273 3.047c0 2.368-1.944 4.294-4.333 4.294-2.38 0-4.317-1.926-4.317-4.294a4.3 4.3 0 0 1 1.271-3.047m3.046 9.262c.736 0 1.482-.124 2.218-.367a5.822 5.822 0 0 0 3.658-3.595c.714-2.063.431-4.211-.776-5.896a6.283 6.283 0 0 0-5.1-2.606c-.745 0-1.5.129-2.242.38a5.838 5.838 0 0 0-3.623 3.62c-.707 2.073-.422 4.219.782 5.888 1.162 1.613 3.062 2.576 5.083 2.576"/>
        <path d="M48.93 19.787c2.724 0 4.778-2.028 4.778-4.718V7.547h-2.017v7.437c0 1.697-1.135 2.882-2.76 2.882-1.606 0-2.728-1.2-2.728-2.916V7.547h-2.016v7.522c0 2.69 2.039 4.718 4.743 4.718"/>
        <path d="M65.653 19.787c2.482 0 4.281-1.128 4.299-1.14l.004-.002.003-.002a.523.523 0 0 0 .18-.36c0-.681-.003-1.381-.008-2.058-.005-.785-.01-1.596-.008-2.38v-.111h-3.966v1.834h.395a.562.562 0 0 0 .04.002h1.565v1.722l-.013.006c-.295.132-1.192.534-2.44.534-2.305 0-4.18-1.926-4.18-4.294 0-2.377 1.875-4.31 4.18-4.31.973 0 2.006.411 2.832 1.128.02.018.042.036.064.052l.276.228.229-.239a35.34 35.34 0 0 1 .417-.433l.145-.15.575-.596-.451-.36c-1.252-1.033-2.605-1.535-4.138-1.535-1.676 0-3.25.649-4.432 1.827a6.2 6.2 0 0 0-1.834 4.422 6.15 6.15 0 0 0 1.835 4.406 6.258 6.258 0 0 0 4.43 1.809"/>
        <path d="M37.58 7.547h-2v4.79l2-1.199z"/>
        <path d="M37.58 12.16l-2 1.2v6.152h2z"/>
        <path d="M28.275 2.626h65.538V24.32H28.275V2.626zm-2.186 23.857H0V.406H95.968v26.077H26.09zM10.44 13.96h.568c.58 0 .823.23.823.98v.703c0 .6-.232.795-.66.795h-.731V13.96zm0-3.286h.614c.452 0 .65.254.65.83v.45c0 .645-.29.853-.766.853h-.498v-2.133zm2.538.703c0-1.245-.568-1.856-1.889-1.856H9.166v8.07h2.005c1.275 0 1.936-.669 1.936-1.914v-.657c0-.853-.267-1.452-.95-1.717v-.024c.567-.265.822-.783.822-1.613v-.289zm3.429 3.54v2.674h1.275v-2.675l1.61-5.395h-1.216l-.962 3.678h-.023l-.963-3.678h-1.332l1.61 5.395z"/>
    </g>
</svg>
