<svg width="80" height="19" viewBox="0 0 80 19" xmlns="http://www.w3.org/2000/svg">
    <title>
        logoMC-golive-positivo-small
    </title>
    <g fill="none" fill-rule="evenodd">
        <path d="M34.169 12.855a4.222 4.222 0 0 1-1.516 1.623 3.94 3.94 0 0 1-2.114.596 3.995 3.995 0 0 1-2.125-.596 4.442 4.442 0 0 1-1.56-1.623 4.525 4.525 0 0 1-.587-2.284c0-.823.192-1.577.575-2.262a4.252 4.252 0 0 1 1.56-1.613 4.11 4.11 0 0 1 2.137-.585c.767 0 1.472.195 2.114.585.642.39 1.147.927 1.516 1.613a4.7 4.7 0 0 1 .553 2.262c0 .837-.185 1.599-.553 2.284m3.619-6.289c-.73-1.183-1.734-2.114-3.01-2.793-1.277-.678-2.705-1.017-4.283-1.017-1.58 0-3.007.34-4.283 1.017-1.277.679-2.28 1.61-3.01 2.793-.731 1.184-1.096 2.511-1.096 3.983 0 1.487.365 2.833 1.095 4.038s1.734 2.15 3.01 2.836c1.277.685 2.704 1.028 4.284 1.028 1.578 0 3.006-.347 4.282-1.04 1.277-.692 2.28-1.637 3.01-2.835.731-1.198 1.096-2.54 1.096-4.027 0-1.472-.365-2.8-1.095-3.983" fill="#2F455B"/>
        <path d="M44.663 14.388c0 .321.07.571.208.749.138.178.407.267.805.267.242 0 .536-.026.883-.077l.13 2.794a8.06 8.06 0 0 1-1.182.241c-.441.06-.896.089-1.363.089-.692 0-1.272-.102-1.74-.305-.467-.203-.84-.474-1.116-.812a3.138 3.138 0 0 1-.597-1.156 4.903 4.903 0 0 1-.182-1.333V2.976h4.154v11.412z" fill="#FC3F3F"/>
        <path d="M48.506 18.197h4.155V5.753h-4.155v12.444zm-.26-15.3c0-.643.217-1.185.65-1.625.432-.44.995-.66 1.687-.66.692 0 1.255.22 1.688.66.432.44.65.982.65 1.625 0 .644-.218 1.185-.65 1.625-.433.44-.996.66-1.688.66s-1.255-.22-1.687-.66c-.433-.44-.65-.981-.65-1.625z" fill="#FC3F3F"/>
        <path fill="#FC3F3F" d="M58.607 18.197L54.192 5.753h4.18l2.442 8.736 2.44-8.736h4.18l-4.413 12.444z"/>
        <path d="M74.42 8.09c-.659 0-1.165.207-1.52.622-.355.415-.532.986-.532 1.714h3.687c.035-.135.052-.28.052-.432 0-.541-.147-.994-.441-1.358-.295-.364-.71-.546-1.247-.546m.13-2.59c1.662 0 2.977.478 3.947 1.434.969.957 1.454 2.282 1.454 3.975 0 .643-.078 1.329-.234 2.057h-7.374c.035.761.299 1.375.792 1.84.493.467 1.25.7 2.272.7.623 0 1.276-.056 1.96-.166.684-.11 1.277-.275 1.779-.495l.52 2.615a9.297 9.297 0 0 1-2.22.737c-.823.169-1.676.254-2.558.254-1.108 0-2.087-.157-2.934-.47-.849-.313-1.558-.749-2.13-1.308a5.47 5.47 0 0 1-1.298-2.006c-.294-.778-.441-1.642-.441-2.59 0-1.016.151-1.93.454-2.743a5.736 5.736 0 0 1 1.298-2.07 5.694 5.694 0 0 1 2.039-1.307c.796-.305 1.687-.458 2.674-.458" fill="#FC3F3F"/>
        <path d="M12.518 8.455L4.089 3.17a2.735 2.735 0 0 0-1.447-.413c-.87 0-1.722.412-2.222 1.18C.14 4.346 0 4.84 0 5.36v10.6c0 1.423 1.176 2.601 2.66 2.601.505 0 1.009-.137 1.43-.41l8.428-5.314a2.574 2.574 0 0 0 .811-3.588 2.756 2.756 0 0 0-.811-.794" fill="#FC3F3F"/>
        <path d="M17.662 10.422h-1.236v3.06h1.236v.856c-1.003.49-1.896.736-2.678.736-.826 0-1.579-.195-2.257-.585a4.267 4.267 0 0 1-.734-.53l-3.356 2.115a7.916 7.916 0 0 0 1.82 1.349c1.262.685 2.675 1.028 4.24 1.028 1.076 0 2.216-.184 3.42-.552 1.202-.368 2.216-.848 3.043-1.44v-6.04h-3.498v.003z" fill="#2F455B"/>
        <path d="M11.918 7.29c.236-.225.497-.424.786-.594.664-.39 1.41-.585 2.236-.585.708 0 1.428.152 2.158.455.73.303 1.376.714 1.937 1.234l2.302-2.77c-.797-.694-1.771-1.246-2.922-1.657a10.203 10.203 0 0 0-3.453-.617c-1.608 0-3.066.34-4.371 1.017a8.08 8.08 0 0 0-1.987 1.438l3.314 2.079z" fill="#2F455B"/>
        <path fill="#FFF" d="M5.938 8.652h1.156L6.3 12.654h-.94l.514-2.57-1.494 2.17h-.683l-.625-2.175-.514 2.575h-.94l.795-4.002h1.15l.723 2.37z"/>
        <path d="M10.55 8.775c.284.123.517.292.7.505l-.7.73a1.332 1.332 0 0 0-.432-.39 1.054 1.054 0 0 0-.526-.146 1.235 1.235 0 0 0-1.071.628c-.11.194-.166.407-.166.64 0 .197.043.376.128.536a.96.96 0 0 0 .87.514c.167 0 .347-.042.54-.126.193-.083.369-.198.528-.342l.555.656c-.245.229-.528.41-.847.545-.319.135-.628.203-.928.203-.377 0-.714-.082-1.01-.245a1.75 1.75 0 0 1-.688-.677 1.933 1.933 0 0 1-.246-.973c0-.419.107-.8.321-1.142.214-.343.506-.612.876-.808.37-.196.774-.294 1.214-.294.304 0 .597.062.882.186" fill="#FFF"/>
    </g>
</svg>
