<svg width="60" height="20" viewBox="0 0 60 20" xmlns="http://www.w3.org/2000/svg">
    <title>
        logoMC-inverso-sm
    </title>
    <g fill="#FEFEFE" fill-rule="evenodd">
        <path d="M5.321 12.25l-.546 1.963c-.213.775-.45 1.812-.652 2.705H4.09a36.714 36.714 0 0 0-.569-2.683l-.47-1.985H.45L0 19.603h1.777l.119-2.64c.031-.83.064-1.919.105-2.957h.023c.172 1.003.387 2.095.58 2.88l.6 2.564H4.71l.718-2.565c.235-.806.535-1.908.76-2.88h.031c0 1.147.01 2.129.044 2.958l.085 2.64h1.874l-.365-7.353H5.321z"/>
        <path d="M12.162 18.948c-1.478 0-2.313-1.407-2.313-2.989 0-1.604.771-3.066 2.323-3.066 1.553 0 2.302 1.528 2.302 3 0 1.67-.834 3.055-2.312 3.055m.043-6.83c-1.927 0-3.34 1.528-3.34 3.863 0 2.225 1.327 3.742 3.243 3.742 1.84 0 3.35-1.353 3.35-3.872 0-2.194-1.273-3.732-3.253-3.732"/>
        <path d="M22.354 13.058h2.195v6.545h.942v-6.545h2.204v-.808h-5.34z"/>
        <path d="M29.163 16.155h2.793v-.785h-2.793v-2.323h2.965v-.797h-3.909v7.353h4.07v-.797h-3.126z"/>
        <path d="M36.602 12.926c.6 0 1.103.131 1.447.306l.235-.775c-.246-.131-.826-.327-1.713-.327-2.238 0-3.77 1.55-3.77 3.861 0 2.423 1.522 3.733 3.555 3.733.878 0 1.574-.176 1.906-.35l-.183-.764c-.374.186-.951.305-1.53.305-1.745 0-2.762-1.146-2.762-2.955 0-1.932 1.124-3.034 2.815-3.034"/>
        <path d="M40.574 16.548l.706-2.128c.15-.445.257-.904.365-1.33h.021c.107.426.214.862.375 1.341l.717 2.117h-2.184zm.557-4.298l-2.463 7.353h.962l.75-2.313h2.561l.77 2.313h.995l-2.461-7.353H41.13z"/>
        <path d="M47.211 18.926c-.332 0-.587-.01-.78-.043v-2.804h.769c1.017 0 1.863.427 1.863 1.418 0 1.069-.888 1.429-1.852 1.429zm-.78-5.935c.148-.032.395-.065.823-.065.94 0 1.574.35 1.574 1.2 0 .709-.578 1.244-1.552 1.244h-.846v-2.379zm2.129 2.684v-.033c.75-.272 1.22-.894 1.22-1.615 0-.577-.236-1.014-.61-1.297-.438-.371-1.036-.534-1.97-.534-.642 0-1.295.065-1.702.163v7.222c.312.042.805.087 1.446.087 1.177 0 1.99-.218 2.483-.687.375-.349.62-.84.62-1.474 0-1.09-.802-1.667-1.487-1.832z"/>
        <path d="M51.966 12.25h-.944v7.353h4.025v-.796h-3.081z"/>
        <path d="M56.75 18.806v-2.651h2.794v-.785h-2.793v-2.323h2.964v-.797h-3.909v7.353h4.069v-.797z"/>
        <path d="M16.507 19.43v-7.194h1.005l2.251 3.64c.514.843.933 1.6 1.257 2.338l.032-.01c-.084-.96-.105-1.837-.105-2.958v-3.01h.859v7.195h-.921l-2.241-3.65c-.493-.802-.965-1.623-1.31-2.403l-.031.01c.052.908.063 1.774.063 2.969v3.074h-.859z"/>
        <path d="M29.793 4.275C29.597 1.93 28.759.529 28.759.529 25.319-.355 13.617.11 12.606.223 11.595.337 11.44.7 11.44.7c-.73 6.334.845 8.537.845 8.537.81.335 3.058.33 3.058.33s.126.148.398.37c.029.02.058.041.087.065l.004.004c.415.325.878.59 1.342.804V10.8c.595.276 1.348.54 2.281.732l.004.005c.307.061.495.086.495.086-.677-1.155-.125-2.062-.125-2.062.23.028 7.94-.234 8.681-.361.741-.128 1.314-.504 1.314-.504.293-.784.166-2.08-.03-4.422"/>
    </g>
</svg>
