<svg width="295" height="68" viewBox="0 0 295 68" xmlns="http://www.w3.org/2000/svg" xmlns:xlink="http://www.w3.org/1999/xlink">
    <title>
        logoMC-golive-negativo-BIG
    </title>
    <defs>
        <path id="a" d="M0 67.81h294.815V0H0z"/>
    </defs>
    <g fill="none" fill-rule="evenodd">
        <path d="M125.997 46.253c-1.36 2.59-3.224 4.635-5.59 6.134-2.367 1.5-4.966 2.249-7.795 2.249-2.83 0-5.442-.75-7.836-2.25-2.395-1.498-4.313-3.543-5.754-6.133-1.442-2.589-2.163-5.465-2.163-8.628 0-3.108.707-5.956 2.122-8.546 1.415-2.59 3.333-4.62 5.755-6.093a14.885 14.885 0 0 1 7.876-2.208c2.829 0 5.428.736 7.795 2.208 2.366 1.472 4.23 3.504 5.59 6.093 1.36 2.59 2.04 5.438 2.04 8.546 0 3.163-.68 6.04-2.04 8.628m13.345-23.758c-2.693-4.47-6.394-7.986-11.1-10.55-4.707-2.562-9.971-3.843-15.794-3.843-5.822 0-11.087 1.281-15.793 3.843-4.707 2.564-8.407 6.08-11.1 10.55-2.693 4.472-4.04 9.487-4.04 15.048 0 5.616 1.347 10.701 4.04 15.253 2.693 4.553 6.393 8.124 11.1 10.713 4.706 2.59 9.97 3.885 15.793 3.885 5.823 0 11.087-1.309 15.794-3.926 4.706-2.617 8.407-6.187 11.1-10.713 2.694-4.525 4.04-9.596 4.04-15.212 0-5.561-1.346-10.576-4.04-15.048" fill="#FFF"/>
        <path d="M164.696 52.044c0 1.216.255 2.159.766 2.83.51.672 1.5 1.007 2.968 1.007.894 0 1.978-.096 3.256-.287l.479 10.553c-1.278.383-2.73.686-4.357.911a36.953 36.953 0 0 1-5.027.336c-2.553 0-4.691-.384-6.415-1.152-1.723-.767-3.097-1.79-4.117-3.07a11.959 11.959 0 0 1-2.202-4.365 18.946 18.946 0 0 1-.67-5.036V8.934h15.32v43.11z" fill="#FC3F3F"/>
        <mask id="b" fill="#fff">
            <use xlink:href="#a"/>
        </mask>
        <path d="M178.866 66.434h15.32V19.425h-15.32v47.01zm-.957-57.8c0-2.43.797-4.475 2.394-6.14C181.897.832 183.973 0 186.526 0c2.552 0 4.627.832 6.223 2.494 1.595 1.665 2.394 3.71 2.394 6.14 0 2.432-.799 4.478-2.394 6.14-1.596 1.664-3.67 2.495-6.223 2.495-2.554 0-4.629-.83-6.223-2.494-1.597-1.663-2.394-3.71-2.394-6.14z" fill="#FC3F3F" mask="url(#b)"/>
        <path fill="#FC3F3F" mask="url(#b)" d="M216.112 66.434l-16.277-47.009h15.415l9 33.003 9-33.003h15.415l-16.277 47.01z"/>
        <path d="M274.42 28.251c-2.425 0-4.293.784-5.6 2.351-1.31 1.568-1.963 3.727-1.963 6.476h13.596c.127-.511.191-1.056.191-1.631 0-2.046-.543-3.757-1.627-5.133-1.086-1.374-2.619-2.063-4.596-2.063m.478-9.785c6.128 0 10.978 1.808 14.554 5.42 3.574 3.614 5.362 8.62 5.362 15.014 0 2.432-.288 5.022-.862 7.771h-27.192c.127 2.879 1.101 5.198 2.92 6.956 1.82 1.76 4.611 2.638 8.378 2.638 2.298 0 4.707-.207 7.23-.624 2.52-.415 4.706-1.038 6.558-1.87l1.914 9.881c-2.426 1.216-5.155 2.144-8.186 2.782a45.63 45.63 0 0 1-9.43.96c-4.087 0-7.693-.592-10.82-1.775-3.128-1.183-5.745-2.83-7.851-4.941-2.107-2.11-3.703-4.636-4.788-7.579-1.086-2.94-1.627-6.203-1.627-9.786 0-3.837.558-7.29 1.675-10.36 1.116-3.07 2.712-5.676 4.788-7.82 2.073-2.142 4.579-3.789 7.516-4.94 2.935-1.151 6.223-1.727 9.861-1.727" fill="#FC3F3F" mask="url(#b)"/>
        <path d="M46.16 29.632L15.079 9.661A9.906 9.906 0 0 0 9.742 8.1c-3.21 0-6.351 1.557-8.193 4.458C.516 14.111 0 15.974 0 17.939V57.98c0 5.38 4.336 9.83 9.81 9.83 1.86 0 3.72-.518 5.269-1.553l31.08-20.07c4.542-2.899 5.885-9.002 2.993-13.558-.823-1.24-1.855-2.275-2.993-2.998" fill="#FC3F3F" mask="url(#b)"/>
        <path d="M65.13 37.063h-4.558v11.562h4.558v3.23c-3.7 1.854-6.992 2.78-9.876 2.78-3.048 0-5.823-.735-8.325-2.208a15.755 15.755 0 0 1-2.704-2.005l-12.378 7.993c1.945 1.984 4.182 3.684 6.716 5.094 4.652 2.59 9.862 3.885 15.63 3.885 3.972 0 8.175-.696 12.61-2.086 4.435-1.39 8.175-3.202 11.223-5.438V37.053H65.13v.01z" fill="#FFF" mask="url(#b)"/>
        <path d="M43.946 25.229c.871-.85 1.834-1.601 2.901-2.243 2.45-1.472 5.196-2.208 8.244-2.208 2.612 0 5.264.572 7.958 1.717a23.808 23.808 0 0 1 7.142 4.662l8.488-10.468c-2.938-2.617-6.53-4.703-10.774-6.256-4.244-1.554-8.488-2.331-12.732-2.331-5.932 0-11.305 1.281-16.12 3.843-2.79 1.486-5.231 3.297-7.327 5.432l12.22 7.852z" fill="#FFF" mask="url(#b)"/>
        <path fill="#FFF" mask="url(#b)" d="M21.897 30.375h4.262l-2.927 15.12h-3.466l1.895-9.707-5.51 8.197h-2.52l-2.302-8.218-1.895 9.727H5.97l2.927-15.119h4.24l2.67 8.95z"/>
        <path d="M38.902 30.839c1.047.467 1.908 1.103 2.582 1.908l-2.582 2.761a4.957 4.957 0 0 0-1.593-1.477c-.632-.366-1.278-.55-1.938-.55-.817 0-1.578.212-2.281.636a4.614 4.614 0 0 0-1.668 1.736 4.877 4.877 0 0 0-.614 2.416c0 .748.158 1.423.474 2.027a3.588 3.588 0 0 0 1.313 1.424c.56.345 1.19.518 1.894.518.617 0 1.28-.159 1.991-.475a7.069 7.069 0 0 0 1.948-1.294l2.045 2.48a10.578 10.578 0 0 1-3.121 2.06c-1.177.51-2.318.765-3.422.765-1.393 0-2.634-.309-3.725-.927a6.533 6.533 0 0 1-2.54-2.556c-.602-1.085-.903-2.31-.903-3.677 0-1.581.394-3.02 1.184-4.314a8.407 8.407 0 0 1 3.228-3.051c1.363-.74 2.856-1.11 4.477-1.11 1.12 0 2.203.233 3.25.7" fill="#FFF" mask="url(#b)"/>
    </g>
</svg>
