<svg width="89" height="36" viewBox="0 0 89 36" xmlns="http://www.w3.org/2000/svg">
    <title>
        mimc
    </title>
    <g fill="none" fill-rule="evenodd">
        <path fill="#FE4A49" d="M30.169 0H89v36H30.169z"/>
        <path d="M40.729 26.766V9.27h4.399l4.941 7.074 4.942-7.074h4.399v17.496h-5.16v-8.694l-4.18 5.832-4.182-5.778v8.64h-5.16zm34.402-6.264l3.286 3.591c-1.81 1.998-4.227 2.997-7.25 2.997-2.752 0-4.992-.869-6.72-2.605-1.73-1.737-2.594-3.893-2.594-6.467 0-2.556.865-4.698 2.594-6.426C66.175 9.864 68.415 9 71.167 9c2.77 0 5.005.846 6.706 2.538l-3.394 3.483c-.905-.918-1.936-1.377-3.095-1.377-1.158 0-2.14.414-2.946 1.242-.806.828-1.208 1.872-1.208 3.132 0 1.296.389 2.358 1.167 3.186.779.828 1.774 1.242 2.987 1.242 1.52 0 2.77-.648 3.747-1.944z" fill="#FFF"/>
        <path d="M8.96 21.744L2.797 13.32l-1.71-2.376v15.552H0V9h.95l8.01 10.962L16.97 9h.95v17.496h-1.085V10.944l-1.711 2.376-6.164 8.424zm13.305 4.752V9h1.086v17.496h-1.086z" fill="#FE4A49"/>
    </g>
</svg>
