<svg width="120" height="41" viewBox="0 0 120 41" xmlns="http://www.w3.org/2000/svg" xmlns:xlink="http://www.w3.org/1999/xlink">
    <title>
        Play Store
    </title>
    <defs>
        <linearGradient x1="58.917%" y1="9.59%" x2="90.81%" y2="60.851%" id="a">
            <stop stop-color="#FF177B" offset="0%"/>
            <stop stop-color="#FFEC73" offset="100%"/>
        </linearGradient>
        <linearGradient x1="37.103%" y1="-44.035%" x2="0%" y2="101.06%" id="c">
            <stop stop-color="#064AA2" offset="0%"/>
            <stop stop-color="#63FFD4" offset="100%"/>
        </linearGradient>
        <path d="M16.064 25.092L5.247 14.678c-.252.06-.404.251-.404.574V35.178c0 .274.11.437.243.492l10.978-10.578z" id="b"/>
        <path d="M5.53 35.57l6.251-3.489 2.762-1.554 4.546-2.488-3.026-2.988-10.979 10.58c.123.04.338.018.507-.067" id="e"/>
        <linearGradient x1="78.645%" y1="50%" x2="2.495%" y2="100%" id="f">
            <stop stop-color="#FF4521" offset="0%"/>
            <stop stop-color="#8A33DB" offset="100%"/>
        </linearGradient>
        <linearGradient x1="0%" y1="-24.186%" x2="64.224%" y2="100%" id="i">
            <stop stop-color="#00A3B5" offset="0%"/>
            <stop stop-color="#D6FFA1" offset="100%"/>
        </linearGradient>
        <path d="M5.828 14.798c-.208-.113-.415-.146-.583-.1l10.826 10.43 2.995-2.88-4.514-2.54-6.825-3.841-1.9-1.07z" id="h"/>
    </defs>
    <g fill="none" fill-rule="evenodd">
        <g>
            <rect fill="#000" width="119.229" height="41" rx="5.663"/>
            <path d="M14.518 19.708l-8.71-4.902c-.483-.272-.965-.107-.965.462v19.968c0 .425.344.61.765.374l8.91-5.016 1.73-.973 2.785-1.566s3.83-2.157 4.34-2.442c.509-.287.46-.68.03-.906-.43-.226-4.37-2.459-4.37-2.459l-4.515-2.54z" fill="url(#a)"/>
            <mask id="d" fill="#fff">
                <use xlink:href="#b"/>
            </mask>
            <use fill="url(#c)" xlink:href="#b"/>
            <path d="M19.05 22.212l-4.52-2.542c-.016.037-8.239-4.602-8.718-4.838-.487-.309-.969-.143-.969.41V35.25c0 .44.344.624.727.41.457-.259 8.944-5.047 8.96-5.084l4.52-2.542c-.023.035 3.806-2.125 4.28-2.378.544-.321.495-.715.08-.902-.444-.265-4.383-2.502-4.36-2.542" mask="url(#d)"/>
            <mask id="g" fill="#fff">
                <use xlink:href="#e"/>
            </mask>
            <path d="M14.529 19.71c-.016.038-8.239-4.6-8.718-4.837-.488-.308-.969-.143-.969.41V35.29c0 .44.344.624.727.41.457-.258 8.944-5.047 8.96-5.084l4.52-2.542c-.023.035 3.806-2.125 4.279-2.378.545-.32.496-.714.08-.902-.443-.265-4.382-2.502-4.359-2.542l-4.52-2.542z" fill="url(#f)" mask="url(#g)"/>
            <mask id="j" fill="#fff">
                <use xlink:href="#h"/>
            </mask>
            <use fill="url(#i)" xlink:href="#h"/>
            <path d="M19.05 22.212l-4.521-2.542c-.016.037-8.24-4.602-8.719-4.838-.487-.309-.968-.143-.968.41V35.25c0 .44.344.624.726.41.457-.259 8.945-5.047 8.96-5.084l4.521-2.542c-.023.035 3.806-2.125 4.278-2.378.546-.321.497-.715.081-.902-.443-.265-4.382-2.502-4.359-2.542" mask="url(#j)"/>
            <path d="M81.661 28.607l-.894.862c-.206.116-.412.25-.617.347-.62.288-1.252.36-1.813.36-.597 0-1.533-.04-2.488-.745-1.326-.955-1.906-2.596-1.906-4.026 0-2.96 2.359-4.413 4.283-4.413.672 0 1.363.172 1.924.535.934.63 1.175 1.45 1.31 1.89l-4.394 1.814-1.44.114c.467 2.428 2.074 3.84 3.85 3.84.887 0 1.546-.296 2.15-.601 0 0 .121-.065.035.023zm-2.684-4.87c.352-.133.536-.248.536-.516 0-.768-.835-1.655-1.832-1.655-.738 0-2.124.598-2.124 2.675 0 .325.037.67.056 1.015l3.364-1.519z" fill="#FFF"/>
            <path d="M72.492 28.503c0 .74.129.856.741.914.32.038.637.055.952.094l-.69.419h-3.282c.43-.571.505-.628.505-1.009v-.425L70.71 17.17h-1.45l1.396-.688h2.664c-.577.342-.75.55-.824 1.217l-.004 10.804" fill="#FFF"/>
            <path d="M67.398 21.927c.428.36 1.319 1.122 1.319 2.57 0 1.41-.777 2.075-1.56 2.704-.24.248-.521.517-.521.932 0 .422.28.65.483.82l.672.532c.817.706 1.561 1.354 1.561 2.669 0 1.791-1.693 3.598-4.892 3.598-2.695 0-3.998-1.315-3.998-2.724 0-.686.333-1.657 1.433-2.323 1.153-.722 2.715-.818 3.552-.875-.261-.345-.56-.707-.56-1.297 0-.323.095-.516.187-.742-.204.02-.409.04-.595.04-1.972 0-3.087-1.507-3.087-2.992 0-.876.39-1.848 1.191-2.553 1.06-.894 2.325-1.048 3.33-1.048h3.832l-1.191.689h-1.156zM66.09 30.36c-.154-.021-.246-.021-.432-.021-.17 0-1.183.038-1.967.31-.415.157-1.615.62-1.615 1.998 0 1.375 1.295 2.366 3.299 2.366 1.8 0 2.756-.892 2.756-2.094 0-.989-.619-1.51-2.041-2.56zm.526-3.669c.428-.438.465-1.044.465-1.387 0-1.366-.794-3.493-2.333-3.493-.48 0-1 .247-1.296.63-.313.395-.407.908-.407 1.401 0 1.272.723 3.381 2.314 3.381a1.87 1.87 0 0 0 1.257-.532z" fill="#FFF"/>
            <path d="M55.807 30.176c-2.962 0-4.548-2.374-4.548-4.524 0-2.511 1.993-4.66 4.828-4.66 2.74 0 4.456 2.207 4.456 4.525 0 2.264-1.697 4.659-4.736 4.659zm2.317-1.553c.452-.615.562-1.384.562-2.132 0-1.694-.785-4.925-3.104-4.925-.617 0-1.238.248-1.686.653-.73.673-.86 1.519-.86 2.348 0 1.9.913 5.035 3.18 5.035.73 0 1.477-.364 1.908-.979z" fill="#FFF"/>
            <path d="M45.878 30.176c-2.965 0-4.548-2.374-4.548-4.524 0-2.511 1.995-4.66 4.83-4.66 2.739 0 4.454 2.207 4.454 4.525 0 2.264-1.695 4.659-4.736 4.659zm2.318-1.553c.449-.615.561-1.384.561-2.132 0-1.694-.787-4.925-3.106-4.925-.619 0-1.234.248-1.683.653-.732.673-.862 1.519-.862 2.348 0 1.9.918 5.035 3.182 5.035.73 0 1.476-.364 1.908-.979z" fill="#FFF"/>
            <path d="M40.101 29.609l-2.509.587c-1.017.164-1.93.308-2.897.308-4.84 0-6.684-3.642-6.684-6.493 0-3.481 2.613-6.709 7.088-6.709.947 0 1.858.142 2.688.374 1.315.377 1.93.843 2.314 1.116l-1.457 1.415-.615.14.438-.713c-.593-.593-1.684-1.687-3.755-1.687-2.768 0-4.857 2.152-4.857 5.293 0 3.373 2.385 6.547 6.21 6.547 1.123 0 1.702-.231 2.227-.447v-2.892l-2.65.146 1.405-.771h3.718l-.454.447c-.123.107-.14.143-.174.286-.018.163-.036.683-.036.865v2.188" fill="#FFF"/>
            <path d="M87.077 28.695v4.843h-.945V21.215h.945v1.403c.615-.907 1.74-1.626 3.046-1.626 2.342 0 3.92 1.81 3.92 4.673 0 2.845-1.578 4.692-3.92 4.692-1.233 0-2.338-.647-3.046-1.662zm5.997-2.956c0-2.181-1.11-3.845-3.076-3.845-1.222 0-2.39.984-2.897 1.842v3.986c.507.86 1.675 1.88 2.897 1.88 1.967 0 3.076-1.678 3.076-3.863z" fill="#FFF"/>
            <path fill="#FFF" d="M95.334 17.794h.97v12.382h-.97z"/>
            <path d="M106.835 32.685c.202.092.546.149.765.149.578 0 .98-.241 1.342-1.091l.689-1.59-3.722-8.997h1.054l3.192 7.797 3.161-7.797h1.07l-4.54 10.885c-.47 1.122-1.212 1.661-2.23 1.661-.305 0-.708-.055-.944-.13l.163-.887" fill="#FFF"/>
            <path d="M104.169 30.164a16.923 16.923 0 0 1-.147-.814 5.558 5.558 0 0 1-.045-.7c-.326.487-.787.892-1.377 1.211-.59.321-1.15.479-1.919.479-.926 0-1.644-.232-2.157-.702-.51-.47-.768-1.106-.768-1.911 0-.804.372-1.457 1.115-1.956.742-.502 1.702-.75 2.89-.75h2.216v-1.115c0-.642-.215-1.147-.644-1.513-.431-.367-1.036-.552-1.82-.552-.716 0-1.297.17-1.74.499-.438.337-.659.754-.659 1.256h-.972l-.02-.048c-.035-.678.27-1.272.917-1.785.644-.513 1.488-.771 2.528-.771 1.035 0 1.874.254 2.505.76.631.502.948 1.227.948 2.174v4.425a5.96 5.96 0 0 0 .243 1.813h-1.094zm-3.374-.644c.807 0 1.386-.185 1.978-.55.589-.362.99-.836 1.199-1.409V25.83h-2.225c-.85 0-1.553.193-2.106.58-.555.388-.835.857-.835 1.402 0 .514.177.925.531 1.237.355.315.84.471 1.458.471z" fill="#FFF"/>
            <path d="M28.092 6.5h2.237c1.758 0 2.793 1.063 2.793 2.952s-1.035 2.998-2.793 2.998h-2.237V6.5zm1.226 1.026v3.893h.865c1.096 0 1.688-.676 1.688-1.963 0-1.245-.609-1.93-1.688-1.93h-.865zm6.396 4.924V6.5h-1.226v5.95h1.226zm1.334-1.695c.037 1.118.934 1.798 2.343 1.798 1.453 0 2.375-.73 2.375-1.885 0-.907-.512-1.418-1.685-1.674l-.71-.152c-.674-.157-.959-.363-.959-.73 0-.442.406-.734 1.011-.734.613 0 1.048.305 1.088.808h1.15c-.021-1.077-.878-1.79-2.242-1.79-1.307 0-2.24.726-2.24 1.823 0 .87.531 1.427 1.61 1.662l.764.169c.707.16.987.375.987.763 0 .437-.447.755-1.1.755-.65 0-1.153-.322-1.21-.813h-1.182zM43.096 6.5h2.383c1.201 0 2.03.813 2.03 2.037 0 1.221-.857 2.038-2.091 2.038h-1.096v1.876h-1.226V6.5zm1.226.986V9.6h.828c.702 0 1.112-.379 1.112-1.06 0-.676-.406-1.055-1.108-1.055h-.832zm7.131-1.089c1.734 0 2.826 1.184 2.826 3.08 0 1.894-1.092 3.077-2.826 3.077-1.738 0-2.826-1.183-2.826-3.076 0-1.897 1.088-3.081 2.826-3.081zm0 1.04c-.958 0-1.575.791-1.575 2.04 0 1.246.613 2.034 1.575 2.034.958 0 1.571-.788 1.571-2.033 0-1.25-.613-2.042-1.571-2.042zm5.365 5.014V8.553h.037l2.74 3.897h1.015V6.5h-1.173v3.876h-.033l-2.736-3.877h-1.023v5.951h1.173zm6.571 0V6.5h-1.226v5.95h1.226zm4.148 0h-2.594V6.5h2.55c1.1 0 1.79.572 1.79 1.484 0 .651-.48 1.196-1.1 1.29v.034c.795.061 1.38.651 1.38 1.439 0 1.047-.776 1.703-2.026 1.703zm-1.368-5.023v1.547h.88c.654 0 1.028-.293 1.028-.796 0-.479-.33-.751-.902-.751H66.17zm0 4.095h1.055c.707 0 1.088-.305 1.088-.874 0-.557-.394-.854-1.116-.854h-1.027v1.728zm8.459-.103h-2.562V6.5H70.84v5.951h3.788v-1.03zm5.186 0H77.16V9.918h2.505V8.96h-2.505V7.526h2.655V6.499h-3.88v5.951h3.88v-1.03zm7.568 0h-2.655V9.918h2.505V8.96h-2.505V7.526h2.655V6.499h-3.88v5.951h3.88v-1.03zm2.637 1.031V8.553h.037l2.74 3.897h1.015V6.5h-1.173v3.876h-.032l-2.737-3.877h-1.023v5.951h1.173z" fill="#FFF"/>
        </g>
    </g>
</svg>
