<svg width="174" height="66" viewBox="0 0 174 66" xmlns="http://www.w3.org/2000/svg" xmlns:xlink="http://www.w3.org/1999/xlink">
    <title>
        programm
    </title>
    <defs>
        <rect id="a" x="42" width="91" height="66" rx="5"/>
        <path id="b" d="M0 0h27v32H0z"/>
    </defs>
    <g fill="none" fill-rule="evenodd">
        <path d="M7.692 8.4c-2.378 0-3.389.195-4.434.754a5.052 5.052 0 0 0-2.104 2.104C.595 12.303.4 13.314.4 15.692v35.616c0 2.378.195 3.389.754 4.434a5.052 5.052 0 0 0 2.104 2.104c1.045.559 2.056.754 4.434.754h56.47c2.379 0 3.39-.195 4.434-.754a5.052 5.052 0 0 0 2.104-2.104c.56-1.045.755-2.056.755-4.434V15.692c0-2.378-.196-3.389-.755-4.434a5.052 5.052 0 0 0-2.104-2.104c-1.045-.559-2.055-.754-4.433-.754H7.692zm102.145 0c-2.378 0-3.388.195-4.433.754a5.052 5.052 0 0 0-2.104 2.104c-.56 1.045-.755 2.056-.755 4.434v35.616c0 2.378.196 3.389.755 4.434a5.052 5.052 0 0 0 2.104 2.104c1.045.559 2.055.754 4.433.754h56.471c2.378 0 3.389-.195 4.434-.754a5.052 5.052 0 0 0 2.104-2.104c.559-1.045.754-2.056.754-4.434V15.692c0-2.378-.195-3.389-.754-4.434a5.052 5.052 0 0 0-2.104-2.104c-1.045-.559-2.056-.754-4.434-.754h-56.47z" stroke="#0F1D2B" stroke-width=".8" opacity=".688"/>
        <g stroke="#91A3B0" stroke-width="1.4">
            <path d="M26.805 38.346C28.832 41.72 32.705 44 37.152 44c4.439 0 8.308-2.274 10.338-5.64"/>
            <path d="M33.508 26.711A3.83 3.83 0 0 0 29.833 24a3.828 3.828 0 0 0-3.704 2.812"/>
            <path d="M37.848 28.981c1.502 2.417 2.16 4.19 1.973 5.32-.187 1.131-1.164 1.653-2.93 1.565"/>
            <path d="M48.842 26.711A3.83 3.83 0 0 0 45.167 24a3.828 3.828 0 0 0-3.704 2.812"/>
        </g>
        <g stroke="#91A3B0" stroke-width="1.4">
            <path d="M125.805 38.346c2.027 3.374 5.9 5.654 10.347 5.654 4.439 0 8.308-2.274 10.338-5.64"/>
            <path d="M132.508 26.711A3.83 3.83 0 0 0 128.833 24a3.828 3.828 0 0 0-3.704 2.812"/>
            <path d="M136.848 28.981c1.502 2.417 2.16 4.19 1.973 5.32-.187 1.131-1.164 1.653-2.93 1.565"/>
            <path d="M147.842 26.711A3.83 3.83 0 0 0 144.167 24a3.828 3.828 0 0 0-3.704 2.812"/>
        </g>
        <g>
            <use fill="#FFF" xlink:href="#a"/>
            <rect stroke="#0F1D2B" stroke-width="1.4" x="42.7" y=".7" width="89.6" height="64.6" rx="5"/>
        </g>
        <g stroke="#FE4A49" stroke-width="1.4">
            <path d="M72.155 39.802C75.063 44.693 80.62 48 87 48c6.37 0 11.921-3.297 14.833-8.177"/>
            <path d="M81.773 22.931a5.502 5.502 0 0 0-10.587.147"/>
            <path d="M88 26.223c2.154 3.504 3.098 6.075 2.83 7.715-.269 1.639-1.67 2.395-4.203 2.268"/>
            <path d="M103.773 22.931a5.502 5.502 0 0 0-10.587.147"/>
        </g>
    </g>
</svg>
