<svg width="76" height="69" viewBox="0 0 76 69" xmlns="http://www.w3.org/2000/svg">
    <title>
        woman
    </title>
    <g fill="none" fill-rule="evenodd">
        <path d="M6.736 52.6c1.363-3.67-.962-12.375-.962-17.116 0-18.018 5.802-24.037 17.111-23.668 10.854.354 16.309 6.195 16.309 22.518 0 5.156-1.511 10.921 0 18.266" stroke="#0F1D2B" stroke-width="1.4" stroke-linecap="round"/>
        <path d="M22.207 49c5.93 0 11.019-6.002 11.019-14.008 0-5.425-3.898-11.456-5.103-15.263-.719-2.269-1.788 1.462-3.692 1.699-11.777 1.466-12.69 5.559-12.69 13.564C11.742 42.998 16.279 49 22.208 49z" stroke="#0F1D2B" stroke-width="1.4"/>
        <path d="M16.68 51.4v4.212c-6.922.77-11.208 1.754-12.86 2.953C2.17 59.765 1.23 62.575 1 67h41.774c-.408-4.764-1.377-7.71-2.908-8.84s-5.581-1.845-12.15-2.146V51.4H16.68z" fill="#FE4A49"/>
        <path d="M27.376 51.4v4.544c6.613.31 10.794 1.094 12.543 2.35 1.75 1.256 2.701 4.158 2.855 8.706M1 67c.154-4.548 1.106-7.45 2.855-8.706 1.749-1.256 5.93-2.04 12.543-2.35V51.4" stroke="#0F1D2B" stroke-width="1.4" stroke-linecap="round" stroke-linejoin="round"/>
        <path d="M26.376 50.4v6.544c6.613.31 10.794 1.094 12.543 2.35 1.75 1.256 2.701 4.158 2.855 8.706M2 68c.154-4.548 1.106-7.45 2.855-8.706 1.749-1.256 5.93-2.04 12.543-2.35V51.4v1" stroke="#F8F8F8" stroke-width="1.4" stroke-linecap="round" stroke-linejoin="round"/>
        <g transform="translate(39.194 1)">
            <path d="M6.585 35.482A18.932 18.932 0 0 0 16.71 38.4c10.547 0 19.096-8.596 19.096-19.2S27.256 0 16.71 0C9.662 0 3.506 3.839.197 9.55" stroke="#0F1D2B" stroke-width="1.4" stroke-linecap="round" stroke-linejoin="round"/>
            <ellipse fill="#0F1D2B" cx="17.306" cy="27.6" rx="1.194" ry="1.2"/>
            <path d="M11.546 13.95c.505-2.352 2.18-3.529 5.024-3.529 4.265 0 6.132 2.485 5.013 5.242-1.12 2.757-2.965 3.353-3.938 4.69-.513.706-.672 2.007-.476 3.903" stroke="#0F1D2B" stroke-width="1.4" stroke-linecap="round"/>
        </g>
    </g>
</svg>
